%TF.GenerationSoftware,KiCad,Pcbnew,(5.1.6)-1*%
%TF.CreationDate,2021-08-26T22:57:43+02:00*%
%TF.ProjectId,Car LEDs,43617220-4c45-4447-932e-6b696361645f,rev?*%
%TF.SameCoordinates,Original*%
%TF.FileFunction,Soldermask,Top*%
%TF.FilePolarity,Negative*%
%FSLAX46Y46*%
G04 Gerber Fmt 4.6, Leading zero omitted, Abs format (unit mm)*
G04 Created by KiCad (PCBNEW (5.1.6)-1) date 2021-08-26 22:57:43*
%MOMM*%
%LPD*%
G01*
G04 APERTURE LIST*
%ADD10R,2.500000X2.500000*%
%ADD11C,0.100000*%
%ADD12C,0.900000*%
%ADD13C,5.100000*%
%ADD14R,2.100000X2.100000*%
%ADD15R,1.200000X1.400000*%
%ADD16O,1.800000X1.800000*%
%ADD17R,1.800000X1.800000*%
%ADD18C,1.800000*%
%ADD19O,1.400000X0.700000*%
%ADD20R,1.100000X1.600000*%
%ADD21C,4.840000*%
%ADD22C,5.560000*%
%ADD23C,4.990000*%
%ADD24C,1.900000*%
%ADD25C,3.850000*%
%ADD26R,2.000000X2.000000*%
%ADD27C,0.650000*%
%ADD28R,0.500000X1.450000*%
%ADD29R,0.700000X1.250000*%
%ADD30R,1.100000X1.100000*%
%ADD31R,2.650000X2.650000*%
%ADD32R,0.950000X0.400000*%
%ADD33R,0.400000X0.950000*%
%ADD34R,1.500000X1.000000*%
%ADD35R,1.500000X1.200000*%
G04 APERTURE END LIST*
D10*
%TO.C,U1*%
X139560000Y-69160000D03*
D11*
G36*
X138277401Y-66760241D02*
G01*
X138289594Y-66761442D01*
X138299208Y-66763354D01*
X138310933Y-66766911D01*
X138319987Y-66770661D01*
X138330792Y-66776436D01*
X138338944Y-66781883D01*
X138348415Y-66789656D01*
X138355344Y-66796585D01*
X138363117Y-66806056D01*
X138368564Y-66814208D01*
X138374339Y-66825013D01*
X138378089Y-66834067D01*
X138381646Y-66845792D01*
X138383558Y-66855406D01*
X138384759Y-66867599D01*
X138385000Y-66872500D01*
X138385000Y-67547500D01*
X138384759Y-67552401D01*
X138383558Y-67564594D01*
X138381646Y-67574208D01*
X138378089Y-67585933D01*
X138374339Y-67594987D01*
X138368564Y-67605792D01*
X138363117Y-67613944D01*
X138355344Y-67623415D01*
X138348415Y-67630344D01*
X138338944Y-67638117D01*
X138330792Y-67643564D01*
X138319987Y-67649339D01*
X138310933Y-67653089D01*
X138299208Y-67656646D01*
X138289594Y-67658558D01*
X138277401Y-67659759D01*
X138272500Y-67660000D01*
X138210888Y-67660000D01*
X138205987Y-67659759D01*
X138193794Y-67658558D01*
X138184180Y-67656646D01*
X138172455Y-67653089D01*
X138163401Y-67649339D01*
X138152596Y-67643564D01*
X138144444Y-67638117D01*
X138134973Y-67630344D01*
X138131339Y-67627049D01*
X138067951Y-67563661D01*
X138064656Y-67560027D01*
X138056883Y-67550556D01*
X138051436Y-67542404D01*
X138045661Y-67531599D01*
X138041911Y-67522545D01*
X138038354Y-67510820D01*
X138036442Y-67501206D01*
X138035241Y-67489013D01*
X138035000Y-67484112D01*
X138035000Y-66872500D01*
X138035241Y-66867599D01*
X138036442Y-66855406D01*
X138038354Y-66845792D01*
X138041911Y-66834067D01*
X138045661Y-66825013D01*
X138051436Y-66814208D01*
X138056883Y-66806056D01*
X138064656Y-66796585D01*
X138071585Y-66789656D01*
X138081056Y-66781883D01*
X138089208Y-66776436D01*
X138100013Y-66770661D01*
X138109067Y-66766911D01*
X138120792Y-66763354D01*
X138130406Y-66761442D01*
X138142599Y-66760241D01*
X138147500Y-66760000D01*
X138272500Y-66760000D01*
X138277401Y-66760241D01*
G37*
G36*
G01*
X138485000Y-67572500D02*
X138485000Y-66847500D01*
G75*
G02*
X138572500Y-66760000I87500J0D01*
G01*
X138747500Y-66760000D01*
G75*
G02*
X138835000Y-66847500I0J-87500D01*
G01*
X138835000Y-67572500D01*
G75*
G02*
X138747500Y-67660000I-87500J0D01*
G01*
X138572500Y-67660000D01*
G75*
G02*
X138485000Y-67572500I0J87500D01*
G01*
G37*
G36*
G01*
X138935000Y-67572500D02*
X138935000Y-66847500D01*
G75*
G02*
X139022500Y-66760000I87500J0D01*
G01*
X139197500Y-66760000D01*
G75*
G02*
X139285000Y-66847500I0J-87500D01*
G01*
X139285000Y-67572500D01*
G75*
G02*
X139197500Y-67660000I-87500J0D01*
G01*
X139022500Y-67660000D01*
G75*
G02*
X138935000Y-67572500I0J87500D01*
G01*
G37*
G36*
G01*
X139385000Y-67572500D02*
X139385000Y-66847500D01*
G75*
G02*
X139472500Y-66760000I87500J0D01*
G01*
X139647500Y-66760000D01*
G75*
G02*
X139735000Y-66847500I0J-87500D01*
G01*
X139735000Y-67572500D01*
G75*
G02*
X139647500Y-67660000I-87500J0D01*
G01*
X139472500Y-67660000D01*
G75*
G02*
X139385000Y-67572500I0J87500D01*
G01*
G37*
G36*
G01*
X139835000Y-67572500D02*
X139835000Y-66847500D01*
G75*
G02*
X139922500Y-66760000I87500J0D01*
G01*
X140097500Y-66760000D01*
G75*
G02*
X140185000Y-66847500I0J-87500D01*
G01*
X140185000Y-67572500D01*
G75*
G02*
X140097500Y-67660000I-87500J0D01*
G01*
X139922500Y-67660000D01*
G75*
G02*
X139835000Y-67572500I0J87500D01*
G01*
G37*
G36*
G01*
X140285000Y-67572500D02*
X140285000Y-66847500D01*
G75*
G02*
X140372500Y-66760000I87500J0D01*
G01*
X140547500Y-66760000D01*
G75*
G02*
X140635000Y-66847500I0J-87500D01*
G01*
X140635000Y-67572500D01*
G75*
G02*
X140547500Y-67660000I-87500J0D01*
G01*
X140372500Y-67660000D01*
G75*
G02*
X140285000Y-67572500I0J87500D01*
G01*
G37*
G36*
X140977401Y-66760241D02*
G01*
X140989594Y-66761442D01*
X140999208Y-66763354D01*
X141010933Y-66766911D01*
X141019987Y-66770661D01*
X141030792Y-66776436D01*
X141038944Y-66781883D01*
X141048415Y-66789656D01*
X141055344Y-66796585D01*
X141063117Y-66806056D01*
X141068564Y-66814208D01*
X141074339Y-66825013D01*
X141078089Y-66834067D01*
X141081646Y-66845792D01*
X141083558Y-66855406D01*
X141084759Y-66867599D01*
X141085000Y-66872500D01*
X141085000Y-67484112D01*
X141084759Y-67489013D01*
X141083558Y-67501206D01*
X141081646Y-67510820D01*
X141078089Y-67522545D01*
X141074339Y-67531599D01*
X141068564Y-67542404D01*
X141063117Y-67550556D01*
X141055344Y-67560027D01*
X141052049Y-67563661D01*
X140988661Y-67627049D01*
X140985027Y-67630344D01*
X140975556Y-67638117D01*
X140967404Y-67643564D01*
X140956599Y-67649339D01*
X140947545Y-67653089D01*
X140935820Y-67656646D01*
X140926206Y-67658558D01*
X140914013Y-67659759D01*
X140909112Y-67660000D01*
X140847500Y-67660000D01*
X140842599Y-67659759D01*
X140830406Y-67658558D01*
X140820792Y-67656646D01*
X140809067Y-67653089D01*
X140800013Y-67649339D01*
X140789208Y-67643564D01*
X140781056Y-67638117D01*
X140771585Y-67630344D01*
X140764656Y-67623415D01*
X140756883Y-67613944D01*
X140751436Y-67605792D01*
X140745661Y-67594987D01*
X140741911Y-67585933D01*
X140738354Y-67574208D01*
X140736442Y-67564594D01*
X140735241Y-67552401D01*
X140735000Y-67547500D01*
X140735000Y-66872500D01*
X140735241Y-66867599D01*
X140736442Y-66855406D01*
X140738354Y-66845792D01*
X140741911Y-66834067D01*
X140745661Y-66825013D01*
X140751436Y-66814208D01*
X140756883Y-66806056D01*
X140764656Y-66796585D01*
X140771585Y-66789656D01*
X140781056Y-66781883D01*
X140789208Y-66776436D01*
X140800013Y-66770661D01*
X140809067Y-66766911D01*
X140820792Y-66763354D01*
X140830406Y-66761442D01*
X140842599Y-66760241D01*
X140847500Y-66760000D01*
X140972500Y-66760000D01*
X140977401Y-66760241D01*
G37*
G36*
X141852401Y-67635241D02*
G01*
X141864594Y-67636442D01*
X141874208Y-67638354D01*
X141885933Y-67641911D01*
X141894987Y-67645661D01*
X141905792Y-67651436D01*
X141913944Y-67656883D01*
X141923415Y-67664656D01*
X141930344Y-67671585D01*
X141938117Y-67681056D01*
X141943564Y-67689208D01*
X141949339Y-67700013D01*
X141953089Y-67709067D01*
X141956646Y-67720792D01*
X141958558Y-67730406D01*
X141959759Y-67742599D01*
X141960000Y-67747500D01*
X141960000Y-67872500D01*
X141959759Y-67877401D01*
X141958558Y-67889594D01*
X141956646Y-67899208D01*
X141953089Y-67910933D01*
X141949339Y-67919987D01*
X141943564Y-67930792D01*
X141938117Y-67938944D01*
X141930344Y-67948415D01*
X141923415Y-67955344D01*
X141913944Y-67963117D01*
X141905792Y-67968564D01*
X141894987Y-67974339D01*
X141885933Y-67978089D01*
X141874208Y-67981646D01*
X141864594Y-67983558D01*
X141852401Y-67984759D01*
X141847500Y-67985000D01*
X141172500Y-67985000D01*
X141167599Y-67984759D01*
X141155406Y-67983558D01*
X141145792Y-67981646D01*
X141134067Y-67978089D01*
X141125013Y-67974339D01*
X141114208Y-67968564D01*
X141106056Y-67963117D01*
X141096585Y-67955344D01*
X141089656Y-67948415D01*
X141081883Y-67938944D01*
X141076436Y-67930792D01*
X141070661Y-67919987D01*
X141066911Y-67910933D01*
X141063354Y-67899208D01*
X141061442Y-67889594D01*
X141060241Y-67877401D01*
X141060000Y-67872500D01*
X141060000Y-67810888D01*
X141060241Y-67805987D01*
X141061442Y-67793794D01*
X141063354Y-67784180D01*
X141066911Y-67772455D01*
X141070661Y-67763401D01*
X141076436Y-67752596D01*
X141081883Y-67744444D01*
X141089656Y-67734973D01*
X141092951Y-67731339D01*
X141156339Y-67667951D01*
X141159973Y-67664656D01*
X141169444Y-67656883D01*
X141177596Y-67651436D01*
X141188401Y-67645661D01*
X141197455Y-67641911D01*
X141209180Y-67638354D01*
X141218794Y-67636442D01*
X141230987Y-67635241D01*
X141235888Y-67635000D01*
X141847500Y-67635000D01*
X141852401Y-67635241D01*
G37*
G36*
G01*
X141060000Y-68347500D02*
X141060000Y-68172500D01*
G75*
G02*
X141147500Y-68085000I87500J0D01*
G01*
X141872500Y-68085000D01*
G75*
G02*
X141960000Y-68172500I0J-87500D01*
G01*
X141960000Y-68347500D01*
G75*
G02*
X141872500Y-68435000I-87500J0D01*
G01*
X141147500Y-68435000D01*
G75*
G02*
X141060000Y-68347500I0J87500D01*
G01*
G37*
G36*
G01*
X141060000Y-68797500D02*
X141060000Y-68622500D01*
G75*
G02*
X141147500Y-68535000I87500J0D01*
G01*
X141872500Y-68535000D01*
G75*
G02*
X141960000Y-68622500I0J-87500D01*
G01*
X141960000Y-68797500D01*
G75*
G02*
X141872500Y-68885000I-87500J0D01*
G01*
X141147500Y-68885000D01*
G75*
G02*
X141060000Y-68797500I0J87500D01*
G01*
G37*
G36*
G01*
X141060000Y-69247500D02*
X141060000Y-69072500D01*
G75*
G02*
X141147500Y-68985000I87500J0D01*
G01*
X141872500Y-68985000D01*
G75*
G02*
X141960000Y-69072500I0J-87500D01*
G01*
X141960000Y-69247500D01*
G75*
G02*
X141872500Y-69335000I-87500J0D01*
G01*
X141147500Y-69335000D01*
G75*
G02*
X141060000Y-69247500I0J87500D01*
G01*
G37*
G36*
G01*
X141060000Y-69697500D02*
X141060000Y-69522500D01*
G75*
G02*
X141147500Y-69435000I87500J0D01*
G01*
X141872500Y-69435000D01*
G75*
G02*
X141960000Y-69522500I0J-87500D01*
G01*
X141960000Y-69697500D01*
G75*
G02*
X141872500Y-69785000I-87500J0D01*
G01*
X141147500Y-69785000D01*
G75*
G02*
X141060000Y-69697500I0J87500D01*
G01*
G37*
G36*
G01*
X141060000Y-70147500D02*
X141060000Y-69972500D01*
G75*
G02*
X141147500Y-69885000I87500J0D01*
G01*
X141872500Y-69885000D01*
G75*
G02*
X141960000Y-69972500I0J-87500D01*
G01*
X141960000Y-70147500D01*
G75*
G02*
X141872500Y-70235000I-87500J0D01*
G01*
X141147500Y-70235000D01*
G75*
G02*
X141060000Y-70147500I0J87500D01*
G01*
G37*
G36*
X141852401Y-70335241D02*
G01*
X141864594Y-70336442D01*
X141874208Y-70338354D01*
X141885933Y-70341911D01*
X141894987Y-70345661D01*
X141905792Y-70351436D01*
X141913944Y-70356883D01*
X141923415Y-70364656D01*
X141930344Y-70371585D01*
X141938117Y-70381056D01*
X141943564Y-70389208D01*
X141949339Y-70400013D01*
X141953089Y-70409067D01*
X141956646Y-70420792D01*
X141958558Y-70430406D01*
X141959759Y-70442599D01*
X141960000Y-70447500D01*
X141960000Y-70572500D01*
X141959759Y-70577401D01*
X141958558Y-70589594D01*
X141956646Y-70599208D01*
X141953089Y-70610933D01*
X141949339Y-70619987D01*
X141943564Y-70630792D01*
X141938117Y-70638944D01*
X141930344Y-70648415D01*
X141923415Y-70655344D01*
X141913944Y-70663117D01*
X141905792Y-70668564D01*
X141894987Y-70674339D01*
X141885933Y-70678089D01*
X141874208Y-70681646D01*
X141864594Y-70683558D01*
X141852401Y-70684759D01*
X141847500Y-70685000D01*
X141235888Y-70685000D01*
X141230987Y-70684759D01*
X141218794Y-70683558D01*
X141209180Y-70681646D01*
X141197455Y-70678089D01*
X141188401Y-70674339D01*
X141177596Y-70668564D01*
X141169444Y-70663117D01*
X141159973Y-70655344D01*
X141156339Y-70652049D01*
X141092951Y-70588661D01*
X141089656Y-70585027D01*
X141081883Y-70575556D01*
X141076436Y-70567404D01*
X141070661Y-70556599D01*
X141066911Y-70547545D01*
X141063354Y-70535820D01*
X141061442Y-70526206D01*
X141060241Y-70514013D01*
X141060000Y-70509112D01*
X141060000Y-70447500D01*
X141060241Y-70442599D01*
X141061442Y-70430406D01*
X141063354Y-70420792D01*
X141066911Y-70409067D01*
X141070661Y-70400013D01*
X141076436Y-70389208D01*
X141081883Y-70381056D01*
X141089656Y-70371585D01*
X141096585Y-70364656D01*
X141106056Y-70356883D01*
X141114208Y-70351436D01*
X141125013Y-70345661D01*
X141134067Y-70341911D01*
X141145792Y-70338354D01*
X141155406Y-70336442D01*
X141167599Y-70335241D01*
X141172500Y-70335000D01*
X141847500Y-70335000D01*
X141852401Y-70335241D01*
G37*
G36*
X140914013Y-70660241D02*
G01*
X140926206Y-70661442D01*
X140935820Y-70663354D01*
X140947545Y-70666911D01*
X140956599Y-70670661D01*
X140967404Y-70676436D01*
X140975556Y-70681883D01*
X140985027Y-70689656D01*
X140988661Y-70692951D01*
X141052049Y-70756339D01*
X141055344Y-70759973D01*
X141063117Y-70769444D01*
X141068564Y-70777596D01*
X141074339Y-70788401D01*
X141078089Y-70797455D01*
X141081646Y-70809180D01*
X141083558Y-70818794D01*
X141084759Y-70830987D01*
X141085000Y-70835888D01*
X141085000Y-71447500D01*
X141084759Y-71452401D01*
X141083558Y-71464594D01*
X141081646Y-71474208D01*
X141078089Y-71485933D01*
X141074339Y-71494987D01*
X141068564Y-71505792D01*
X141063117Y-71513944D01*
X141055344Y-71523415D01*
X141048415Y-71530344D01*
X141038944Y-71538117D01*
X141030792Y-71543564D01*
X141019987Y-71549339D01*
X141010933Y-71553089D01*
X140999208Y-71556646D01*
X140989594Y-71558558D01*
X140977401Y-71559759D01*
X140972500Y-71560000D01*
X140847500Y-71560000D01*
X140842599Y-71559759D01*
X140830406Y-71558558D01*
X140820792Y-71556646D01*
X140809067Y-71553089D01*
X140800013Y-71549339D01*
X140789208Y-71543564D01*
X140781056Y-71538117D01*
X140771585Y-71530344D01*
X140764656Y-71523415D01*
X140756883Y-71513944D01*
X140751436Y-71505792D01*
X140745661Y-71494987D01*
X140741911Y-71485933D01*
X140738354Y-71474208D01*
X140736442Y-71464594D01*
X140735241Y-71452401D01*
X140735000Y-71447500D01*
X140735000Y-70772500D01*
X140735241Y-70767599D01*
X140736442Y-70755406D01*
X140738354Y-70745792D01*
X140741911Y-70734067D01*
X140745661Y-70725013D01*
X140751436Y-70714208D01*
X140756883Y-70706056D01*
X140764656Y-70696585D01*
X140771585Y-70689656D01*
X140781056Y-70681883D01*
X140789208Y-70676436D01*
X140800013Y-70670661D01*
X140809067Y-70666911D01*
X140820792Y-70663354D01*
X140830406Y-70661442D01*
X140842599Y-70660241D01*
X140847500Y-70660000D01*
X140909112Y-70660000D01*
X140914013Y-70660241D01*
G37*
G36*
G01*
X140285000Y-71472500D02*
X140285000Y-70747500D01*
G75*
G02*
X140372500Y-70660000I87500J0D01*
G01*
X140547500Y-70660000D01*
G75*
G02*
X140635000Y-70747500I0J-87500D01*
G01*
X140635000Y-71472500D01*
G75*
G02*
X140547500Y-71560000I-87500J0D01*
G01*
X140372500Y-71560000D01*
G75*
G02*
X140285000Y-71472500I0J87500D01*
G01*
G37*
G36*
G01*
X139835000Y-71472500D02*
X139835000Y-70747500D01*
G75*
G02*
X139922500Y-70660000I87500J0D01*
G01*
X140097500Y-70660000D01*
G75*
G02*
X140185000Y-70747500I0J-87500D01*
G01*
X140185000Y-71472500D01*
G75*
G02*
X140097500Y-71560000I-87500J0D01*
G01*
X139922500Y-71560000D01*
G75*
G02*
X139835000Y-71472500I0J87500D01*
G01*
G37*
G36*
G01*
X139385000Y-71472500D02*
X139385000Y-70747500D01*
G75*
G02*
X139472500Y-70660000I87500J0D01*
G01*
X139647500Y-70660000D01*
G75*
G02*
X139735000Y-70747500I0J-87500D01*
G01*
X139735000Y-71472500D01*
G75*
G02*
X139647500Y-71560000I-87500J0D01*
G01*
X139472500Y-71560000D01*
G75*
G02*
X139385000Y-71472500I0J87500D01*
G01*
G37*
G36*
G01*
X138935000Y-71472500D02*
X138935000Y-70747500D01*
G75*
G02*
X139022500Y-70660000I87500J0D01*
G01*
X139197500Y-70660000D01*
G75*
G02*
X139285000Y-70747500I0J-87500D01*
G01*
X139285000Y-71472500D01*
G75*
G02*
X139197500Y-71560000I-87500J0D01*
G01*
X139022500Y-71560000D01*
G75*
G02*
X138935000Y-71472500I0J87500D01*
G01*
G37*
G36*
G01*
X138485000Y-71472500D02*
X138485000Y-70747500D01*
G75*
G02*
X138572500Y-70660000I87500J0D01*
G01*
X138747500Y-70660000D01*
G75*
G02*
X138835000Y-70747500I0J-87500D01*
G01*
X138835000Y-71472500D01*
G75*
G02*
X138747500Y-71560000I-87500J0D01*
G01*
X138572500Y-71560000D01*
G75*
G02*
X138485000Y-71472500I0J87500D01*
G01*
G37*
G36*
X138277401Y-70660241D02*
G01*
X138289594Y-70661442D01*
X138299208Y-70663354D01*
X138310933Y-70666911D01*
X138319987Y-70670661D01*
X138330792Y-70676436D01*
X138338944Y-70681883D01*
X138348415Y-70689656D01*
X138355344Y-70696585D01*
X138363117Y-70706056D01*
X138368564Y-70714208D01*
X138374339Y-70725013D01*
X138378089Y-70734067D01*
X138381646Y-70745792D01*
X138383558Y-70755406D01*
X138384759Y-70767599D01*
X138385000Y-70772500D01*
X138385000Y-71447500D01*
X138384759Y-71452401D01*
X138383558Y-71464594D01*
X138381646Y-71474208D01*
X138378089Y-71485933D01*
X138374339Y-71494987D01*
X138368564Y-71505792D01*
X138363117Y-71513944D01*
X138355344Y-71523415D01*
X138348415Y-71530344D01*
X138338944Y-71538117D01*
X138330792Y-71543564D01*
X138319987Y-71549339D01*
X138310933Y-71553089D01*
X138299208Y-71556646D01*
X138289594Y-71558558D01*
X138277401Y-71559759D01*
X138272500Y-71560000D01*
X138147500Y-71560000D01*
X138142599Y-71559759D01*
X138130406Y-71558558D01*
X138120792Y-71556646D01*
X138109067Y-71553089D01*
X138100013Y-71549339D01*
X138089208Y-71543564D01*
X138081056Y-71538117D01*
X138071585Y-71530344D01*
X138064656Y-71523415D01*
X138056883Y-71513944D01*
X138051436Y-71505792D01*
X138045661Y-71494987D01*
X138041911Y-71485933D01*
X138038354Y-71474208D01*
X138036442Y-71464594D01*
X138035241Y-71452401D01*
X138035000Y-71447500D01*
X138035000Y-70835888D01*
X138035241Y-70830987D01*
X138036442Y-70818794D01*
X138038354Y-70809180D01*
X138041911Y-70797455D01*
X138045661Y-70788401D01*
X138051436Y-70777596D01*
X138056883Y-70769444D01*
X138064656Y-70759973D01*
X138067951Y-70756339D01*
X138131339Y-70692951D01*
X138134973Y-70689656D01*
X138144444Y-70681883D01*
X138152596Y-70676436D01*
X138163401Y-70670661D01*
X138172455Y-70666911D01*
X138184180Y-70663354D01*
X138193794Y-70661442D01*
X138205987Y-70660241D01*
X138210888Y-70660000D01*
X138272500Y-70660000D01*
X138277401Y-70660241D01*
G37*
G36*
X137952401Y-70335241D02*
G01*
X137964594Y-70336442D01*
X137974208Y-70338354D01*
X137985933Y-70341911D01*
X137994987Y-70345661D01*
X138005792Y-70351436D01*
X138013944Y-70356883D01*
X138023415Y-70364656D01*
X138030344Y-70371585D01*
X138038117Y-70381056D01*
X138043564Y-70389208D01*
X138049339Y-70400013D01*
X138053089Y-70409067D01*
X138056646Y-70420792D01*
X138058558Y-70430406D01*
X138059759Y-70442599D01*
X138060000Y-70447500D01*
X138060000Y-70509112D01*
X138059759Y-70514013D01*
X138058558Y-70526206D01*
X138056646Y-70535820D01*
X138053089Y-70547545D01*
X138049339Y-70556599D01*
X138043564Y-70567404D01*
X138038117Y-70575556D01*
X138030344Y-70585027D01*
X138027049Y-70588661D01*
X137963661Y-70652049D01*
X137960027Y-70655344D01*
X137950556Y-70663117D01*
X137942404Y-70668564D01*
X137931599Y-70674339D01*
X137922545Y-70678089D01*
X137910820Y-70681646D01*
X137901206Y-70683558D01*
X137889013Y-70684759D01*
X137884112Y-70685000D01*
X137272500Y-70685000D01*
X137267599Y-70684759D01*
X137255406Y-70683558D01*
X137245792Y-70681646D01*
X137234067Y-70678089D01*
X137225013Y-70674339D01*
X137214208Y-70668564D01*
X137206056Y-70663117D01*
X137196585Y-70655344D01*
X137189656Y-70648415D01*
X137181883Y-70638944D01*
X137176436Y-70630792D01*
X137170661Y-70619987D01*
X137166911Y-70610933D01*
X137163354Y-70599208D01*
X137161442Y-70589594D01*
X137160241Y-70577401D01*
X137160000Y-70572500D01*
X137160000Y-70447500D01*
X137160241Y-70442599D01*
X137161442Y-70430406D01*
X137163354Y-70420792D01*
X137166911Y-70409067D01*
X137170661Y-70400013D01*
X137176436Y-70389208D01*
X137181883Y-70381056D01*
X137189656Y-70371585D01*
X137196585Y-70364656D01*
X137206056Y-70356883D01*
X137214208Y-70351436D01*
X137225013Y-70345661D01*
X137234067Y-70341911D01*
X137245792Y-70338354D01*
X137255406Y-70336442D01*
X137267599Y-70335241D01*
X137272500Y-70335000D01*
X137947500Y-70335000D01*
X137952401Y-70335241D01*
G37*
G36*
G01*
X137160000Y-70147500D02*
X137160000Y-69972500D01*
G75*
G02*
X137247500Y-69885000I87500J0D01*
G01*
X137972500Y-69885000D01*
G75*
G02*
X138060000Y-69972500I0J-87500D01*
G01*
X138060000Y-70147500D01*
G75*
G02*
X137972500Y-70235000I-87500J0D01*
G01*
X137247500Y-70235000D01*
G75*
G02*
X137160000Y-70147500I0J87500D01*
G01*
G37*
G36*
G01*
X137160000Y-69697500D02*
X137160000Y-69522500D01*
G75*
G02*
X137247500Y-69435000I87500J0D01*
G01*
X137972500Y-69435000D01*
G75*
G02*
X138060000Y-69522500I0J-87500D01*
G01*
X138060000Y-69697500D01*
G75*
G02*
X137972500Y-69785000I-87500J0D01*
G01*
X137247500Y-69785000D01*
G75*
G02*
X137160000Y-69697500I0J87500D01*
G01*
G37*
G36*
G01*
X137160000Y-69247500D02*
X137160000Y-69072500D01*
G75*
G02*
X137247500Y-68985000I87500J0D01*
G01*
X137972500Y-68985000D01*
G75*
G02*
X138060000Y-69072500I0J-87500D01*
G01*
X138060000Y-69247500D01*
G75*
G02*
X137972500Y-69335000I-87500J0D01*
G01*
X137247500Y-69335000D01*
G75*
G02*
X137160000Y-69247500I0J87500D01*
G01*
G37*
G36*
G01*
X137160000Y-68797500D02*
X137160000Y-68622500D01*
G75*
G02*
X137247500Y-68535000I87500J0D01*
G01*
X137972500Y-68535000D01*
G75*
G02*
X138060000Y-68622500I0J-87500D01*
G01*
X138060000Y-68797500D01*
G75*
G02*
X137972500Y-68885000I-87500J0D01*
G01*
X137247500Y-68885000D01*
G75*
G02*
X137160000Y-68797500I0J87500D01*
G01*
G37*
G36*
G01*
X137160000Y-68347500D02*
X137160000Y-68172500D01*
G75*
G02*
X137247500Y-68085000I87500J0D01*
G01*
X137972500Y-68085000D01*
G75*
G02*
X138060000Y-68172500I0J-87500D01*
G01*
X138060000Y-68347500D01*
G75*
G02*
X137972500Y-68435000I-87500J0D01*
G01*
X137247500Y-68435000D01*
G75*
G02*
X137160000Y-68347500I0J87500D01*
G01*
G37*
G36*
X137889013Y-67635241D02*
G01*
X137901206Y-67636442D01*
X137910820Y-67638354D01*
X137922545Y-67641911D01*
X137931599Y-67645661D01*
X137942404Y-67651436D01*
X137950556Y-67656883D01*
X137960027Y-67664656D01*
X137963661Y-67667951D01*
X138027049Y-67731339D01*
X138030344Y-67734973D01*
X138038117Y-67744444D01*
X138043564Y-67752596D01*
X138049339Y-67763401D01*
X138053089Y-67772455D01*
X138056646Y-67784180D01*
X138058558Y-67793794D01*
X138059759Y-67805987D01*
X138060000Y-67810888D01*
X138060000Y-67872500D01*
X138059759Y-67877401D01*
X138058558Y-67889594D01*
X138056646Y-67899208D01*
X138053089Y-67910933D01*
X138049339Y-67919987D01*
X138043564Y-67930792D01*
X138038117Y-67938944D01*
X138030344Y-67948415D01*
X138023415Y-67955344D01*
X138013944Y-67963117D01*
X138005792Y-67968564D01*
X137994987Y-67974339D01*
X137985933Y-67978089D01*
X137974208Y-67981646D01*
X137964594Y-67983558D01*
X137952401Y-67984759D01*
X137947500Y-67985000D01*
X137272500Y-67985000D01*
X137267599Y-67984759D01*
X137255406Y-67983558D01*
X137245792Y-67981646D01*
X137234067Y-67978089D01*
X137225013Y-67974339D01*
X137214208Y-67968564D01*
X137206056Y-67963117D01*
X137196585Y-67955344D01*
X137189656Y-67948415D01*
X137181883Y-67938944D01*
X137176436Y-67930792D01*
X137170661Y-67919987D01*
X137166911Y-67910933D01*
X137163354Y-67899208D01*
X137161442Y-67889594D01*
X137160241Y-67877401D01*
X137160000Y-67872500D01*
X137160000Y-67747500D01*
X137160241Y-67742599D01*
X137161442Y-67730406D01*
X137163354Y-67720792D01*
X137166911Y-67709067D01*
X137170661Y-67700013D01*
X137176436Y-67689208D01*
X137181883Y-67681056D01*
X137189656Y-67671585D01*
X137196585Y-67664656D01*
X137206056Y-67656883D01*
X137214208Y-67651436D01*
X137225013Y-67645661D01*
X137234067Y-67641911D01*
X137245792Y-67638354D01*
X137255406Y-67636442D01*
X137267599Y-67635241D01*
X137272500Y-67635000D01*
X137884112Y-67635000D01*
X137889013Y-67635241D01*
G37*
%TD*%
%TO.C,IC4*%
G36*
G01*
X100780000Y-83170000D02*
X100780000Y-81590000D01*
G75*
G02*
X100905000Y-81465000I125000J0D01*
G01*
X101155000Y-81465000D01*
G75*
G02*
X101280000Y-81590000I0J-125000D01*
G01*
X101280000Y-83170000D01*
G75*
G02*
X101155000Y-83295000I-125000J0D01*
G01*
X100905000Y-83295000D01*
G75*
G02*
X100780000Y-83170000I0J125000D01*
G01*
G37*
G36*
G01*
X101330000Y-83070000D02*
X101330000Y-81920000D01*
G75*
G02*
X101555000Y-81695000I225000J0D01*
G01*
X102005000Y-81695000D01*
G75*
G02*
X102230000Y-81920000I0J-225000D01*
G01*
X102230000Y-83070000D01*
G75*
G02*
X102005000Y-83295000I-225000J0D01*
G01*
X101555000Y-83295000D01*
G75*
G02*
X101330000Y-83070000I0J225000D01*
G01*
G37*
G36*
G01*
X102130000Y-83745000D02*
X101630000Y-83745000D01*
G75*
G02*
X101530000Y-83645000I0J100000D01*
G01*
X101530000Y-83445000D01*
G75*
G02*
X101630000Y-83345000I100000J0D01*
G01*
X102130000Y-83345000D01*
G75*
G02*
X102230000Y-83445000I0J-100000D01*
G01*
X102230000Y-83645000D01*
G75*
G02*
X102130000Y-83745000I-100000J0D01*
G01*
G37*
G36*
G01*
X102130000Y-84195000D02*
X101630000Y-84195000D01*
G75*
G02*
X101530000Y-84095000I0J100000D01*
G01*
X101530000Y-83895000D01*
G75*
G02*
X101630000Y-83795000I100000J0D01*
G01*
X102130000Y-83795000D01*
G75*
G02*
X102230000Y-83895000I0J-100000D01*
G01*
X102230000Y-84095000D01*
G75*
G02*
X102130000Y-84195000I-100000J0D01*
G01*
G37*
G36*
G01*
X102130000Y-84645000D02*
X101630000Y-84645000D01*
G75*
G02*
X101530000Y-84545000I0J100000D01*
G01*
X101530000Y-84345000D01*
G75*
G02*
X101630000Y-84245000I100000J0D01*
G01*
X102130000Y-84245000D01*
G75*
G02*
X102230000Y-84345000I0J-100000D01*
G01*
X102230000Y-84545000D01*
G75*
G02*
X102130000Y-84645000I-100000J0D01*
G01*
G37*
G36*
G01*
X100430000Y-84645000D02*
X99930000Y-84645000D01*
G75*
G02*
X99830000Y-84545000I0J100000D01*
G01*
X99830000Y-84345000D01*
G75*
G02*
X99930000Y-84245000I100000J0D01*
G01*
X100430000Y-84245000D01*
G75*
G02*
X100530000Y-84345000I0J-100000D01*
G01*
X100530000Y-84545000D01*
G75*
G02*
X100430000Y-84645000I-100000J0D01*
G01*
G37*
G36*
G01*
X100430000Y-84195000D02*
X99930000Y-84195000D01*
G75*
G02*
X99830000Y-84095000I0J100000D01*
G01*
X99830000Y-83895000D01*
G75*
G02*
X99930000Y-83795000I100000J0D01*
G01*
X100430000Y-83795000D01*
G75*
G02*
X100530000Y-83895000I0J-100000D01*
G01*
X100530000Y-84095000D01*
G75*
G02*
X100430000Y-84195000I-100000J0D01*
G01*
G37*
G36*
G01*
X100430000Y-83745000D02*
X99930000Y-83745000D01*
G75*
G02*
X99830000Y-83645000I0J100000D01*
G01*
X99830000Y-83445000D01*
G75*
G02*
X99930000Y-83345000I100000J0D01*
G01*
X100430000Y-83345000D01*
G75*
G02*
X100530000Y-83445000I0J-100000D01*
G01*
X100530000Y-83645000D01*
G75*
G02*
X100430000Y-83745000I-100000J0D01*
G01*
G37*
G36*
G01*
X99830000Y-83070000D02*
X99830000Y-81920000D01*
G75*
G02*
X100055000Y-81695000I225000J0D01*
G01*
X100505000Y-81695000D01*
G75*
G02*
X100730000Y-81920000I0J-225000D01*
G01*
X100730000Y-83070000D01*
G75*
G02*
X100505000Y-83295000I-225000J0D01*
G01*
X100055000Y-83295000D01*
G75*
G02*
X99830000Y-83070000I0J225000D01*
G01*
G37*
%TD*%
D12*
%TO.C,H2*%
X166635825Y-44304175D03*
X165310000Y-43755000D03*
X163984175Y-44304175D03*
X163435000Y-45630000D03*
X163984175Y-46955825D03*
X165310000Y-47505000D03*
X166635825Y-46955825D03*
X167185000Y-45630000D03*
D13*
X165310000Y-45630000D03*
%TD*%
D12*
%TO.C,H1*%
X100950000Y-44240000D03*
X99624175Y-43690825D03*
X98298350Y-44240000D03*
X97749175Y-45565825D03*
X98298350Y-46891650D03*
X99624175Y-47440825D03*
X100950000Y-46891650D03*
X101499175Y-45565825D03*
D13*
X99624175Y-45565825D03*
%TD*%
%TO.C,IC2*%
G36*
G01*
X163225000Y-59202000D02*
X163225000Y-60502000D01*
G75*
G02*
X163087500Y-60639500I-137500J0D01*
G01*
X162812500Y-60639500D01*
G75*
G02*
X162675000Y-60502000I0J137500D01*
G01*
X162675000Y-59202000D01*
G75*
G02*
X162812500Y-59064500I137500J0D01*
G01*
X163087500Y-59064500D01*
G75*
G02*
X163225000Y-59202000I0J-137500D01*
G01*
G37*
G36*
G01*
X163875000Y-59202000D02*
X163875000Y-60502000D01*
G75*
G02*
X163737500Y-60639500I-137500J0D01*
G01*
X163462500Y-60639500D01*
G75*
G02*
X163325000Y-60502000I0J137500D01*
G01*
X163325000Y-59202000D01*
G75*
G02*
X163462500Y-59064500I137500J0D01*
G01*
X163737500Y-59064500D01*
G75*
G02*
X163875000Y-59202000I0J-137500D01*
G01*
G37*
G36*
G01*
X164525000Y-59202000D02*
X164525000Y-60502000D01*
G75*
G02*
X164387500Y-60639500I-137500J0D01*
G01*
X164112500Y-60639500D01*
G75*
G02*
X163975000Y-60502000I0J137500D01*
G01*
X163975000Y-59202000D01*
G75*
G02*
X164112500Y-59064500I137500J0D01*
G01*
X164387500Y-59064500D01*
G75*
G02*
X164525000Y-59202000I0J-137500D01*
G01*
G37*
G36*
G01*
X165175000Y-59202000D02*
X165175000Y-60502000D01*
G75*
G02*
X165037500Y-60639500I-137500J0D01*
G01*
X164762500Y-60639500D01*
G75*
G02*
X164625000Y-60502000I0J137500D01*
G01*
X164625000Y-59202000D01*
G75*
G02*
X164762500Y-59064500I137500J0D01*
G01*
X165037500Y-59064500D01*
G75*
G02*
X165175000Y-59202000I0J-137500D01*
G01*
G37*
G36*
G01*
X165825000Y-59202000D02*
X165825000Y-60502000D01*
G75*
G02*
X165687500Y-60639500I-137500J0D01*
G01*
X165412500Y-60639500D01*
G75*
G02*
X165275000Y-60502000I0J137500D01*
G01*
X165275000Y-59202000D01*
G75*
G02*
X165412500Y-59064500I137500J0D01*
G01*
X165687500Y-59064500D01*
G75*
G02*
X165825000Y-59202000I0J-137500D01*
G01*
G37*
G36*
G01*
X166475000Y-59202000D02*
X166475000Y-60502000D01*
G75*
G02*
X166337500Y-60639500I-137500J0D01*
G01*
X166062500Y-60639500D01*
G75*
G02*
X165925000Y-60502000I0J137500D01*
G01*
X165925000Y-59202000D01*
G75*
G02*
X166062500Y-59064500I137500J0D01*
G01*
X166337500Y-59064500D01*
G75*
G02*
X166475000Y-59202000I0J-137500D01*
G01*
G37*
G36*
G01*
X167125000Y-59202000D02*
X167125000Y-60502000D01*
G75*
G02*
X166987500Y-60639500I-137500J0D01*
G01*
X166712500Y-60639500D01*
G75*
G02*
X166575000Y-60502000I0J137500D01*
G01*
X166575000Y-59202000D01*
G75*
G02*
X166712500Y-59064500I137500J0D01*
G01*
X166987500Y-59064500D01*
G75*
G02*
X167125000Y-59202000I0J-137500D01*
G01*
G37*
G36*
G01*
X167125000Y-65078000D02*
X167125000Y-66378000D01*
G75*
G02*
X166987500Y-66515500I-137500J0D01*
G01*
X166712500Y-66515500D01*
G75*
G02*
X166575000Y-66378000I0J137500D01*
G01*
X166575000Y-65078000D01*
G75*
G02*
X166712500Y-64940500I137500J0D01*
G01*
X166987500Y-64940500D01*
G75*
G02*
X167125000Y-65078000I0J-137500D01*
G01*
G37*
G36*
G01*
X166475000Y-65078000D02*
X166475000Y-66378000D01*
G75*
G02*
X166337500Y-66515500I-137500J0D01*
G01*
X166062500Y-66515500D01*
G75*
G02*
X165925000Y-66378000I0J137500D01*
G01*
X165925000Y-65078000D01*
G75*
G02*
X166062500Y-64940500I137500J0D01*
G01*
X166337500Y-64940500D01*
G75*
G02*
X166475000Y-65078000I0J-137500D01*
G01*
G37*
G36*
G01*
X165825000Y-65078000D02*
X165825000Y-66378000D01*
G75*
G02*
X165687500Y-66515500I-137500J0D01*
G01*
X165412500Y-66515500D01*
G75*
G02*
X165275000Y-66378000I0J137500D01*
G01*
X165275000Y-65078000D01*
G75*
G02*
X165412500Y-64940500I137500J0D01*
G01*
X165687500Y-64940500D01*
G75*
G02*
X165825000Y-65078000I0J-137500D01*
G01*
G37*
G36*
G01*
X165175000Y-65078000D02*
X165175000Y-66378000D01*
G75*
G02*
X165037500Y-66515500I-137500J0D01*
G01*
X164762500Y-66515500D01*
G75*
G02*
X164625000Y-66378000I0J137500D01*
G01*
X164625000Y-65078000D01*
G75*
G02*
X164762500Y-64940500I137500J0D01*
G01*
X165037500Y-64940500D01*
G75*
G02*
X165175000Y-65078000I0J-137500D01*
G01*
G37*
G36*
G01*
X164525000Y-65078000D02*
X164525000Y-66378000D01*
G75*
G02*
X164387500Y-66515500I-137500J0D01*
G01*
X164112500Y-66515500D01*
G75*
G02*
X163975000Y-66378000I0J137500D01*
G01*
X163975000Y-65078000D01*
G75*
G02*
X164112500Y-64940500I137500J0D01*
G01*
X164387500Y-64940500D01*
G75*
G02*
X164525000Y-65078000I0J-137500D01*
G01*
G37*
G36*
G01*
X163875000Y-65078000D02*
X163875000Y-66378000D01*
G75*
G02*
X163737500Y-66515500I-137500J0D01*
G01*
X163462500Y-66515500D01*
G75*
G02*
X163325000Y-66378000I0J137500D01*
G01*
X163325000Y-65078000D01*
G75*
G02*
X163462500Y-64940500I137500J0D01*
G01*
X163737500Y-64940500D01*
G75*
G02*
X163875000Y-65078000I0J-137500D01*
G01*
G37*
G36*
G01*
X163225000Y-65078000D02*
X163225000Y-66378000D01*
G75*
G02*
X163087500Y-66515500I-137500J0D01*
G01*
X162812500Y-66515500D01*
G75*
G02*
X162675000Y-66378000I0J137500D01*
G01*
X162675000Y-65078000D01*
G75*
G02*
X162812500Y-64940500I137500J0D01*
G01*
X163087500Y-64940500D01*
G75*
G02*
X163225000Y-65078000I0J-137500D01*
G01*
G37*
%TD*%
D14*
%TO.C,TP13*%
X103044200Y-57267400D03*
%TD*%
%TO.C,TP12*%
X103044200Y-49952200D03*
%TD*%
D15*
%TO.C,Y1*%
X133755000Y-69770000D03*
X133755000Y-72070000D03*
X131855000Y-72070000D03*
X131855000Y-69770000D03*
%TD*%
D16*
%TO.C,J11*%
X150140000Y-86910000D03*
X152680000Y-86910000D03*
D17*
X155220000Y-86910000D03*
%TD*%
D16*
%TO.C,J10*%
X141280000Y-86910000D03*
X143820000Y-86910000D03*
D17*
X146360000Y-86910000D03*
%TD*%
D16*
%TO.C,J9*%
X132410000Y-86920000D03*
X134950000Y-86920000D03*
D17*
X137490000Y-86920000D03*
%TD*%
D16*
%TO.C,J8*%
X123540000Y-86910000D03*
X126080000Y-86910000D03*
D17*
X128620000Y-86910000D03*
%TD*%
D16*
%TO.C,J7*%
X114700000Y-86910000D03*
X117240000Y-86910000D03*
D17*
X119780000Y-86910000D03*
%TD*%
D14*
%TO.C,TP11*%
X95440000Y-68050000D03*
%TD*%
%TO.C,TP10*%
X96827200Y-78588000D03*
%TD*%
%TO.C,TP9*%
X99885000Y-57255000D03*
%TD*%
%TO.C,TP8*%
X123200000Y-62660000D03*
%TD*%
%TO.C,TP7*%
X126406000Y-52962000D03*
%TD*%
%TO.C,TP6*%
X88840000Y-73030000D03*
%TD*%
%TO.C,TP5*%
X128056000Y-59272000D03*
%TD*%
%TO.C,TP4*%
X145935000Y-52730000D03*
%TD*%
%TO.C,TP3*%
X149210000Y-56000000D03*
%TD*%
%TO.C,TP2*%
X149170000Y-52720000D03*
%TD*%
D18*
%TO.C,SW1*%
X126556000Y-45500000D03*
X133056000Y-50000000D03*
X133056000Y-45500000D03*
X126556000Y-50000000D03*
%TD*%
%TO.C,R12*%
G36*
G01*
X97352500Y-85181250D02*
X97352500Y-84618750D01*
G75*
G02*
X97596250Y-84375000I243750J0D01*
G01*
X98083750Y-84375000D01*
G75*
G02*
X98327500Y-84618750I0J-243750D01*
G01*
X98327500Y-85181250D01*
G75*
G02*
X98083750Y-85425000I-243750J0D01*
G01*
X97596250Y-85425000D01*
G75*
G02*
X97352500Y-85181250I0J243750D01*
G01*
G37*
G36*
G01*
X95777500Y-85181250D02*
X95777500Y-84618750D01*
G75*
G02*
X96021250Y-84375000I243750J0D01*
G01*
X96508750Y-84375000D01*
G75*
G02*
X96752500Y-84618750I0J-243750D01*
G01*
X96752500Y-85181250D01*
G75*
G02*
X96508750Y-85425000I-243750J0D01*
G01*
X96021250Y-85425000D01*
G75*
G02*
X95777500Y-85181250I0J243750D01*
G01*
G37*
%TD*%
%TO.C,R11*%
G36*
G01*
X97558750Y-82900000D02*
X98121250Y-82900000D01*
G75*
G02*
X98365000Y-83143750I0J-243750D01*
G01*
X98365000Y-83631250D01*
G75*
G02*
X98121250Y-83875000I-243750J0D01*
G01*
X97558750Y-83875000D01*
G75*
G02*
X97315000Y-83631250I0J243750D01*
G01*
X97315000Y-83143750D01*
G75*
G02*
X97558750Y-82900000I243750J0D01*
G01*
G37*
G36*
G01*
X97558750Y-81325000D02*
X98121250Y-81325000D01*
G75*
G02*
X98365000Y-81568750I0J-243750D01*
G01*
X98365000Y-82056250D01*
G75*
G02*
X98121250Y-82300000I-243750J0D01*
G01*
X97558750Y-82300000D01*
G75*
G02*
X97315000Y-82056250I0J243750D01*
G01*
X97315000Y-81568750D01*
G75*
G02*
X97558750Y-81325000I243750J0D01*
G01*
G37*
%TD*%
%TO.C,R10*%
G36*
G01*
X128524750Y-53289500D02*
X129087250Y-53289500D01*
G75*
G02*
X129331000Y-53533250I0J-243750D01*
G01*
X129331000Y-54020750D01*
G75*
G02*
X129087250Y-54264500I-243750J0D01*
G01*
X128524750Y-54264500D01*
G75*
G02*
X128281000Y-54020750I0J243750D01*
G01*
X128281000Y-53533250D01*
G75*
G02*
X128524750Y-53289500I243750J0D01*
G01*
G37*
G36*
G01*
X128524750Y-51714500D02*
X129087250Y-51714500D01*
G75*
G02*
X129331000Y-51958250I0J-243750D01*
G01*
X129331000Y-52445750D01*
G75*
G02*
X129087250Y-52689500I-243750J0D01*
G01*
X128524750Y-52689500D01*
G75*
G02*
X128281000Y-52445750I0J243750D01*
G01*
X128281000Y-51958250D01*
G75*
G02*
X128524750Y-51714500I243750J0D01*
G01*
G37*
%TD*%
%TO.C,R9*%
G36*
G01*
X102000950Y-53427300D02*
X102563450Y-53427300D01*
G75*
G02*
X102807200Y-53671050I0J-243750D01*
G01*
X102807200Y-54158550D01*
G75*
G02*
X102563450Y-54402300I-243750J0D01*
G01*
X102000950Y-54402300D01*
G75*
G02*
X101757200Y-54158550I0J243750D01*
G01*
X101757200Y-53671050D01*
G75*
G02*
X102000950Y-53427300I243750J0D01*
G01*
G37*
G36*
G01*
X102000950Y-51852300D02*
X102563450Y-51852300D01*
G75*
G02*
X102807200Y-52096050I0J-243750D01*
G01*
X102807200Y-52583550D01*
G75*
G02*
X102563450Y-52827300I-243750J0D01*
G01*
X102000950Y-52827300D01*
G75*
G02*
X101757200Y-52583550I0J243750D01*
G01*
X101757200Y-52096050D01*
G75*
G02*
X102000950Y-51852300I243750J0D01*
G01*
G37*
%TD*%
%TO.C,R8*%
G36*
G01*
X104138250Y-52827100D02*
X103575750Y-52827100D01*
G75*
G02*
X103332000Y-52583350I0J243750D01*
G01*
X103332000Y-52095850D01*
G75*
G02*
X103575750Y-51852100I243750J0D01*
G01*
X104138250Y-51852100D01*
G75*
G02*
X104382000Y-52095850I0J-243750D01*
G01*
X104382000Y-52583350D01*
G75*
G02*
X104138250Y-52827100I-243750J0D01*
G01*
G37*
G36*
G01*
X104138250Y-54402100D02*
X103575750Y-54402100D01*
G75*
G02*
X103332000Y-54158350I0J243750D01*
G01*
X103332000Y-53670850D01*
G75*
G02*
X103575750Y-53427100I243750J0D01*
G01*
X104138250Y-53427100D01*
G75*
G02*
X104382000Y-53670850I0J-243750D01*
G01*
X104382000Y-54158350D01*
G75*
G02*
X104138250Y-54402100I-243750J0D01*
G01*
G37*
%TD*%
%TO.C,R7*%
G36*
G01*
X141697500Y-58931250D02*
X141697500Y-58368750D01*
G75*
G02*
X141941250Y-58125000I243750J0D01*
G01*
X142428750Y-58125000D01*
G75*
G02*
X142672500Y-58368750I0J-243750D01*
G01*
X142672500Y-58931250D01*
G75*
G02*
X142428750Y-59175000I-243750J0D01*
G01*
X141941250Y-59175000D01*
G75*
G02*
X141697500Y-58931250I0J243750D01*
G01*
G37*
G36*
G01*
X140122500Y-58931250D02*
X140122500Y-58368750D01*
G75*
G02*
X140366250Y-58125000I243750J0D01*
G01*
X140853750Y-58125000D01*
G75*
G02*
X141097500Y-58368750I0J-243750D01*
G01*
X141097500Y-58931250D01*
G75*
G02*
X140853750Y-59175000I-243750J0D01*
G01*
X140366250Y-59175000D01*
G75*
G02*
X140122500Y-58931250I0J243750D01*
G01*
G37*
%TD*%
%TO.C,R6*%
G36*
G01*
X141682500Y-60581250D02*
X141682500Y-60018750D01*
G75*
G02*
X141926250Y-59775000I243750J0D01*
G01*
X142413750Y-59775000D01*
G75*
G02*
X142657500Y-60018750I0J-243750D01*
G01*
X142657500Y-60581250D01*
G75*
G02*
X142413750Y-60825000I-243750J0D01*
G01*
X141926250Y-60825000D01*
G75*
G02*
X141682500Y-60581250I0J243750D01*
G01*
G37*
G36*
G01*
X140107500Y-60581250D02*
X140107500Y-60018750D01*
G75*
G02*
X140351250Y-59775000I243750J0D01*
G01*
X140838750Y-59775000D01*
G75*
G02*
X141082500Y-60018750I0J-243750D01*
G01*
X141082500Y-60581250D01*
G75*
G02*
X140838750Y-60825000I-243750J0D01*
G01*
X140351250Y-60825000D01*
G75*
G02*
X140107500Y-60581250I0J243750D01*
G01*
G37*
%TD*%
%TO.C,R5*%
G36*
G01*
X132782500Y-52391250D02*
X132782500Y-51828750D01*
G75*
G02*
X133026250Y-51585000I243750J0D01*
G01*
X133513750Y-51585000D01*
G75*
G02*
X133757500Y-51828750I0J-243750D01*
G01*
X133757500Y-52391250D01*
G75*
G02*
X133513750Y-52635000I-243750J0D01*
G01*
X133026250Y-52635000D01*
G75*
G02*
X132782500Y-52391250I0J243750D01*
G01*
G37*
G36*
G01*
X131207500Y-52391250D02*
X131207500Y-51828750D01*
G75*
G02*
X131451250Y-51585000I243750J0D01*
G01*
X131938750Y-51585000D01*
G75*
G02*
X132182500Y-51828750I0J-243750D01*
G01*
X132182500Y-52391250D01*
G75*
G02*
X131938750Y-52635000I-243750J0D01*
G01*
X131451250Y-52635000D01*
G75*
G02*
X131207500Y-52391250I0J243750D01*
G01*
G37*
%TD*%
%TO.C,R4*%
G36*
G01*
X131986250Y-55600000D02*
X131423750Y-55600000D01*
G75*
G02*
X131180000Y-55356250I0J243750D01*
G01*
X131180000Y-54868750D01*
G75*
G02*
X131423750Y-54625000I243750J0D01*
G01*
X131986250Y-54625000D01*
G75*
G02*
X132230000Y-54868750I0J-243750D01*
G01*
X132230000Y-55356250D01*
G75*
G02*
X131986250Y-55600000I-243750J0D01*
G01*
G37*
G36*
G01*
X131986250Y-57175000D02*
X131423750Y-57175000D01*
G75*
G02*
X131180000Y-56931250I0J243750D01*
G01*
X131180000Y-56443750D01*
G75*
G02*
X131423750Y-56200000I243750J0D01*
G01*
X131986250Y-56200000D01*
G75*
G02*
X132230000Y-56443750I0J-243750D01*
G01*
X132230000Y-56931250D01*
G75*
G02*
X131986250Y-57175000I-243750J0D01*
G01*
G37*
%TD*%
%TO.C,R3*%
G36*
G01*
X141110000Y-56758750D02*
X141110000Y-57321250D01*
G75*
G02*
X140866250Y-57565000I-243750J0D01*
G01*
X140378750Y-57565000D01*
G75*
G02*
X140135000Y-57321250I0J243750D01*
G01*
X140135000Y-56758750D01*
G75*
G02*
X140378750Y-56515000I243750J0D01*
G01*
X140866250Y-56515000D01*
G75*
G02*
X141110000Y-56758750I0J-243750D01*
G01*
G37*
G36*
G01*
X142685000Y-56758750D02*
X142685000Y-57321250D01*
G75*
G02*
X142441250Y-57565000I-243750J0D01*
G01*
X141953750Y-57565000D01*
G75*
G02*
X141710000Y-57321250I0J243750D01*
G01*
X141710000Y-56758750D01*
G75*
G02*
X141953750Y-56515000I243750J0D01*
G01*
X142441250Y-56515000D01*
G75*
G02*
X142685000Y-56758750I0J-243750D01*
G01*
G37*
%TD*%
%TO.C,R2*%
G36*
G01*
X132902500Y-53378750D02*
X132902500Y-53941250D01*
G75*
G02*
X132658750Y-54185000I-243750J0D01*
G01*
X132171250Y-54185000D01*
G75*
G02*
X131927500Y-53941250I0J243750D01*
G01*
X131927500Y-53378750D01*
G75*
G02*
X132171250Y-53135000I243750J0D01*
G01*
X132658750Y-53135000D01*
G75*
G02*
X132902500Y-53378750I0J-243750D01*
G01*
G37*
G36*
G01*
X134477500Y-53378750D02*
X134477500Y-53941250D01*
G75*
G02*
X134233750Y-54185000I-243750J0D01*
G01*
X133746250Y-54185000D01*
G75*
G02*
X133502500Y-53941250I0J243750D01*
G01*
X133502500Y-53378750D01*
G75*
G02*
X133746250Y-53135000I243750J0D01*
G01*
X134233750Y-53135000D01*
G75*
G02*
X134477500Y-53378750I0J-243750D01*
G01*
G37*
%TD*%
%TO.C,R1*%
G36*
G01*
X121561250Y-75140000D02*
X120998750Y-75140000D01*
G75*
G02*
X120755000Y-74896250I0J243750D01*
G01*
X120755000Y-74408750D01*
G75*
G02*
X120998750Y-74165000I243750J0D01*
G01*
X121561250Y-74165000D01*
G75*
G02*
X121805000Y-74408750I0J-243750D01*
G01*
X121805000Y-74896250D01*
G75*
G02*
X121561250Y-75140000I-243750J0D01*
G01*
G37*
G36*
G01*
X121561250Y-76715000D02*
X120998750Y-76715000D01*
G75*
G02*
X120755000Y-76471250I0J243750D01*
G01*
X120755000Y-75983750D01*
G75*
G02*
X120998750Y-75740000I243750J0D01*
G01*
X121561250Y-75740000D01*
G75*
G02*
X121805000Y-75983750I0J-243750D01*
G01*
X121805000Y-76471250D01*
G75*
G02*
X121561250Y-76715000I-243750J0D01*
G01*
G37*
%TD*%
%TO.C,L1*%
G36*
G01*
X105252500Y-83681250D02*
X105252500Y-83118750D01*
G75*
G02*
X105496250Y-82875000I243750J0D01*
G01*
X105983750Y-82875000D01*
G75*
G02*
X106227500Y-83118750I0J-243750D01*
G01*
X106227500Y-83681250D01*
G75*
G02*
X105983750Y-83925000I-243750J0D01*
G01*
X105496250Y-83925000D01*
G75*
G02*
X105252500Y-83681250I0J243750D01*
G01*
G37*
G36*
G01*
X103677500Y-83681250D02*
X103677500Y-83118750D01*
G75*
G02*
X103921250Y-82875000I243750J0D01*
G01*
X104408750Y-82875000D01*
G75*
G02*
X104652500Y-83118750I0J-243750D01*
G01*
X104652500Y-83681250D01*
G75*
G02*
X104408750Y-83925000I-243750J0D01*
G01*
X103921250Y-83925000D01*
G75*
G02*
X103677500Y-83681250I0J243750D01*
G01*
G37*
%TD*%
D19*
%TO.C,K1*%
X113540000Y-77770000D03*
X113540000Y-75230000D03*
X119140000Y-75230000D03*
X119140000Y-77770000D03*
%TD*%
D20*
%TO.C,JP5*%
X150150000Y-83620000D03*
D11*
G36*
X148843889Y-84419398D02*
G01*
X148825466Y-84419398D01*
X148820565Y-84419157D01*
X148771734Y-84414347D01*
X148766881Y-84413627D01*
X148718756Y-84404055D01*
X148713995Y-84402863D01*
X148667040Y-84388619D01*
X148662421Y-84386966D01*
X148617088Y-84368189D01*
X148612651Y-84366091D01*
X148569378Y-84342960D01*
X148565171Y-84340438D01*
X148524372Y-84313178D01*
X148520430Y-84310254D01*
X148482501Y-84279126D01*
X148478866Y-84275831D01*
X148444169Y-84241134D01*
X148440874Y-84237499D01*
X148409746Y-84199570D01*
X148406822Y-84195628D01*
X148379562Y-84154829D01*
X148377040Y-84150622D01*
X148353909Y-84107349D01*
X148351811Y-84102912D01*
X148333034Y-84057579D01*
X148331381Y-84052960D01*
X148317137Y-84006005D01*
X148315945Y-84001244D01*
X148306373Y-83953119D01*
X148305653Y-83948266D01*
X148300843Y-83899435D01*
X148300602Y-83894534D01*
X148300602Y-83876111D01*
X148300000Y-83870000D01*
X148300000Y-83370000D01*
X148300602Y-83363889D01*
X148300602Y-83345466D01*
X148300843Y-83340565D01*
X148305653Y-83291734D01*
X148306373Y-83286881D01*
X148315945Y-83238756D01*
X148317137Y-83233995D01*
X148331381Y-83187040D01*
X148333034Y-83182421D01*
X148351811Y-83137088D01*
X148353909Y-83132651D01*
X148377040Y-83089378D01*
X148379562Y-83085171D01*
X148406822Y-83044372D01*
X148409746Y-83040430D01*
X148440874Y-83002501D01*
X148444169Y-82998866D01*
X148478866Y-82964169D01*
X148482501Y-82960874D01*
X148520430Y-82929746D01*
X148524372Y-82926822D01*
X148565171Y-82899562D01*
X148569378Y-82897040D01*
X148612651Y-82873909D01*
X148617088Y-82871811D01*
X148662421Y-82853034D01*
X148667040Y-82851381D01*
X148713995Y-82837137D01*
X148718756Y-82835945D01*
X148766881Y-82826373D01*
X148771734Y-82825653D01*
X148820565Y-82820843D01*
X148825466Y-82820602D01*
X148843889Y-82820602D01*
X148850000Y-82820000D01*
X149400000Y-82820000D01*
X149409755Y-82820961D01*
X149419134Y-82823806D01*
X149427779Y-82828427D01*
X149435355Y-82834645D01*
X149441573Y-82842221D01*
X149446194Y-82850866D01*
X149449039Y-82860245D01*
X149450000Y-82870000D01*
X149450000Y-84370000D01*
X149449039Y-84379755D01*
X149446194Y-84389134D01*
X149441573Y-84397779D01*
X149435355Y-84405355D01*
X149427779Y-84411573D01*
X149419134Y-84416194D01*
X149409755Y-84419039D01*
X149400000Y-84420000D01*
X148850000Y-84420000D01*
X148843889Y-84419398D01*
G37*
G36*
X150890245Y-84419039D02*
G01*
X150880866Y-84416194D01*
X150872221Y-84411573D01*
X150864645Y-84405355D01*
X150858427Y-84397779D01*
X150853806Y-84389134D01*
X150850961Y-84379755D01*
X150850000Y-84370000D01*
X150850000Y-82870000D01*
X150850961Y-82860245D01*
X150853806Y-82850866D01*
X150858427Y-82842221D01*
X150864645Y-82834645D01*
X150872221Y-82828427D01*
X150880866Y-82823806D01*
X150890245Y-82820961D01*
X150900000Y-82820000D01*
X151450000Y-82820000D01*
X151456111Y-82820602D01*
X151474534Y-82820602D01*
X151479435Y-82820843D01*
X151528266Y-82825653D01*
X151533119Y-82826373D01*
X151581244Y-82835945D01*
X151586005Y-82837137D01*
X151632960Y-82851381D01*
X151637579Y-82853034D01*
X151682912Y-82871811D01*
X151687349Y-82873909D01*
X151730622Y-82897040D01*
X151734829Y-82899562D01*
X151775628Y-82926822D01*
X151779570Y-82929746D01*
X151817499Y-82960874D01*
X151821134Y-82964169D01*
X151855831Y-82998866D01*
X151859126Y-83002501D01*
X151890254Y-83040430D01*
X151893178Y-83044372D01*
X151920438Y-83085171D01*
X151922960Y-83089378D01*
X151946091Y-83132651D01*
X151948189Y-83137088D01*
X151966966Y-83182421D01*
X151968619Y-83187040D01*
X151982863Y-83233995D01*
X151984055Y-83238756D01*
X151993627Y-83286881D01*
X151994347Y-83291734D01*
X151999157Y-83340565D01*
X151999398Y-83345466D01*
X151999398Y-83363889D01*
X152000000Y-83370000D01*
X152000000Y-83870000D01*
X151999398Y-83876111D01*
X151999398Y-83894534D01*
X151999157Y-83899435D01*
X151994347Y-83948266D01*
X151993627Y-83953119D01*
X151984055Y-84001244D01*
X151982863Y-84006005D01*
X151968619Y-84052960D01*
X151966966Y-84057579D01*
X151948189Y-84102912D01*
X151946091Y-84107349D01*
X151922960Y-84150622D01*
X151920438Y-84154829D01*
X151893178Y-84195628D01*
X151890254Y-84199570D01*
X151859126Y-84237499D01*
X151855831Y-84241134D01*
X151821134Y-84275831D01*
X151817499Y-84279126D01*
X151779570Y-84310254D01*
X151775628Y-84313178D01*
X151734829Y-84340438D01*
X151730622Y-84342960D01*
X151687349Y-84366091D01*
X151682912Y-84368189D01*
X151637579Y-84386966D01*
X151632960Y-84388619D01*
X151586005Y-84402863D01*
X151581244Y-84404055D01*
X151533119Y-84413627D01*
X151528266Y-84414347D01*
X151479435Y-84419157D01*
X151474534Y-84419398D01*
X151456111Y-84419398D01*
X151450000Y-84420000D01*
X150900000Y-84420000D01*
X150890245Y-84419039D01*
G37*
%TD*%
D20*
%TO.C,JP4*%
X141280000Y-83640000D03*
D11*
G36*
X139973889Y-84439398D02*
G01*
X139955466Y-84439398D01*
X139950565Y-84439157D01*
X139901734Y-84434347D01*
X139896881Y-84433627D01*
X139848756Y-84424055D01*
X139843995Y-84422863D01*
X139797040Y-84408619D01*
X139792421Y-84406966D01*
X139747088Y-84388189D01*
X139742651Y-84386091D01*
X139699378Y-84362960D01*
X139695171Y-84360438D01*
X139654372Y-84333178D01*
X139650430Y-84330254D01*
X139612501Y-84299126D01*
X139608866Y-84295831D01*
X139574169Y-84261134D01*
X139570874Y-84257499D01*
X139539746Y-84219570D01*
X139536822Y-84215628D01*
X139509562Y-84174829D01*
X139507040Y-84170622D01*
X139483909Y-84127349D01*
X139481811Y-84122912D01*
X139463034Y-84077579D01*
X139461381Y-84072960D01*
X139447137Y-84026005D01*
X139445945Y-84021244D01*
X139436373Y-83973119D01*
X139435653Y-83968266D01*
X139430843Y-83919435D01*
X139430602Y-83914534D01*
X139430602Y-83896111D01*
X139430000Y-83890000D01*
X139430000Y-83390000D01*
X139430602Y-83383889D01*
X139430602Y-83365466D01*
X139430843Y-83360565D01*
X139435653Y-83311734D01*
X139436373Y-83306881D01*
X139445945Y-83258756D01*
X139447137Y-83253995D01*
X139461381Y-83207040D01*
X139463034Y-83202421D01*
X139481811Y-83157088D01*
X139483909Y-83152651D01*
X139507040Y-83109378D01*
X139509562Y-83105171D01*
X139536822Y-83064372D01*
X139539746Y-83060430D01*
X139570874Y-83022501D01*
X139574169Y-83018866D01*
X139608866Y-82984169D01*
X139612501Y-82980874D01*
X139650430Y-82949746D01*
X139654372Y-82946822D01*
X139695171Y-82919562D01*
X139699378Y-82917040D01*
X139742651Y-82893909D01*
X139747088Y-82891811D01*
X139792421Y-82873034D01*
X139797040Y-82871381D01*
X139843995Y-82857137D01*
X139848756Y-82855945D01*
X139896881Y-82846373D01*
X139901734Y-82845653D01*
X139950565Y-82840843D01*
X139955466Y-82840602D01*
X139973889Y-82840602D01*
X139980000Y-82840000D01*
X140530000Y-82840000D01*
X140539755Y-82840961D01*
X140549134Y-82843806D01*
X140557779Y-82848427D01*
X140565355Y-82854645D01*
X140571573Y-82862221D01*
X140576194Y-82870866D01*
X140579039Y-82880245D01*
X140580000Y-82890000D01*
X140580000Y-84390000D01*
X140579039Y-84399755D01*
X140576194Y-84409134D01*
X140571573Y-84417779D01*
X140565355Y-84425355D01*
X140557779Y-84431573D01*
X140549134Y-84436194D01*
X140539755Y-84439039D01*
X140530000Y-84440000D01*
X139980000Y-84440000D01*
X139973889Y-84439398D01*
G37*
G36*
X142020245Y-84439039D02*
G01*
X142010866Y-84436194D01*
X142002221Y-84431573D01*
X141994645Y-84425355D01*
X141988427Y-84417779D01*
X141983806Y-84409134D01*
X141980961Y-84399755D01*
X141980000Y-84390000D01*
X141980000Y-82890000D01*
X141980961Y-82880245D01*
X141983806Y-82870866D01*
X141988427Y-82862221D01*
X141994645Y-82854645D01*
X142002221Y-82848427D01*
X142010866Y-82843806D01*
X142020245Y-82840961D01*
X142030000Y-82840000D01*
X142580000Y-82840000D01*
X142586111Y-82840602D01*
X142604534Y-82840602D01*
X142609435Y-82840843D01*
X142658266Y-82845653D01*
X142663119Y-82846373D01*
X142711244Y-82855945D01*
X142716005Y-82857137D01*
X142762960Y-82871381D01*
X142767579Y-82873034D01*
X142812912Y-82891811D01*
X142817349Y-82893909D01*
X142860622Y-82917040D01*
X142864829Y-82919562D01*
X142905628Y-82946822D01*
X142909570Y-82949746D01*
X142947499Y-82980874D01*
X142951134Y-82984169D01*
X142985831Y-83018866D01*
X142989126Y-83022501D01*
X143020254Y-83060430D01*
X143023178Y-83064372D01*
X143050438Y-83105171D01*
X143052960Y-83109378D01*
X143076091Y-83152651D01*
X143078189Y-83157088D01*
X143096966Y-83202421D01*
X143098619Y-83207040D01*
X143112863Y-83253995D01*
X143114055Y-83258756D01*
X143123627Y-83306881D01*
X143124347Y-83311734D01*
X143129157Y-83360565D01*
X143129398Y-83365466D01*
X143129398Y-83383889D01*
X143130000Y-83390000D01*
X143130000Y-83890000D01*
X143129398Y-83896111D01*
X143129398Y-83914534D01*
X143129157Y-83919435D01*
X143124347Y-83968266D01*
X143123627Y-83973119D01*
X143114055Y-84021244D01*
X143112863Y-84026005D01*
X143098619Y-84072960D01*
X143096966Y-84077579D01*
X143078189Y-84122912D01*
X143076091Y-84127349D01*
X143052960Y-84170622D01*
X143050438Y-84174829D01*
X143023178Y-84215628D01*
X143020254Y-84219570D01*
X142989126Y-84257499D01*
X142985831Y-84261134D01*
X142951134Y-84295831D01*
X142947499Y-84299126D01*
X142909570Y-84330254D01*
X142905628Y-84333178D01*
X142864829Y-84360438D01*
X142860622Y-84362960D01*
X142817349Y-84386091D01*
X142812912Y-84388189D01*
X142767579Y-84406966D01*
X142762960Y-84408619D01*
X142716005Y-84422863D01*
X142711244Y-84424055D01*
X142663119Y-84433627D01*
X142658266Y-84434347D01*
X142609435Y-84439157D01*
X142604534Y-84439398D01*
X142586111Y-84439398D01*
X142580000Y-84440000D01*
X142030000Y-84440000D01*
X142020245Y-84439039D01*
G37*
%TD*%
D20*
%TO.C,JP3*%
X132410000Y-83650000D03*
D11*
G36*
X131103889Y-84449398D02*
G01*
X131085466Y-84449398D01*
X131080565Y-84449157D01*
X131031734Y-84444347D01*
X131026881Y-84443627D01*
X130978756Y-84434055D01*
X130973995Y-84432863D01*
X130927040Y-84418619D01*
X130922421Y-84416966D01*
X130877088Y-84398189D01*
X130872651Y-84396091D01*
X130829378Y-84372960D01*
X130825171Y-84370438D01*
X130784372Y-84343178D01*
X130780430Y-84340254D01*
X130742501Y-84309126D01*
X130738866Y-84305831D01*
X130704169Y-84271134D01*
X130700874Y-84267499D01*
X130669746Y-84229570D01*
X130666822Y-84225628D01*
X130639562Y-84184829D01*
X130637040Y-84180622D01*
X130613909Y-84137349D01*
X130611811Y-84132912D01*
X130593034Y-84087579D01*
X130591381Y-84082960D01*
X130577137Y-84036005D01*
X130575945Y-84031244D01*
X130566373Y-83983119D01*
X130565653Y-83978266D01*
X130560843Y-83929435D01*
X130560602Y-83924534D01*
X130560602Y-83906111D01*
X130560000Y-83900000D01*
X130560000Y-83400000D01*
X130560602Y-83393889D01*
X130560602Y-83375466D01*
X130560843Y-83370565D01*
X130565653Y-83321734D01*
X130566373Y-83316881D01*
X130575945Y-83268756D01*
X130577137Y-83263995D01*
X130591381Y-83217040D01*
X130593034Y-83212421D01*
X130611811Y-83167088D01*
X130613909Y-83162651D01*
X130637040Y-83119378D01*
X130639562Y-83115171D01*
X130666822Y-83074372D01*
X130669746Y-83070430D01*
X130700874Y-83032501D01*
X130704169Y-83028866D01*
X130738866Y-82994169D01*
X130742501Y-82990874D01*
X130780430Y-82959746D01*
X130784372Y-82956822D01*
X130825171Y-82929562D01*
X130829378Y-82927040D01*
X130872651Y-82903909D01*
X130877088Y-82901811D01*
X130922421Y-82883034D01*
X130927040Y-82881381D01*
X130973995Y-82867137D01*
X130978756Y-82865945D01*
X131026881Y-82856373D01*
X131031734Y-82855653D01*
X131080565Y-82850843D01*
X131085466Y-82850602D01*
X131103889Y-82850602D01*
X131110000Y-82850000D01*
X131660000Y-82850000D01*
X131669755Y-82850961D01*
X131679134Y-82853806D01*
X131687779Y-82858427D01*
X131695355Y-82864645D01*
X131701573Y-82872221D01*
X131706194Y-82880866D01*
X131709039Y-82890245D01*
X131710000Y-82900000D01*
X131710000Y-84400000D01*
X131709039Y-84409755D01*
X131706194Y-84419134D01*
X131701573Y-84427779D01*
X131695355Y-84435355D01*
X131687779Y-84441573D01*
X131679134Y-84446194D01*
X131669755Y-84449039D01*
X131660000Y-84450000D01*
X131110000Y-84450000D01*
X131103889Y-84449398D01*
G37*
G36*
X133150245Y-84449039D02*
G01*
X133140866Y-84446194D01*
X133132221Y-84441573D01*
X133124645Y-84435355D01*
X133118427Y-84427779D01*
X133113806Y-84419134D01*
X133110961Y-84409755D01*
X133110000Y-84400000D01*
X133110000Y-82900000D01*
X133110961Y-82890245D01*
X133113806Y-82880866D01*
X133118427Y-82872221D01*
X133124645Y-82864645D01*
X133132221Y-82858427D01*
X133140866Y-82853806D01*
X133150245Y-82850961D01*
X133160000Y-82850000D01*
X133710000Y-82850000D01*
X133716111Y-82850602D01*
X133734534Y-82850602D01*
X133739435Y-82850843D01*
X133788266Y-82855653D01*
X133793119Y-82856373D01*
X133841244Y-82865945D01*
X133846005Y-82867137D01*
X133892960Y-82881381D01*
X133897579Y-82883034D01*
X133942912Y-82901811D01*
X133947349Y-82903909D01*
X133990622Y-82927040D01*
X133994829Y-82929562D01*
X134035628Y-82956822D01*
X134039570Y-82959746D01*
X134077499Y-82990874D01*
X134081134Y-82994169D01*
X134115831Y-83028866D01*
X134119126Y-83032501D01*
X134150254Y-83070430D01*
X134153178Y-83074372D01*
X134180438Y-83115171D01*
X134182960Y-83119378D01*
X134206091Y-83162651D01*
X134208189Y-83167088D01*
X134226966Y-83212421D01*
X134228619Y-83217040D01*
X134242863Y-83263995D01*
X134244055Y-83268756D01*
X134253627Y-83316881D01*
X134254347Y-83321734D01*
X134259157Y-83370565D01*
X134259398Y-83375466D01*
X134259398Y-83393889D01*
X134260000Y-83400000D01*
X134260000Y-83900000D01*
X134259398Y-83906111D01*
X134259398Y-83924534D01*
X134259157Y-83929435D01*
X134254347Y-83978266D01*
X134253627Y-83983119D01*
X134244055Y-84031244D01*
X134242863Y-84036005D01*
X134228619Y-84082960D01*
X134226966Y-84087579D01*
X134208189Y-84132912D01*
X134206091Y-84137349D01*
X134182960Y-84180622D01*
X134180438Y-84184829D01*
X134153178Y-84225628D01*
X134150254Y-84229570D01*
X134119126Y-84267499D01*
X134115831Y-84271134D01*
X134081134Y-84305831D01*
X134077499Y-84309126D01*
X134039570Y-84340254D01*
X134035628Y-84343178D01*
X133994829Y-84370438D01*
X133990622Y-84372960D01*
X133947349Y-84396091D01*
X133942912Y-84398189D01*
X133897579Y-84416966D01*
X133892960Y-84418619D01*
X133846005Y-84432863D01*
X133841244Y-84434055D01*
X133793119Y-84443627D01*
X133788266Y-84444347D01*
X133739435Y-84449157D01*
X133734534Y-84449398D01*
X133716111Y-84449398D01*
X133710000Y-84450000D01*
X133160000Y-84450000D01*
X133150245Y-84449039D01*
G37*
%TD*%
D20*
%TO.C,JP2*%
X123560000Y-83650000D03*
D11*
G36*
X122253889Y-84449398D02*
G01*
X122235466Y-84449398D01*
X122230565Y-84449157D01*
X122181734Y-84444347D01*
X122176881Y-84443627D01*
X122128756Y-84434055D01*
X122123995Y-84432863D01*
X122077040Y-84418619D01*
X122072421Y-84416966D01*
X122027088Y-84398189D01*
X122022651Y-84396091D01*
X121979378Y-84372960D01*
X121975171Y-84370438D01*
X121934372Y-84343178D01*
X121930430Y-84340254D01*
X121892501Y-84309126D01*
X121888866Y-84305831D01*
X121854169Y-84271134D01*
X121850874Y-84267499D01*
X121819746Y-84229570D01*
X121816822Y-84225628D01*
X121789562Y-84184829D01*
X121787040Y-84180622D01*
X121763909Y-84137349D01*
X121761811Y-84132912D01*
X121743034Y-84087579D01*
X121741381Y-84082960D01*
X121727137Y-84036005D01*
X121725945Y-84031244D01*
X121716373Y-83983119D01*
X121715653Y-83978266D01*
X121710843Y-83929435D01*
X121710602Y-83924534D01*
X121710602Y-83906111D01*
X121710000Y-83900000D01*
X121710000Y-83400000D01*
X121710602Y-83393889D01*
X121710602Y-83375466D01*
X121710843Y-83370565D01*
X121715653Y-83321734D01*
X121716373Y-83316881D01*
X121725945Y-83268756D01*
X121727137Y-83263995D01*
X121741381Y-83217040D01*
X121743034Y-83212421D01*
X121761811Y-83167088D01*
X121763909Y-83162651D01*
X121787040Y-83119378D01*
X121789562Y-83115171D01*
X121816822Y-83074372D01*
X121819746Y-83070430D01*
X121850874Y-83032501D01*
X121854169Y-83028866D01*
X121888866Y-82994169D01*
X121892501Y-82990874D01*
X121930430Y-82959746D01*
X121934372Y-82956822D01*
X121975171Y-82929562D01*
X121979378Y-82927040D01*
X122022651Y-82903909D01*
X122027088Y-82901811D01*
X122072421Y-82883034D01*
X122077040Y-82881381D01*
X122123995Y-82867137D01*
X122128756Y-82865945D01*
X122176881Y-82856373D01*
X122181734Y-82855653D01*
X122230565Y-82850843D01*
X122235466Y-82850602D01*
X122253889Y-82850602D01*
X122260000Y-82850000D01*
X122810000Y-82850000D01*
X122819755Y-82850961D01*
X122829134Y-82853806D01*
X122837779Y-82858427D01*
X122845355Y-82864645D01*
X122851573Y-82872221D01*
X122856194Y-82880866D01*
X122859039Y-82890245D01*
X122860000Y-82900000D01*
X122860000Y-84400000D01*
X122859039Y-84409755D01*
X122856194Y-84419134D01*
X122851573Y-84427779D01*
X122845355Y-84435355D01*
X122837779Y-84441573D01*
X122829134Y-84446194D01*
X122819755Y-84449039D01*
X122810000Y-84450000D01*
X122260000Y-84450000D01*
X122253889Y-84449398D01*
G37*
G36*
X124300245Y-84449039D02*
G01*
X124290866Y-84446194D01*
X124282221Y-84441573D01*
X124274645Y-84435355D01*
X124268427Y-84427779D01*
X124263806Y-84419134D01*
X124260961Y-84409755D01*
X124260000Y-84400000D01*
X124260000Y-82900000D01*
X124260961Y-82890245D01*
X124263806Y-82880866D01*
X124268427Y-82872221D01*
X124274645Y-82864645D01*
X124282221Y-82858427D01*
X124290866Y-82853806D01*
X124300245Y-82850961D01*
X124310000Y-82850000D01*
X124860000Y-82850000D01*
X124866111Y-82850602D01*
X124884534Y-82850602D01*
X124889435Y-82850843D01*
X124938266Y-82855653D01*
X124943119Y-82856373D01*
X124991244Y-82865945D01*
X124996005Y-82867137D01*
X125042960Y-82881381D01*
X125047579Y-82883034D01*
X125092912Y-82901811D01*
X125097349Y-82903909D01*
X125140622Y-82927040D01*
X125144829Y-82929562D01*
X125185628Y-82956822D01*
X125189570Y-82959746D01*
X125227499Y-82990874D01*
X125231134Y-82994169D01*
X125265831Y-83028866D01*
X125269126Y-83032501D01*
X125300254Y-83070430D01*
X125303178Y-83074372D01*
X125330438Y-83115171D01*
X125332960Y-83119378D01*
X125356091Y-83162651D01*
X125358189Y-83167088D01*
X125376966Y-83212421D01*
X125378619Y-83217040D01*
X125392863Y-83263995D01*
X125394055Y-83268756D01*
X125403627Y-83316881D01*
X125404347Y-83321734D01*
X125409157Y-83370565D01*
X125409398Y-83375466D01*
X125409398Y-83393889D01*
X125410000Y-83400000D01*
X125410000Y-83900000D01*
X125409398Y-83906111D01*
X125409398Y-83924534D01*
X125409157Y-83929435D01*
X125404347Y-83978266D01*
X125403627Y-83983119D01*
X125394055Y-84031244D01*
X125392863Y-84036005D01*
X125378619Y-84082960D01*
X125376966Y-84087579D01*
X125358189Y-84132912D01*
X125356091Y-84137349D01*
X125332960Y-84180622D01*
X125330438Y-84184829D01*
X125303178Y-84225628D01*
X125300254Y-84229570D01*
X125269126Y-84267499D01*
X125265831Y-84271134D01*
X125231134Y-84305831D01*
X125227499Y-84309126D01*
X125189570Y-84340254D01*
X125185628Y-84343178D01*
X125144829Y-84370438D01*
X125140622Y-84372960D01*
X125097349Y-84396091D01*
X125092912Y-84398189D01*
X125047579Y-84416966D01*
X125042960Y-84418619D01*
X124996005Y-84432863D01*
X124991244Y-84434055D01*
X124943119Y-84443627D01*
X124938266Y-84444347D01*
X124889435Y-84449157D01*
X124884534Y-84449398D01*
X124866111Y-84449398D01*
X124860000Y-84450000D01*
X124310000Y-84450000D01*
X124300245Y-84449039D01*
G37*
%TD*%
D20*
%TO.C,JP1*%
X114710000Y-83650000D03*
D11*
G36*
X113403889Y-84449398D02*
G01*
X113385466Y-84449398D01*
X113380565Y-84449157D01*
X113331734Y-84444347D01*
X113326881Y-84443627D01*
X113278756Y-84434055D01*
X113273995Y-84432863D01*
X113227040Y-84418619D01*
X113222421Y-84416966D01*
X113177088Y-84398189D01*
X113172651Y-84396091D01*
X113129378Y-84372960D01*
X113125171Y-84370438D01*
X113084372Y-84343178D01*
X113080430Y-84340254D01*
X113042501Y-84309126D01*
X113038866Y-84305831D01*
X113004169Y-84271134D01*
X113000874Y-84267499D01*
X112969746Y-84229570D01*
X112966822Y-84225628D01*
X112939562Y-84184829D01*
X112937040Y-84180622D01*
X112913909Y-84137349D01*
X112911811Y-84132912D01*
X112893034Y-84087579D01*
X112891381Y-84082960D01*
X112877137Y-84036005D01*
X112875945Y-84031244D01*
X112866373Y-83983119D01*
X112865653Y-83978266D01*
X112860843Y-83929435D01*
X112860602Y-83924534D01*
X112860602Y-83906111D01*
X112860000Y-83900000D01*
X112860000Y-83400000D01*
X112860602Y-83393889D01*
X112860602Y-83375466D01*
X112860843Y-83370565D01*
X112865653Y-83321734D01*
X112866373Y-83316881D01*
X112875945Y-83268756D01*
X112877137Y-83263995D01*
X112891381Y-83217040D01*
X112893034Y-83212421D01*
X112911811Y-83167088D01*
X112913909Y-83162651D01*
X112937040Y-83119378D01*
X112939562Y-83115171D01*
X112966822Y-83074372D01*
X112969746Y-83070430D01*
X113000874Y-83032501D01*
X113004169Y-83028866D01*
X113038866Y-82994169D01*
X113042501Y-82990874D01*
X113080430Y-82959746D01*
X113084372Y-82956822D01*
X113125171Y-82929562D01*
X113129378Y-82927040D01*
X113172651Y-82903909D01*
X113177088Y-82901811D01*
X113222421Y-82883034D01*
X113227040Y-82881381D01*
X113273995Y-82867137D01*
X113278756Y-82865945D01*
X113326881Y-82856373D01*
X113331734Y-82855653D01*
X113380565Y-82850843D01*
X113385466Y-82850602D01*
X113403889Y-82850602D01*
X113410000Y-82850000D01*
X113960000Y-82850000D01*
X113969755Y-82850961D01*
X113979134Y-82853806D01*
X113987779Y-82858427D01*
X113995355Y-82864645D01*
X114001573Y-82872221D01*
X114006194Y-82880866D01*
X114009039Y-82890245D01*
X114010000Y-82900000D01*
X114010000Y-84400000D01*
X114009039Y-84409755D01*
X114006194Y-84419134D01*
X114001573Y-84427779D01*
X113995355Y-84435355D01*
X113987779Y-84441573D01*
X113979134Y-84446194D01*
X113969755Y-84449039D01*
X113960000Y-84450000D01*
X113410000Y-84450000D01*
X113403889Y-84449398D01*
G37*
G36*
X115450245Y-84449039D02*
G01*
X115440866Y-84446194D01*
X115432221Y-84441573D01*
X115424645Y-84435355D01*
X115418427Y-84427779D01*
X115413806Y-84419134D01*
X115410961Y-84409755D01*
X115410000Y-84400000D01*
X115410000Y-82900000D01*
X115410961Y-82890245D01*
X115413806Y-82880866D01*
X115418427Y-82872221D01*
X115424645Y-82864645D01*
X115432221Y-82858427D01*
X115440866Y-82853806D01*
X115450245Y-82850961D01*
X115460000Y-82850000D01*
X116010000Y-82850000D01*
X116016111Y-82850602D01*
X116034534Y-82850602D01*
X116039435Y-82850843D01*
X116088266Y-82855653D01*
X116093119Y-82856373D01*
X116141244Y-82865945D01*
X116146005Y-82867137D01*
X116192960Y-82881381D01*
X116197579Y-82883034D01*
X116242912Y-82901811D01*
X116247349Y-82903909D01*
X116290622Y-82927040D01*
X116294829Y-82929562D01*
X116335628Y-82956822D01*
X116339570Y-82959746D01*
X116377499Y-82990874D01*
X116381134Y-82994169D01*
X116415831Y-83028866D01*
X116419126Y-83032501D01*
X116450254Y-83070430D01*
X116453178Y-83074372D01*
X116480438Y-83115171D01*
X116482960Y-83119378D01*
X116506091Y-83162651D01*
X116508189Y-83167088D01*
X116526966Y-83212421D01*
X116528619Y-83217040D01*
X116542863Y-83263995D01*
X116544055Y-83268756D01*
X116553627Y-83316881D01*
X116554347Y-83321734D01*
X116559157Y-83370565D01*
X116559398Y-83375466D01*
X116559398Y-83393889D01*
X116560000Y-83400000D01*
X116560000Y-83900000D01*
X116559398Y-83906111D01*
X116559398Y-83924534D01*
X116559157Y-83929435D01*
X116554347Y-83978266D01*
X116553627Y-83983119D01*
X116544055Y-84031244D01*
X116542863Y-84036005D01*
X116528619Y-84082960D01*
X116526966Y-84087579D01*
X116508189Y-84132912D01*
X116506091Y-84137349D01*
X116482960Y-84180622D01*
X116480438Y-84184829D01*
X116453178Y-84225628D01*
X116450254Y-84229570D01*
X116419126Y-84267499D01*
X116415831Y-84271134D01*
X116381134Y-84305831D01*
X116377499Y-84309126D01*
X116339570Y-84340254D01*
X116335628Y-84343178D01*
X116294829Y-84370438D01*
X116290622Y-84372960D01*
X116247349Y-84396091D01*
X116242912Y-84398189D01*
X116197579Y-84416966D01*
X116192960Y-84418619D01*
X116146005Y-84432863D01*
X116141244Y-84434055D01*
X116093119Y-84443627D01*
X116088266Y-84444347D01*
X116039435Y-84449157D01*
X116034534Y-84449398D01*
X116016111Y-84449398D01*
X116010000Y-84450000D01*
X115460000Y-84450000D01*
X115450245Y-84449039D01*
G37*
%TD*%
D16*
%TO.C,J14*%
X84990000Y-76760000D03*
X84990000Y-79300000D03*
X84990000Y-81840000D03*
D17*
X84990000Y-84380000D03*
%TD*%
D16*
%TO.C,J13*%
X85000000Y-64820000D03*
X85000000Y-67360000D03*
X85000000Y-69900000D03*
D17*
X85000000Y-72440000D03*
%TD*%
D16*
%TO.C,J12*%
X156820000Y-75510000D03*
X156820000Y-72970000D03*
D17*
X156820000Y-70430000D03*
%TD*%
D21*
%TO.C,J6*%
X88850000Y-51160000D03*
D22*
X88850000Y-57160000D03*
%TD*%
D23*
%TO.C,J5*%
X176370000Y-70180000D03*
X176370000Y-45880000D03*
D24*
X171620000Y-47030000D03*
D25*
X176370000Y-51030000D03*
D24*
X171620000Y-61030000D03*
D25*
X176370000Y-65030000D03*
%TD*%
D16*
%TO.C,J4*%
X159430000Y-46215000D03*
X156890000Y-46215000D03*
X154350000Y-46215000D03*
D17*
X151810000Y-46215000D03*
%TD*%
D23*
%TO.C,J3*%
X162650000Y-81770000D03*
X186950000Y-81770000D03*
D24*
X185800000Y-77020000D03*
D25*
X181800000Y-81770000D03*
D24*
X171800000Y-77020000D03*
D25*
X167800000Y-81770000D03*
%TD*%
D16*
%TO.C,J2*%
X110300000Y-77940000D03*
D17*
X110300000Y-75400000D03*
%TD*%
D26*
%TO.C,J1*%
X136670000Y-44605000D03*
X139420000Y-44605000D03*
X141820000Y-44605000D03*
X144570000Y-44605000D03*
D27*
X138620000Y-46755000D03*
X142620000Y-46755000D03*
D28*
X139970000Y-47280000D03*
X140620000Y-47280000D03*
X141270000Y-47280000D03*
X139320000Y-47280000D03*
X141920000Y-47280000D03*
%TD*%
D29*
%TO.C,IC5*%
X103323600Y-67221200D03*
X101423600Y-67221200D03*
X101423600Y-64621200D03*
X102373600Y-64621200D03*
X103323600Y-64621200D03*
%TD*%
D30*
%TO.C,IC3*%
X119935000Y-50855000D03*
X119935000Y-52355000D03*
X119935000Y-53855000D03*
X119935000Y-55355000D03*
X119935000Y-56855000D03*
X119935000Y-58355000D03*
X119935000Y-59855000D03*
X119935000Y-61355000D03*
X119935000Y-62855000D03*
X119935000Y-64355000D03*
X119935000Y-65855000D03*
X119935000Y-67355000D03*
X119935000Y-68855000D03*
X118685000Y-70355000D03*
X117185000Y-70355000D03*
X115685000Y-70355000D03*
X114185000Y-70355000D03*
X112685000Y-70355000D03*
X111185000Y-70355000D03*
X109685000Y-70355000D03*
X108185000Y-70355000D03*
X106935000Y-68855000D03*
X106935000Y-67355000D03*
X106935000Y-65855000D03*
X106935000Y-64355000D03*
X106935000Y-62855000D03*
X106935000Y-61355000D03*
X106935000Y-59855000D03*
X106935000Y-58355000D03*
X106935000Y-56855000D03*
X106935000Y-55355000D03*
X106935000Y-53855000D03*
X106935000Y-52355000D03*
X106935000Y-50855000D03*
%TD*%
D31*
%TO.C,IC1*%
X135180400Y-57942980D03*
D32*
X137130400Y-56692980D03*
X137130400Y-57192980D03*
X137130400Y-57692980D03*
X137130400Y-58192980D03*
X137130400Y-58692980D03*
X137130400Y-59192980D03*
D33*
X136430400Y-59892980D03*
X135930400Y-59892980D03*
X135430400Y-59892980D03*
X134930400Y-59892980D03*
X134430400Y-59892980D03*
X133930400Y-59892980D03*
D32*
X133230400Y-59192980D03*
X133230400Y-58692980D03*
X133230400Y-58192980D03*
X133230400Y-57692980D03*
X133230400Y-57192980D03*
X133230400Y-56692980D03*
D33*
X133930400Y-55992980D03*
X134430400Y-55992980D03*
X134930400Y-55992980D03*
X135430400Y-55992980D03*
X135930400Y-55992980D03*
X136430400Y-55992980D03*
%TD*%
%TO.C,RX*%
G36*
G01*
X144822500Y-58931250D02*
X144822500Y-58368750D01*
G75*
G02*
X145066250Y-58125000I243750J0D01*
G01*
X145553750Y-58125000D01*
G75*
G02*
X145797500Y-58368750I0J-243750D01*
G01*
X145797500Y-58931250D01*
G75*
G02*
X145553750Y-59175000I-243750J0D01*
G01*
X145066250Y-59175000D01*
G75*
G02*
X144822500Y-58931250I0J243750D01*
G01*
G37*
G36*
G01*
X143247500Y-58931250D02*
X143247500Y-58368750D01*
G75*
G02*
X143491250Y-58125000I243750J0D01*
G01*
X143978750Y-58125000D01*
G75*
G02*
X144222500Y-58368750I0J-243750D01*
G01*
X144222500Y-58931250D01*
G75*
G02*
X143978750Y-59175000I-243750J0D01*
G01*
X143491250Y-59175000D01*
G75*
G02*
X143247500Y-58931250I0J243750D01*
G01*
G37*
%TD*%
%TO.C,TX*%
G36*
G01*
X144807500Y-60581250D02*
X144807500Y-60018750D01*
G75*
G02*
X145051250Y-59775000I243750J0D01*
G01*
X145538750Y-59775000D01*
G75*
G02*
X145782500Y-60018750I0J-243750D01*
G01*
X145782500Y-60581250D01*
G75*
G02*
X145538750Y-60825000I-243750J0D01*
G01*
X145051250Y-60825000D01*
G75*
G02*
X144807500Y-60581250I0J243750D01*
G01*
G37*
G36*
G01*
X143232500Y-60581250D02*
X143232500Y-60018750D01*
G75*
G02*
X143476250Y-59775000I243750J0D01*
G01*
X143963750Y-59775000D01*
G75*
G02*
X144207500Y-60018750I0J-243750D01*
G01*
X144207500Y-60581250D01*
G75*
G02*
X143963750Y-60825000I-243750J0D01*
G01*
X143476250Y-60825000D01*
G75*
G02*
X143232500Y-60581250I0J243750D01*
G01*
G37*
%TD*%
%TO.C,DTR*%
G36*
G01*
X144827500Y-57321250D02*
X144827500Y-56758750D01*
G75*
G02*
X145071250Y-56515000I243750J0D01*
G01*
X145558750Y-56515000D01*
G75*
G02*
X145802500Y-56758750I0J-243750D01*
G01*
X145802500Y-57321250D01*
G75*
G02*
X145558750Y-57565000I-243750J0D01*
G01*
X145071250Y-57565000D01*
G75*
G02*
X144827500Y-57321250I0J243750D01*
G01*
G37*
G36*
G01*
X143252500Y-57321250D02*
X143252500Y-56758750D01*
G75*
G02*
X143496250Y-56515000I243750J0D01*
G01*
X143983750Y-56515000D01*
G75*
G02*
X144227500Y-56758750I0J-243750D01*
G01*
X144227500Y-57321250D01*
G75*
G02*
X143983750Y-57565000I-243750J0D01*
G01*
X143496250Y-57565000D01*
G75*
G02*
X143252500Y-57321250I0J243750D01*
G01*
G37*
%TD*%
D34*
%TO.C,D1*%
X139735000Y-54630000D03*
X139735000Y-52730000D03*
X141935000Y-52730000D03*
D35*
X141935000Y-54530000D03*
%TD*%
%TO.C,C14*%
G36*
G01*
X101604600Y-68691400D02*
X101604600Y-70901400D01*
G75*
G02*
X101334600Y-71171400I-270000J0D01*
G01*
X100524600Y-71171400D01*
G75*
G02*
X100254600Y-70901400I0J270000D01*
G01*
X100254600Y-68691400D01*
G75*
G02*
X100524600Y-68421400I270000J0D01*
G01*
X101334600Y-68421400D01*
G75*
G02*
X101604600Y-68691400I0J-270000D01*
G01*
G37*
G36*
G01*
X104404600Y-68691400D02*
X104404600Y-70901400D01*
G75*
G02*
X104134600Y-71171400I-270000J0D01*
G01*
X103324600Y-71171400D01*
G75*
G02*
X103054600Y-70901400I0J270000D01*
G01*
X103054600Y-68691400D01*
G75*
G02*
X103324600Y-68421400I270000J0D01*
G01*
X104134600Y-68421400D01*
G75*
G02*
X104404600Y-68691400I0J-270000D01*
G01*
G37*
%TD*%
%TO.C,C13*%
G36*
G01*
X101604600Y-60969800D02*
X101604600Y-63179800D01*
G75*
G02*
X101334600Y-63449800I-270000J0D01*
G01*
X100524600Y-63449800D01*
G75*
G02*
X100254600Y-63179800I0J270000D01*
G01*
X100254600Y-60969800D01*
G75*
G02*
X100524600Y-60699800I270000J0D01*
G01*
X101334600Y-60699800D01*
G75*
G02*
X101604600Y-60969800I0J-270000D01*
G01*
G37*
G36*
G01*
X104404600Y-60969800D02*
X104404600Y-63179800D01*
G75*
G02*
X104134600Y-63449800I-270000J0D01*
G01*
X103324600Y-63449800D01*
G75*
G02*
X103054600Y-63179800I0J270000D01*
G01*
X103054600Y-60969800D01*
G75*
G02*
X103324600Y-60699800I270000J0D01*
G01*
X104134600Y-60699800D01*
G75*
G02*
X104404600Y-60969800I0J-270000D01*
G01*
G37*
%TD*%
%TO.C,C12*%
G36*
G01*
X105015000Y-79695000D02*
X105015000Y-81905000D01*
G75*
G02*
X104745000Y-82175000I-270000J0D01*
G01*
X103935000Y-82175000D01*
G75*
G02*
X103665000Y-81905000I0J270000D01*
G01*
X103665000Y-79695000D01*
G75*
G02*
X103935000Y-79425000I270000J0D01*
G01*
X104745000Y-79425000D01*
G75*
G02*
X105015000Y-79695000I0J-270000D01*
G01*
G37*
G36*
G01*
X107815000Y-79695000D02*
X107815000Y-81905000D01*
G75*
G02*
X107545000Y-82175000I-270000J0D01*
G01*
X106735000Y-82175000D01*
G75*
G02*
X106465000Y-81905000I0J270000D01*
G01*
X106465000Y-79695000D01*
G75*
G02*
X106735000Y-79425000I270000J0D01*
G01*
X107545000Y-79425000D01*
G75*
G02*
X107815000Y-79695000I0J-270000D01*
G01*
G37*
%TD*%
%TO.C,C11*%
G36*
G01*
X105015000Y-76395000D02*
X105015000Y-78605000D01*
G75*
G02*
X104745000Y-78875000I-270000J0D01*
G01*
X103935000Y-78875000D01*
G75*
G02*
X103665000Y-78605000I0J270000D01*
G01*
X103665000Y-76395000D01*
G75*
G02*
X103935000Y-76125000I270000J0D01*
G01*
X104745000Y-76125000D01*
G75*
G02*
X105015000Y-76395000I0J-270000D01*
G01*
G37*
G36*
G01*
X107815000Y-76395000D02*
X107815000Y-78605000D01*
G75*
G02*
X107545000Y-78875000I-270000J0D01*
G01*
X106735000Y-78875000D01*
G75*
G02*
X106465000Y-78605000I0J270000D01*
G01*
X106465000Y-76395000D01*
G75*
G02*
X106735000Y-76125000I270000J0D01*
G01*
X107545000Y-76125000D01*
G75*
G02*
X107815000Y-76395000I0J-270000D01*
G01*
G37*
%TD*%
%TO.C,C10*%
G36*
G01*
X95958750Y-82887500D02*
X96521250Y-82887500D01*
G75*
G02*
X96765000Y-83131250I0J-243750D01*
G01*
X96765000Y-83618750D01*
G75*
G02*
X96521250Y-83862500I-243750J0D01*
G01*
X95958750Y-83862500D01*
G75*
G02*
X95715000Y-83618750I0J243750D01*
G01*
X95715000Y-83131250D01*
G75*
G02*
X95958750Y-82887500I243750J0D01*
G01*
G37*
G36*
G01*
X95958750Y-81312500D02*
X96521250Y-81312500D01*
G75*
G02*
X96765000Y-81556250I0J-243750D01*
G01*
X96765000Y-82043750D01*
G75*
G02*
X96521250Y-82287500I-243750J0D01*
G01*
X95958750Y-82287500D01*
G75*
G02*
X95715000Y-82043750I0J243750D01*
G01*
X95715000Y-81556250D01*
G75*
G02*
X95958750Y-81312500I243750J0D01*
G01*
G37*
%TD*%
%TO.C,C9*%
G36*
G01*
X105026700Y-85270050D02*
X105026700Y-84707550D01*
G75*
G02*
X105270450Y-84463800I243750J0D01*
G01*
X105757950Y-84463800D01*
G75*
G02*
X106001700Y-84707550I0J-243750D01*
G01*
X106001700Y-85270050D01*
G75*
G02*
X105757950Y-85513800I-243750J0D01*
G01*
X105270450Y-85513800D01*
G75*
G02*
X105026700Y-85270050I0J243750D01*
G01*
G37*
G36*
G01*
X103451700Y-85270050D02*
X103451700Y-84707550D01*
G75*
G02*
X103695450Y-84463800I243750J0D01*
G01*
X104182950Y-84463800D01*
G75*
G02*
X104426700Y-84707550I0J-243750D01*
G01*
X104426700Y-85270050D01*
G75*
G02*
X104182950Y-85513800I-243750J0D01*
G01*
X103695450Y-85513800D01*
G75*
G02*
X103451700Y-85270050I0J243750D01*
G01*
G37*
%TD*%
%TO.C,C8*%
G36*
G01*
X101665000Y-79805000D02*
X101665000Y-77595000D01*
G75*
G02*
X101935000Y-77325000I270000J0D01*
G01*
X102745000Y-77325000D01*
G75*
G02*
X103015000Y-77595000I0J-270000D01*
G01*
X103015000Y-79805000D01*
G75*
G02*
X102745000Y-80075000I-270000J0D01*
G01*
X101935000Y-80075000D01*
G75*
G02*
X101665000Y-79805000I0J270000D01*
G01*
G37*
G36*
G01*
X98865000Y-79805000D02*
X98865000Y-77595000D01*
G75*
G02*
X99135000Y-77325000I270000J0D01*
G01*
X99945000Y-77325000D01*
G75*
G02*
X100215000Y-77595000I0J-270000D01*
G01*
X100215000Y-79805000D01*
G75*
G02*
X99945000Y-80075000I-270000J0D01*
G01*
X99135000Y-80075000D01*
G75*
G02*
X98865000Y-79805000I0J270000D01*
G01*
G37*
%TD*%
%TO.C,C7*%
G36*
G01*
X126944750Y-56422000D02*
X127507250Y-56422000D01*
G75*
G02*
X127751000Y-56665750I0J-243750D01*
G01*
X127751000Y-57153250D01*
G75*
G02*
X127507250Y-57397000I-243750J0D01*
G01*
X126944750Y-57397000D01*
G75*
G02*
X126701000Y-57153250I0J243750D01*
G01*
X126701000Y-56665750D01*
G75*
G02*
X126944750Y-56422000I243750J0D01*
G01*
G37*
G36*
G01*
X126944750Y-54847000D02*
X127507250Y-54847000D01*
G75*
G02*
X127751000Y-55090750I0J-243750D01*
G01*
X127751000Y-55578250D01*
G75*
G02*
X127507250Y-55822000I-243750J0D01*
G01*
X126944750Y-55822000D01*
G75*
G02*
X126701000Y-55578250I0J243750D01*
G01*
X126701000Y-55090750D01*
G75*
G02*
X126944750Y-54847000I243750J0D01*
G01*
G37*
%TD*%
%TO.C,C6*%
G36*
G01*
X128524750Y-56429500D02*
X129087250Y-56429500D01*
G75*
G02*
X129331000Y-56673250I0J-243750D01*
G01*
X129331000Y-57160750D01*
G75*
G02*
X129087250Y-57404500I-243750J0D01*
G01*
X128524750Y-57404500D01*
G75*
G02*
X128281000Y-57160750I0J243750D01*
G01*
X128281000Y-56673250D01*
G75*
G02*
X128524750Y-56429500I243750J0D01*
G01*
G37*
G36*
G01*
X128524750Y-54854500D02*
X129087250Y-54854500D01*
G75*
G02*
X129331000Y-55098250I0J-243750D01*
G01*
X129331000Y-55585750D01*
G75*
G02*
X129087250Y-55829500I-243750J0D01*
G01*
X128524750Y-55829500D01*
G75*
G02*
X128281000Y-55585750I0J243750D01*
G01*
X128281000Y-55098250D01*
G75*
G02*
X128524750Y-54854500I243750J0D01*
G01*
G37*
%TD*%
%TO.C,C5*%
G36*
G01*
X127706250Y-72267500D02*
X127143750Y-72267500D01*
G75*
G02*
X126900000Y-72023750I0J243750D01*
G01*
X126900000Y-71536250D01*
G75*
G02*
X127143750Y-71292500I243750J0D01*
G01*
X127706250Y-71292500D01*
G75*
G02*
X127950000Y-71536250I0J-243750D01*
G01*
X127950000Y-72023750D01*
G75*
G02*
X127706250Y-72267500I-243750J0D01*
G01*
G37*
G36*
G01*
X127706250Y-73842500D02*
X127143750Y-73842500D01*
G75*
G02*
X126900000Y-73598750I0J243750D01*
G01*
X126900000Y-73111250D01*
G75*
G02*
X127143750Y-72867500I243750J0D01*
G01*
X127706250Y-72867500D01*
G75*
G02*
X127950000Y-73111250I0J-243750D01*
G01*
X127950000Y-73598750D01*
G75*
G02*
X127706250Y-73842500I-243750J0D01*
G01*
G37*
%TD*%
%TO.C,C4*%
G36*
G01*
X127706250Y-69180000D02*
X127143750Y-69180000D01*
G75*
G02*
X126900000Y-68936250I0J243750D01*
G01*
X126900000Y-68448750D01*
G75*
G02*
X127143750Y-68205000I243750J0D01*
G01*
X127706250Y-68205000D01*
G75*
G02*
X127950000Y-68448750I0J-243750D01*
G01*
X127950000Y-68936250D01*
G75*
G02*
X127706250Y-69180000I-243750J0D01*
G01*
G37*
G36*
G01*
X127706250Y-70755000D02*
X127143750Y-70755000D01*
G75*
G02*
X126900000Y-70511250I0J243750D01*
G01*
X126900000Y-70023750D01*
G75*
G02*
X127143750Y-69780000I243750J0D01*
G01*
X127706250Y-69780000D01*
G75*
G02*
X127950000Y-70023750I0J-243750D01*
G01*
X127950000Y-70511250D01*
G75*
G02*
X127706250Y-70755000I-243750J0D01*
G01*
G37*
%TD*%
%TO.C,C3*%
G36*
G01*
X146197500Y-68386250D02*
X146197500Y-67823750D01*
G75*
G02*
X146441250Y-67580000I243750J0D01*
G01*
X146928750Y-67580000D01*
G75*
G02*
X147172500Y-67823750I0J-243750D01*
G01*
X147172500Y-68386250D01*
G75*
G02*
X146928750Y-68630000I-243750J0D01*
G01*
X146441250Y-68630000D01*
G75*
G02*
X146197500Y-68386250I0J243750D01*
G01*
G37*
G36*
G01*
X144622500Y-68386250D02*
X144622500Y-67823750D01*
G75*
G02*
X144866250Y-67580000I243750J0D01*
G01*
X145353750Y-67580000D01*
G75*
G02*
X145597500Y-67823750I0J-243750D01*
G01*
X145597500Y-68386250D01*
G75*
G02*
X145353750Y-68630000I-243750J0D01*
G01*
X144866250Y-68630000D01*
G75*
G02*
X144622500Y-68386250I0J243750D01*
G01*
G37*
%TD*%
%TO.C,C2*%
G36*
G01*
X146210000Y-69936250D02*
X146210000Y-69373750D01*
G75*
G02*
X146453750Y-69130000I243750J0D01*
G01*
X146941250Y-69130000D01*
G75*
G02*
X147185000Y-69373750I0J-243750D01*
G01*
X147185000Y-69936250D01*
G75*
G02*
X146941250Y-70180000I-243750J0D01*
G01*
X146453750Y-70180000D01*
G75*
G02*
X146210000Y-69936250I0J243750D01*
G01*
G37*
G36*
G01*
X144635000Y-69936250D02*
X144635000Y-69373750D01*
G75*
G02*
X144878750Y-69130000I243750J0D01*
G01*
X145366250Y-69130000D01*
G75*
G02*
X145610000Y-69373750I0J-243750D01*
G01*
X145610000Y-69936250D01*
G75*
G02*
X145366250Y-70180000I-243750J0D01*
G01*
X144878750Y-70180000D01*
G75*
G02*
X144635000Y-69936250I0J243750D01*
G01*
G37*
%TD*%
%TO.C,C1*%
G36*
G01*
X134310000Y-64525000D02*
X132100000Y-64525000D01*
G75*
G02*
X131830000Y-64255000I0J270000D01*
G01*
X131830000Y-63445000D01*
G75*
G02*
X132100000Y-63175000I270000J0D01*
G01*
X134310000Y-63175000D01*
G75*
G02*
X134580000Y-63445000I0J-270000D01*
G01*
X134580000Y-64255000D01*
G75*
G02*
X134310000Y-64525000I-270000J0D01*
G01*
G37*
G36*
G01*
X134310000Y-67325000D02*
X132100000Y-67325000D01*
G75*
G02*
X131830000Y-67055000I0J270000D01*
G01*
X131830000Y-66245000D01*
G75*
G02*
X132100000Y-65975000I270000J0D01*
G01*
X134310000Y-65975000D01*
G75*
G02*
X134580000Y-66245000I0J-270000D01*
G01*
X134580000Y-67055000D01*
G75*
G02*
X134310000Y-67325000I-270000J0D01*
G01*
G37*
%TD*%
M02*
