%TF.GenerationSoftware,KiCad,Pcbnew,(5.1.6)-1*%
%TF.CreationDate,2021-08-26T22:57:43+02:00*%
%TF.ProjectId,Car LEDs,43617220-4c45-4447-932e-6b696361645f,rev?*%
%TF.SameCoordinates,Original*%
%TF.FileFunction,Paste,Top*%
%TF.FilePolarity,Positive*%
%FSLAX46Y46*%
G04 Gerber Fmt 4.6, Leading zero omitted, Abs format (unit mm)*
G04 Created by KiCad (PCBNEW (5.1.6)-1) date 2021-08-26 22:57:43*
%MOMM*%
%LPD*%
G01*
G04 APERTURE LIST*
%ADD10C,0.100000*%
%ADD11R,1.100000X1.300000*%
%ADD12O,1.300000X0.600000*%
%ADD13R,1.900000X1.900000*%
%ADD14R,0.400000X1.350000*%
%ADD15R,0.600000X1.150000*%
%ADD16R,1.000000X1.000000*%
%ADD17R,2.550000X2.550000*%
%ADD18R,0.850000X0.300000*%
%ADD19R,0.300000X0.850000*%
%ADD20R,1.400000X0.900000*%
%ADD21R,1.400000X1.100000*%
G04 APERTURE END LIST*
%TO.C,U1*%
G36*
G01*
X139675000Y-70002500D02*
X139675000Y-69517500D01*
G75*
G02*
X139917500Y-69275000I242500J0D01*
G01*
X140402500Y-69275000D01*
G75*
G02*
X140645000Y-69517500I0J-242500D01*
G01*
X140645000Y-70002500D01*
G75*
G02*
X140402500Y-70245000I-242500J0D01*
G01*
X139917500Y-70245000D01*
G75*
G02*
X139675000Y-70002500I0J242500D01*
G01*
G37*
G36*
G01*
X139675000Y-68802500D02*
X139675000Y-68317500D01*
G75*
G02*
X139917500Y-68075000I242500J0D01*
G01*
X140402500Y-68075000D01*
G75*
G02*
X140645000Y-68317500I0J-242500D01*
G01*
X140645000Y-68802500D01*
G75*
G02*
X140402500Y-69045000I-242500J0D01*
G01*
X139917500Y-69045000D01*
G75*
G02*
X139675000Y-68802500I0J242500D01*
G01*
G37*
G36*
G01*
X138475000Y-70002500D02*
X138475000Y-69517500D01*
G75*
G02*
X138717500Y-69275000I242500J0D01*
G01*
X139202500Y-69275000D01*
G75*
G02*
X139445000Y-69517500I0J-242500D01*
G01*
X139445000Y-70002500D01*
G75*
G02*
X139202500Y-70245000I-242500J0D01*
G01*
X138717500Y-70245000D01*
G75*
G02*
X138475000Y-70002500I0J242500D01*
G01*
G37*
G36*
G01*
X138475000Y-68802500D02*
X138475000Y-68317500D01*
G75*
G02*
X138717500Y-68075000I242500J0D01*
G01*
X139202500Y-68075000D01*
G75*
G02*
X139445000Y-68317500I0J-242500D01*
G01*
X139445000Y-68802500D01*
G75*
G02*
X139202500Y-69045000I-242500J0D01*
G01*
X138717500Y-69045000D01*
G75*
G02*
X138475000Y-68802500I0J242500D01*
G01*
G37*
D10*
G36*
X138284693Y-66811201D02*
G01*
X138296418Y-66814758D01*
X138307223Y-66820533D01*
X138316694Y-66828306D01*
X138324467Y-66837777D01*
X138330242Y-66848582D01*
X138333799Y-66860307D01*
X138335000Y-66872500D01*
X138335000Y-67547500D01*
X138333799Y-67559693D01*
X138330242Y-67571418D01*
X138324467Y-67582223D01*
X138316694Y-67591694D01*
X138307223Y-67599467D01*
X138296418Y-67605242D01*
X138284693Y-67608799D01*
X138272500Y-67610000D01*
X138210888Y-67610000D01*
X138198695Y-67608799D01*
X138186970Y-67605242D01*
X138176165Y-67599467D01*
X138166694Y-67591694D01*
X138103306Y-67528306D01*
X138095533Y-67518835D01*
X138089758Y-67508030D01*
X138086201Y-67496305D01*
X138085000Y-67484112D01*
X138085000Y-66872500D01*
X138086201Y-66860307D01*
X138089758Y-66848582D01*
X138095533Y-66837777D01*
X138103306Y-66828306D01*
X138112777Y-66820533D01*
X138123582Y-66814758D01*
X138135307Y-66811201D01*
X138147500Y-66810000D01*
X138272500Y-66810000D01*
X138284693Y-66811201D01*
G37*
G36*
G01*
X138535000Y-67547500D02*
X138535000Y-66872500D01*
G75*
G02*
X138597500Y-66810000I62500J0D01*
G01*
X138722500Y-66810000D01*
G75*
G02*
X138785000Y-66872500I0J-62500D01*
G01*
X138785000Y-67547500D01*
G75*
G02*
X138722500Y-67610000I-62500J0D01*
G01*
X138597500Y-67610000D01*
G75*
G02*
X138535000Y-67547500I0J62500D01*
G01*
G37*
G36*
G01*
X138985000Y-67547500D02*
X138985000Y-66872500D01*
G75*
G02*
X139047500Y-66810000I62500J0D01*
G01*
X139172500Y-66810000D01*
G75*
G02*
X139235000Y-66872500I0J-62500D01*
G01*
X139235000Y-67547500D01*
G75*
G02*
X139172500Y-67610000I-62500J0D01*
G01*
X139047500Y-67610000D01*
G75*
G02*
X138985000Y-67547500I0J62500D01*
G01*
G37*
G36*
G01*
X139435000Y-67547500D02*
X139435000Y-66872500D01*
G75*
G02*
X139497500Y-66810000I62500J0D01*
G01*
X139622500Y-66810000D01*
G75*
G02*
X139685000Y-66872500I0J-62500D01*
G01*
X139685000Y-67547500D01*
G75*
G02*
X139622500Y-67610000I-62500J0D01*
G01*
X139497500Y-67610000D01*
G75*
G02*
X139435000Y-67547500I0J62500D01*
G01*
G37*
G36*
G01*
X139885000Y-67547500D02*
X139885000Y-66872500D01*
G75*
G02*
X139947500Y-66810000I62500J0D01*
G01*
X140072500Y-66810000D01*
G75*
G02*
X140135000Y-66872500I0J-62500D01*
G01*
X140135000Y-67547500D01*
G75*
G02*
X140072500Y-67610000I-62500J0D01*
G01*
X139947500Y-67610000D01*
G75*
G02*
X139885000Y-67547500I0J62500D01*
G01*
G37*
G36*
G01*
X140335000Y-67547500D02*
X140335000Y-66872500D01*
G75*
G02*
X140397500Y-66810000I62500J0D01*
G01*
X140522500Y-66810000D01*
G75*
G02*
X140585000Y-66872500I0J-62500D01*
G01*
X140585000Y-67547500D01*
G75*
G02*
X140522500Y-67610000I-62500J0D01*
G01*
X140397500Y-67610000D01*
G75*
G02*
X140335000Y-67547500I0J62500D01*
G01*
G37*
G36*
X140984693Y-66811201D02*
G01*
X140996418Y-66814758D01*
X141007223Y-66820533D01*
X141016694Y-66828306D01*
X141024467Y-66837777D01*
X141030242Y-66848582D01*
X141033799Y-66860307D01*
X141035000Y-66872500D01*
X141035000Y-67484112D01*
X141033799Y-67496305D01*
X141030242Y-67508030D01*
X141024467Y-67518835D01*
X141016694Y-67528306D01*
X140953306Y-67591694D01*
X140943835Y-67599467D01*
X140933030Y-67605242D01*
X140921305Y-67608799D01*
X140909112Y-67610000D01*
X140847500Y-67610000D01*
X140835307Y-67608799D01*
X140823582Y-67605242D01*
X140812777Y-67599467D01*
X140803306Y-67591694D01*
X140795533Y-67582223D01*
X140789758Y-67571418D01*
X140786201Y-67559693D01*
X140785000Y-67547500D01*
X140785000Y-66872500D01*
X140786201Y-66860307D01*
X140789758Y-66848582D01*
X140795533Y-66837777D01*
X140803306Y-66828306D01*
X140812777Y-66820533D01*
X140823582Y-66814758D01*
X140835307Y-66811201D01*
X140847500Y-66810000D01*
X140972500Y-66810000D01*
X140984693Y-66811201D01*
G37*
G36*
X141859693Y-67686201D02*
G01*
X141871418Y-67689758D01*
X141882223Y-67695533D01*
X141891694Y-67703306D01*
X141899467Y-67712777D01*
X141905242Y-67723582D01*
X141908799Y-67735307D01*
X141910000Y-67747500D01*
X141910000Y-67872500D01*
X141908799Y-67884693D01*
X141905242Y-67896418D01*
X141899467Y-67907223D01*
X141891694Y-67916694D01*
X141882223Y-67924467D01*
X141871418Y-67930242D01*
X141859693Y-67933799D01*
X141847500Y-67935000D01*
X141172500Y-67935000D01*
X141160307Y-67933799D01*
X141148582Y-67930242D01*
X141137777Y-67924467D01*
X141128306Y-67916694D01*
X141120533Y-67907223D01*
X141114758Y-67896418D01*
X141111201Y-67884693D01*
X141110000Y-67872500D01*
X141110000Y-67810888D01*
X141111201Y-67798695D01*
X141114758Y-67786970D01*
X141120533Y-67776165D01*
X141128306Y-67766694D01*
X141191694Y-67703306D01*
X141201165Y-67695533D01*
X141211970Y-67689758D01*
X141223695Y-67686201D01*
X141235888Y-67685000D01*
X141847500Y-67685000D01*
X141859693Y-67686201D01*
G37*
G36*
G01*
X141110000Y-68322500D02*
X141110000Y-68197500D01*
G75*
G02*
X141172500Y-68135000I62500J0D01*
G01*
X141847500Y-68135000D01*
G75*
G02*
X141910000Y-68197500I0J-62500D01*
G01*
X141910000Y-68322500D01*
G75*
G02*
X141847500Y-68385000I-62500J0D01*
G01*
X141172500Y-68385000D01*
G75*
G02*
X141110000Y-68322500I0J62500D01*
G01*
G37*
G36*
G01*
X141110000Y-68772500D02*
X141110000Y-68647500D01*
G75*
G02*
X141172500Y-68585000I62500J0D01*
G01*
X141847500Y-68585000D01*
G75*
G02*
X141910000Y-68647500I0J-62500D01*
G01*
X141910000Y-68772500D01*
G75*
G02*
X141847500Y-68835000I-62500J0D01*
G01*
X141172500Y-68835000D01*
G75*
G02*
X141110000Y-68772500I0J62500D01*
G01*
G37*
G36*
G01*
X141110000Y-69222500D02*
X141110000Y-69097500D01*
G75*
G02*
X141172500Y-69035000I62500J0D01*
G01*
X141847500Y-69035000D01*
G75*
G02*
X141910000Y-69097500I0J-62500D01*
G01*
X141910000Y-69222500D01*
G75*
G02*
X141847500Y-69285000I-62500J0D01*
G01*
X141172500Y-69285000D01*
G75*
G02*
X141110000Y-69222500I0J62500D01*
G01*
G37*
G36*
G01*
X141110000Y-69672500D02*
X141110000Y-69547500D01*
G75*
G02*
X141172500Y-69485000I62500J0D01*
G01*
X141847500Y-69485000D01*
G75*
G02*
X141910000Y-69547500I0J-62500D01*
G01*
X141910000Y-69672500D01*
G75*
G02*
X141847500Y-69735000I-62500J0D01*
G01*
X141172500Y-69735000D01*
G75*
G02*
X141110000Y-69672500I0J62500D01*
G01*
G37*
G36*
G01*
X141110000Y-70122500D02*
X141110000Y-69997500D01*
G75*
G02*
X141172500Y-69935000I62500J0D01*
G01*
X141847500Y-69935000D01*
G75*
G02*
X141910000Y-69997500I0J-62500D01*
G01*
X141910000Y-70122500D01*
G75*
G02*
X141847500Y-70185000I-62500J0D01*
G01*
X141172500Y-70185000D01*
G75*
G02*
X141110000Y-70122500I0J62500D01*
G01*
G37*
G36*
X141859693Y-70386201D02*
G01*
X141871418Y-70389758D01*
X141882223Y-70395533D01*
X141891694Y-70403306D01*
X141899467Y-70412777D01*
X141905242Y-70423582D01*
X141908799Y-70435307D01*
X141910000Y-70447500D01*
X141910000Y-70572500D01*
X141908799Y-70584693D01*
X141905242Y-70596418D01*
X141899467Y-70607223D01*
X141891694Y-70616694D01*
X141882223Y-70624467D01*
X141871418Y-70630242D01*
X141859693Y-70633799D01*
X141847500Y-70635000D01*
X141235888Y-70635000D01*
X141223695Y-70633799D01*
X141211970Y-70630242D01*
X141201165Y-70624467D01*
X141191694Y-70616694D01*
X141128306Y-70553306D01*
X141120533Y-70543835D01*
X141114758Y-70533030D01*
X141111201Y-70521305D01*
X141110000Y-70509112D01*
X141110000Y-70447500D01*
X141111201Y-70435307D01*
X141114758Y-70423582D01*
X141120533Y-70412777D01*
X141128306Y-70403306D01*
X141137777Y-70395533D01*
X141148582Y-70389758D01*
X141160307Y-70386201D01*
X141172500Y-70385000D01*
X141847500Y-70385000D01*
X141859693Y-70386201D01*
G37*
G36*
X140921305Y-70711201D02*
G01*
X140933030Y-70714758D01*
X140943835Y-70720533D01*
X140953306Y-70728306D01*
X141016694Y-70791694D01*
X141024467Y-70801165D01*
X141030242Y-70811970D01*
X141033799Y-70823695D01*
X141035000Y-70835888D01*
X141035000Y-71447500D01*
X141033799Y-71459693D01*
X141030242Y-71471418D01*
X141024467Y-71482223D01*
X141016694Y-71491694D01*
X141007223Y-71499467D01*
X140996418Y-71505242D01*
X140984693Y-71508799D01*
X140972500Y-71510000D01*
X140847500Y-71510000D01*
X140835307Y-71508799D01*
X140823582Y-71505242D01*
X140812777Y-71499467D01*
X140803306Y-71491694D01*
X140795533Y-71482223D01*
X140789758Y-71471418D01*
X140786201Y-71459693D01*
X140785000Y-71447500D01*
X140785000Y-70772500D01*
X140786201Y-70760307D01*
X140789758Y-70748582D01*
X140795533Y-70737777D01*
X140803306Y-70728306D01*
X140812777Y-70720533D01*
X140823582Y-70714758D01*
X140835307Y-70711201D01*
X140847500Y-70710000D01*
X140909112Y-70710000D01*
X140921305Y-70711201D01*
G37*
G36*
G01*
X140335000Y-71447500D02*
X140335000Y-70772500D01*
G75*
G02*
X140397500Y-70710000I62500J0D01*
G01*
X140522500Y-70710000D01*
G75*
G02*
X140585000Y-70772500I0J-62500D01*
G01*
X140585000Y-71447500D01*
G75*
G02*
X140522500Y-71510000I-62500J0D01*
G01*
X140397500Y-71510000D01*
G75*
G02*
X140335000Y-71447500I0J62500D01*
G01*
G37*
G36*
G01*
X139885000Y-71447500D02*
X139885000Y-70772500D01*
G75*
G02*
X139947500Y-70710000I62500J0D01*
G01*
X140072500Y-70710000D01*
G75*
G02*
X140135000Y-70772500I0J-62500D01*
G01*
X140135000Y-71447500D01*
G75*
G02*
X140072500Y-71510000I-62500J0D01*
G01*
X139947500Y-71510000D01*
G75*
G02*
X139885000Y-71447500I0J62500D01*
G01*
G37*
G36*
G01*
X139435000Y-71447500D02*
X139435000Y-70772500D01*
G75*
G02*
X139497500Y-70710000I62500J0D01*
G01*
X139622500Y-70710000D01*
G75*
G02*
X139685000Y-70772500I0J-62500D01*
G01*
X139685000Y-71447500D01*
G75*
G02*
X139622500Y-71510000I-62500J0D01*
G01*
X139497500Y-71510000D01*
G75*
G02*
X139435000Y-71447500I0J62500D01*
G01*
G37*
G36*
G01*
X138985000Y-71447500D02*
X138985000Y-70772500D01*
G75*
G02*
X139047500Y-70710000I62500J0D01*
G01*
X139172500Y-70710000D01*
G75*
G02*
X139235000Y-70772500I0J-62500D01*
G01*
X139235000Y-71447500D01*
G75*
G02*
X139172500Y-71510000I-62500J0D01*
G01*
X139047500Y-71510000D01*
G75*
G02*
X138985000Y-71447500I0J62500D01*
G01*
G37*
G36*
G01*
X138535000Y-71447500D02*
X138535000Y-70772500D01*
G75*
G02*
X138597500Y-70710000I62500J0D01*
G01*
X138722500Y-70710000D01*
G75*
G02*
X138785000Y-70772500I0J-62500D01*
G01*
X138785000Y-71447500D01*
G75*
G02*
X138722500Y-71510000I-62500J0D01*
G01*
X138597500Y-71510000D01*
G75*
G02*
X138535000Y-71447500I0J62500D01*
G01*
G37*
G36*
X138284693Y-70711201D02*
G01*
X138296418Y-70714758D01*
X138307223Y-70720533D01*
X138316694Y-70728306D01*
X138324467Y-70737777D01*
X138330242Y-70748582D01*
X138333799Y-70760307D01*
X138335000Y-70772500D01*
X138335000Y-71447500D01*
X138333799Y-71459693D01*
X138330242Y-71471418D01*
X138324467Y-71482223D01*
X138316694Y-71491694D01*
X138307223Y-71499467D01*
X138296418Y-71505242D01*
X138284693Y-71508799D01*
X138272500Y-71510000D01*
X138147500Y-71510000D01*
X138135307Y-71508799D01*
X138123582Y-71505242D01*
X138112777Y-71499467D01*
X138103306Y-71491694D01*
X138095533Y-71482223D01*
X138089758Y-71471418D01*
X138086201Y-71459693D01*
X138085000Y-71447500D01*
X138085000Y-70835888D01*
X138086201Y-70823695D01*
X138089758Y-70811970D01*
X138095533Y-70801165D01*
X138103306Y-70791694D01*
X138166694Y-70728306D01*
X138176165Y-70720533D01*
X138186970Y-70714758D01*
X138198695Y-70711201D01*
X138210888Y-70710000D01*
X138272500Y-70710000D01*
X138284693Y-70711201D01*
G37*
G36*
X137959693Y-70386201D02*
G01*
X137971418Y-70389758D01*
X137982223Y-70395533D01*
X137991694Y-70403306D01*
X137999467Y-70412777D01*
X138005242Y-70423582D01*
X138008799Y-70435307D01*
X138010000Y-70447500D01*
X138010000Y-70509112D01*
X138008799Y-70521305D01*
X138005242Y-70533030D01*
X137999467Y-70543835D01*
X137991694Y-70553306D01*
X137928306Y-70616694D01*
X137918835Y-70624467D01*
X137908030Y-70630242D01*
X137896305Y-70633799D01*
X137884112Y-70635000D01*
X137272500Y-70635000D01*
X137260307Y-70633799D01*
X137248582Y-70630242D01*
X137237777Y-70624467D01*
X137228306Y-70616694D01*
X137220533Y-70607223D01*
X137214758Y-70596418D01*
X137211201Y-70584693D01*
X137210000Y-70572500D01*
X137210000Y-70447500D01*
X137211201Y-70435307D01*
X137214758Y-70423582D01*
X137220533Y-70412777D01*
X137228306Y-70403306D01*
X137237777Y-70395533D01*
X137248582Y-70389758D01*
X137260307Y-70386201D01*
X137272500Y-70385000D01*
X137947500Y-70385000D01*
X137959693Y-70386201D01*
G37*
G36*
G01*
X137210000Y-70122500D02*
X137210000Y-69997500D01*
G75*
G02*
X137272500Y-69935000I62500J0D01*
G01*
X137947500Y-69935000D01*
G75*
G02*
X138010000Y-69997500I0J-62500D01*
G01*
X138010000Y-70122500D01*
G75*
G02*
X137947500Y-70185000I-62500J0D01*
G01*
X137272500Y-70185000D01*
G75*
G02*
X137210000Y-70122500I0J62500D01*
G01*
G37*
G36*
G01*
X137210000Y-69672500D02*
X137210000Y-69547500D01*
G75*
G02*
X137272500Y-69485000I62500J0D01*
G01*
X137947500Y-69485000D01*
G75*
G02*
X138010000Y-69547500I0J-62500D01*
G01*
X138010000Y-69672500D01*
G75*
G02*
X137947500Y-69735000I-62500J0D01*
G01*
X137272500Y-69735000D01*
G75*
G02*
X137210000Y-69672500I0J62500D01*
G01*
G37*
G36*
G01*
X137210000Y-69222500D02*
X137210000Y-69097500D01*
G75*
G02*
X137272500Y-69035000I62500J0D01*
G01*
X137947500Y-69035000D01*
G75*
G02*
X138010000Y-69097500I0J-62500D01*
G01*
X138010000Y-69222500D01*
G75*
G02*
X137947500Y-69285000I-62500J0D01*
G01*
X137272500Y-69285000D01*
G75*
G02*
X137210000Y-69222500I0J62500D01*
G01*
G37*
G36*
G01*
X137210000Y-68772500D02*
X137210000Y-68647500D01*
G75*
G02*
X137272500Y-68585000I62500J0D01*
G01*
X137947500Y-68585000D01*
G75*
G02*
X138010000Y-68647500I0J-62500D01*
G01*
X138010000Y-68772500D01*
G75*
G02*
X137947500Y-68835000I-62500J0D01*
G01*
X137272500Y-68835000D01*
G75*
G02*
X137210000Y-68772500I0J62500D01*
G01*
G37*
G36*
G01*
X137210000Y-68322500D02*
X137210000Y-68197500D01*
G75*
G02*
X137272500Y-68135000I62500J0D01*
G01*
X137947500Y-68135000D01*
G75*
G02*
X138010000Y-68197500I0J-62500D01*
G01*
X138010000Y-68322500D01*
G75*
G02*
X137947500Y-68385000I-62500J0D01*
G01*
X137272500Y-68385000D01*
G75*
G02*
X137210000Y-68322500I0J62500D01*
G01*
G37*
G36*
X137896305Y-67686201D02*
G01*
X137908030Y-67689758D01*
X137918835Y-67695533D01*
X137928306Y-67703306D01*
X137991694Y-67766694D01*
X137999467Y-67776165D01*
X138005242Y-67786970D01*
X138008799Y-67798695D01*
X138010000Y-67810888D01*
X138010000Y-67872500D01*
X138008799Y-67884693D01*
X138005242Y-67896418D01*
X137999467Y-67907223D01*
X137991694Y-67916694D01*
X137982223Y-67924467D01*
X137971418Y-67930242D01*
X137959693Y-67933799D01*
X137947500Y-67935000D01*
X137272500Y-67935000D01*
X137260307Y-67933799D01*
X137248582Y-67930242D01*
X137237777Y-67924467D01*
X137228306Y-67916694D01*
X137220533Y-67907223D01*
X137214758Y-67896418D01*
X137211201Y-67884693D01*
X137210000Y-67872500D01*
X137210000Y-67747500D01*
X137211201Y-67735307D01*
X137214758Y-67723582D01*
X137220533Y-67712777D01*
X137228306Y-67703306D01*
X137237777Y-67695533D01*
X137248582Y-67689758D01*
X137260307Y-67686201D01*
X137272500Y-67685000D01*
X137884112Y-67685000D01*
X137896305Y-67686201D01*
G37*
%TD*%
%TO.C,IC4*%
G36*
G01*
X100830000Y-83145000D02*
X100830000Y-81615000D01*
G75*
G02*
X100930000Y-81515000I100000J0D01*
G01*
X101130000Y-81515000D01*
G75*
G02*
X101230000Y-81615000I0J-100000D01*
G01*
X101230000Y-83145000D01*
G75*
G02*
X101130000Y-83245000I-100000J0D01*
G01*
X100930000Y-83245000D01*
G75*
G02*
X100830000Y-83145000I0J100000D01*
G01*
G37*
G36*
G01*
X101380000Y-83045000D02*
X101380000Y-81945000D01*
G75*
G02*
X101580000Y-81745000I200000J0D01*
G01*
X101980000Y-81745000D01*
G75*
G02*
X102180000Y-81945000I0J-200000D01*
G01*
X102180000Y-83045000D01*
G75*
G02*
X101980000Y-83245000I-200000J0D01*
G01*
X101580000Y-83245000D01*
G75*
G02*
X101380000Y-83045000I0J200000D01*
G01*
G37*
G36*
G01*
X102105000Y-83695000D02*
X101655000Y-83695000D01*
G75*
G02*
X101580000Y-83620000I0J75000D01*
G01*
X101580000Y-83470000D01*
G75*
G02*
X101655000Y-83395000I75000J0D01*
G01*
X102105000Y-83395000D01*
G75*
G02*
X102180000Y-83470000I0J-75000D01*
G01*
X102180000Y-83620000D01*
G75*
G02*
X102105000Y-83695000I-75000J0D01*
G01*
G37*
G36*
G01*
X102105000Y-84145000D02*
X101655000Y-84145000D01*
G75*
G02*
X101580000Y-84070000I0J75000D01*
G01*
X101580000Y-83920000D01*
G75*
G02*
X101655000Y-83845000I75000J0D01*
G01*
X102105000Y-83845000D01*
G75*
G02*
X102180000Y-83920000I0J-75000D01*
G01*
X102180000Y-84070000D01*
G75*
G02*
X102105000Y-84145000I-75000J0D01*
G01*
G37*
G36*
G01*
X102105000Y-84595000D02*
X101655000Y-84595000D01*
G75*
G02*
X101580000Y-84520000I0J75000D01*
G01*
X101580000Y-84370000D01*
G75*
G02*
X101655000Y-84295000I75000J0D01*
G01*
X102105000Y-84295000D01*
G75*
G02*
X102180000Y-84370000I0J-75000D01*
G01*
X102180000Y-84520000D01*
G75*
G02*
X102105000Y-84595000I-75000J0D01*
G01*
G37*
G36*
G01*
X100405000Y-84595000D02*
X99955000Y-84595000D01*
G75*
G02*
X99880000Y-84520000I0J75000D01*
G01*
X99880000Y-84370000D01*
G75*
G02*
X99955000Y-84295000I75000J0D01*
G01*
X100405000Y-84295000D01*
G75*
G02*
X100480000Y-84370000I0J-75000D01*
G01*
X100480000Y-84520000D01*
G75*
G02*
X100405000Y-84595000I-75000J0D01*
G01*
G37*
G36*
G01*
X100405000Y-84145000D02*
X99955000Y-84145000D01*
G75*
G02*
X99880000Y-84070000I0J75000D01*
G01*
X99880000Y-83920000D01*
G75*
G02*
X99955000Y-83845000I75000J0D01*
G01*
X100405000Y-83845000D01*
G75*
G02*
X100480000Y-83920000I0J-75000D01*
G01*
X100480000Y-84070000D01*
G75*
G02*
X100405000Y-84145000I-75000J0D01*
G01*
G37*
G36*
G01*
X100405000Y-83695000D02*
X99955000Y-83695000D01*
G75*
G02*
X99880000Y-83620000I0J75000D01*
G01*
X99880000Y-83470000D01*
G75*
G02*
X99955000Y-83395000I75000J0D01*
G01*
X100405000Y-83395000D01*
G75*
G02*
X100480000Y-83470000I0J-75000D01*
G01*
X100480000Y-83620000D01*
G75*
G02*
X100405000Y-83695000I-75000J0D01*
G01*
G37*
G36*
G01*
X99880000Y-83045000D02*
X99880000Y-81945000D01*
G75*
G02*
X100080000Y-81745000I200000J0D01*
G01*
X100480000Y-81745000D01*
G75*
G02*
X100680000Y-81945000I0J-200000D01*
G01*
X100680000Y-83045000D01*
G75*
G02*
X100480000Y-83245000I-200000J0D01*
G01*
X100080000Y-83245000D01*
G75*
G02*
X99880000Y-83045000I0J200000D01*
G01*
G37*
%TD*%
%TO.C,IC2*%
G36*
G01*
X163175000Y-59227000D02*
X163175000Y-60477000D01*
G75*
G02*
X163062500Y-60589500I-112500J0D01*
G01*
X162837500Y-60589500D01*
G75*
G02*
X162725000Y-60477000I0J112500D01*
G01*
X162725000Y-59227000D01*
G75*
G02*
X162837500Y-59114500I112500J0D01*
G01*
X163062500Y-59114500D01*
G75*
G02*
X163175000Y-59227000I0J-112500D01*
G01*
G37*
G36*
G01*
X163825000Y-59227000D02*
X163825000Y-60477000D01*
G75*
G02*
X163712500Y-60589500I-112500J0D01*
G01*
X163487500Y-60589500D01*
G75*
G02*
X163375000Y-60477000I0J112500D01*
G01*
X163375000Y-59227000D01*
G75*
G02*
X163487500Y-59114500I112500J0D01*
G01*
X163712500Y-59114500D01*
G75*
G02*
X163825000Y-59227000I0J-112500D01*
G01*
G37*
G36*
G01*
X164475000Y-59227000D02*
X164475000Y-60477000D01*
G75*
G02*
X164362500Y-60589500I-112500J0D01*
G01*
X164137500Y-60589500D01*
G75*
G02*
X164025000Y-60477000I0J112500D01*
G01*
X164025000Y-59227000D01*
G75*
G02*
X164137500Y-59114500I112500J0D01*
G01*
X164362500Y-59114500D01*
G75*
G02*
X164475000Y-59227000I0J-112500D01*
G01*
G37*
G36*
G01*
X165125000Y-59227000D02*
X165125000Y-60477000D01*
G75*
G02*
X165012500Y-60589500I-112500J0D01*
G01*
X164787500Y-60589500D01*
G75*
G02*
X164675000Y-60477000I0J112500D01*
G01*
X164675000Y-59227000D01*
G75*
G02*
X164787500Y-59114500I112500J0D01*
G01*
X165012500Y-59114500D01*
G75*
G02*
X165125000Y-59227000I0J-112500D01*
G01*
G37*
G36*
G01*
X165775000Y-59227000D02*
X165775000Y-60477000D01*
G75*
G02*
X165662500Y-60589500I-112500J0D01*
G01*
X165437500Y-60589500D01*
G75*
G02*
X165325000Y-60477000I0J112500D01*
G01*
X165325000Y-59227000D01*
G75*
G02*
X165437500Y-59114500I112500J0D01*
G01*
X165662500Y-59114500D01*
G75*
G02*
X165775000Y-59227000I0J-112500D01*
G01*
G37*
G36*
G01*
X166425000Y-59227000D02*
X166425000Y-60477000D01*
G75*
G02*
X166312500Y-60589500I-112500J0D01*
G01*
X166087500Y-60589500D01*
G75*
G02*
X165975000Y-60477000I0J112500D01*
G01*
X165975000Y-59227000D01*
G75*
G02*
X166087500Y-59114500I112500J0D01*
G01*
X166312500Y-59114500D01*
G75*
G02*
X166425000Y-59227000I0J-112500D01*
G01*
G37*
G36*
G01*
X167075000Y-59227000D02*
X167075000Y-60477000D01*
G75*
G02*
X166962500Y-60589500I-112500J0D01*
G01*
X166737500Y-60589500D01*
G75*
G02*
X166625000Y-60477000I0J112500D01*
G01*
X166625000Y-59227000D01*
G75*
G02*
X166737500Y-59114500I112500J0D01*
G01*
X166962500Y-59114500D01*
G75*
G02*
X167075000Y-59227000I0J-112500D01*
G01*
G37*
G36*
G01*
X167075000Y-65103000D02*
X167075000Y-66353000D01*
G75*
G02*
X166962500Y-66465500I-112500J0D01*
G01*
X166737500Y-66465500D01*
G75*
G02*
X166625000Y-66353000I0J112500D01*
G01*
X166625000Y-65103000D01*
G75*
G02*
X166737500Y-64990500I112500J0D01*
G01*
X166962500Y-64990500D01*
G75*
G02*
X167075000Y-65103000I0J-112500D01*
G01*
G37*
G36*
G01*
X166425000Y-65103000D02*
X166425000Y-66353000D01*
G75*
G02*
X166312500Y-66465500I-112500J0D01*
G01*
X166087500Y-66465500D01*
G75*
G02*
X165975000Y-66353000I0J112500D01*
G01*
X165975000Y-65103000D01*
G75*
G02*
X166087500Y-64990500I112500J0D01*
G01*
X166312500Y-64990500D01*
G75*
G02*
X166425000Y-65103000I0J-112500D01*
G01*
G37*
G36*
G01*
X165775000Y-65103000D02*
X165775000Y-66353000D01*
G75*
G02*
X165662500Y-66465500I-112500J0D01*
G01*
X165437500Y-66465500D01*
G75*
G02*
X165325000Y-66353000I0J112500D01*
G01*
X165325000Y-65103000D01*
G75*
G02*
X165437500Y-64990500I112500J0D01*
G01*
X165662500Y-64990500D01*
G75*
G02*
X165775000Y-65103000I0J-112500D01*
G01*
G37*
G36*
G01*
X165125000Y-65103000D02*
X165125000Y-66353000D01*
G75*
G02*
X165012500Y-66465500I-112500J0D01*
G01*
X164787500Y-66465500D01*
G75*
G02*
X164675000Y-66353000I0J112500D01*
G01*
X164675000Y-65103000D01*
G75*
G02*
X164787500Y-64990500I112500J0D01*
G01*
X165012500Y-64990500D01*
G75*
G02*
X165125000Y-65103000I0J-112500D01*
G01*
G37*
G36*
G01*
X164475000Y-65103000D02*
X164475000Y-66353000D01*
G75*
G02*
X164362500Y-66465500I-112500J0D01*
G01*
X164137500Y-66465500D01*
G75*
G02*
X164025000Y-66353000I0J112500D01*
G01*
X164025000Y-65103000D01*
G75*
G02*
X164137500Y-64990500I112500J0D01*
G01*
X164362500Y-64990500D01*
G75*
G02*
X164475000Y-65103000I0J-112500D01*
G01*
G37*
G36*
G01*
X163825000Y-65103000D02*
X163825000Y-66353000D01*
G75*
G02*
X163712500Y-66465500I-112500J0D01*
G01*
X163487500Y-66465500D01*
G75*
G02*
X163375000Y-66353000I0J112500D01*
G01*
X163375000Y-65103000D01*
G75*
G02*
X163487500Y-64990500I112500J0D01*
G01*
X163712500Y-64990500D01*
G75*
G02*
X163825000Y-65103000I0J-112500D01*
G01*
G37*
G36*
G01*
X163175000Y-65103000D02*
X163175000Y-66353000D01*
G75*
G02*
X163062500Y-66465500I-112500J0D01*
G01*
X162837500Y-66465500D01*
G75*
G02*
X162725000Y-66353000I0J112500D01*
G01*
X162725000Y-65103000D01*
G75*
G02*
X162837500Y-64990500I112500J0D01*
G01*
X163062500Y-64990500D01*
G75*
G02*
X163175000Y-65103000I0J-112500D01*
G01*
G37*
%TD*%
D11*
%TO.C,Y1*%
X133755000Y-69770000D03*
X133755000Y-72070000D03*
X131855000Y-72070000D03*
X131855000Y-69770000D03*
%TD*%
%TO.C,R12*%
G36*
G01*
X97402500Y-85156250D02*
X97402500Y-84643750D01*
G75*
G02*
X97621250Y-84425000I218750J0D01*
G01*
X98058750Y-84425000D01*
G75*
G02*
X98277500Y-84643750I0J-218750D01*
G01*
X98277500Y-85156250D01*
G75*
G02*
X98058750Y-85375000I-218750J0D01*
G01*
X97621250Y-85375000D01*
G75*
G02*
X97402500Y-85156250I0J218750D01*
G01*
G37*
G36*
G01*
X95827500Y-85156250D02*
X95827500Y-84643750D01*
G75*
G02*
X96046250Y-84425000I218750J0D01*
G01*
X96483750Y-84425000D01*
G75*
G02*
X96702500Y-84643750I0J-218750D01*
G01*
X96702500Y-85156250D01*
G75*
G02*
X96483750Y-85375000I-218750J0D01*
G01*
X96046250Y-85375000D01*
G75*
G02*
X95827500Y-85156250I0J218750D01*
G01*
G37*
%TD*%
%TO.C,R11*%
G36*
G01*
X97583750Y-82950000D02*
X98096250Y-82950000D01*
G75*
G02*
X98315000Y-83168750I0J-218750D01*
G01*
X98315000Y-83606250D01*
G75*
G02*
X98096250Y-83825000I-218750J0D01*
G01*
X97583750Y-83825000D01*
G75*
G02*
X97365000Y-83606250I0J218750D01*
G01*
X97365000Y-83168750D01*
G75*
G02*
X97583750Y-82950000I218750J0D01*
G01*
G37*
G36*
G01*
X97583750Y-81375000D02*
X98096250Y-81375000D01*
G75*
G02*
X98315000Y-81593750I0J-218750D01*
G01*
X98315000Y-82031250D01*
G75*
G02*
X98096250Y-82250000I-218750J0D01*
G01*
X97583750Y-82250000D01*
G75*
G02*
X97365000Y-82031250I0J218750D01*
G01*
X97365000Y-81593750D01*
G75*
G02*
X97583750Y-81375000I218750J0D01*
G01*
G37*
%TD*%
%TO.C,R10*%
G36*
G01*
X128549750Y-53339500D02*
X129062250Y-53339500D01*
G75*
G02*
X129281000Y-53558250I0J-218750D01*
G01*
X129281000Y-53995750D01*
G75*
G02*
X129062250Y-54214500I-218750J0D01*
G01*
X128549750Y-54214500D01*
G75*
G02*
X128331000Y-53995750I0J218750D01*
G01*
X128331000Y-53558250D01*
G75*
G02*
X128549750Y-53339500I218750J0D01*
G01*
G37*
G36*
G01*
X128549750Y-51764500D02*
X129062250Y-51764500D01*
G75*
G02*
X129281000Y-51983250I0J-218750D01*
G01*
X129281000Y-52420750D01*
G75*
G02*
X129062250Y-52639500I-218750J0D01*
G01*
X128549750Y-52639500D01*
G75*
G02*
X128331000Y-52420750I0J218750D01*
G01*
X128331000Y-51983250D01*
G75*
G02*
X128549750Y-51764500I218750J0D01*
G01*
G37*
%TD*%
%TO.C,R9*%
G36*
G01*
X102025950Y-53477300D02*
X102538450Y-53477300D01*
G75*
G02*
X102757200Y-53696050I0J-218750D01*
G01*
X102757200Y-54133550D01*
G75*
G02*
X102538450Y-54352300I-218750J0D01*
G01*
X102025950Y-54352300D01*
G75*
G02*
X101807200Y-54133550I0J218750D01*
G01*
X101807200Y-53696050D01*
G75*
G02*
X102025950Y-53477300I218750J0D01*
G01*
G37*
G36*
G01*
X102025950Y-51902300D02*
X102538450Y-51902300D01*
G75*
G02*
X102757200Y-52121050I0J-218750D01*
G01*
X102757200Y-52558550D01*
G75*
G02*
X102538450Y-52777300I-218750J0D01*
G01*
X102025950Y-52777300D01*
G75*
G02*
X101807200Y-52558550I0J218750D01*
G01*
X101807200Y-52121050D01*
G75*
G02*
X102025950Y-51902300I218750J0D01*
G01*
G37*
%TD*%
%TO.C,R8*%
G36*
G01*
X104113250Y-52777100D02*
X103600750Y-52777100D01*
G75*
G02*
X103382000Y-52558350I0J218750D01*
G01*
X103382000Y-52120850D01*
G75*
G02*
X103600750Y-51902100I218750J0D01*
G01*
X104113250Y-51902100D01*
G75*
G02*
X104332000Y-52120850I0J-218750D01*
G01*
X104332000Y-52558350D01*
G75*
G02*
X104113250Y-52777100I-218750J0D01*
G01*
G37*
G36*
G01*
X104113250Y-54352100D02*
X103600750Y-54352100D01*
G75*
G02*
X103382000Y-54133350I0J218750D01*
G01*
X103382000Y-53695850D01*
G75*
G02*
X103600750Y-53477100I218750J0D01*
G01*
X104113250Y-53477100D01*
G75*
G02*
X104332000Y-53695850I0J-218750D01*
G01*
X104332000Y-54133350D01*
G75*
G02*
X104113250Y-54352100I-218750J0D01*
G01*
G37*
%TD*%
%TO.C,R7*%
G36*
G01*
X141747500Y-58906250D02*
X141747500Y-58393750D01*
G75*
G02*
X141966250Y-58175000I218750J0D01*
G01*
X142403750Y-58175000D01*
G75*
G02*
X142622500Y-58393750I0J-218750D01*
G01*
X142622500Y-58906250D01*
G75*
G02*
X142403750Y-59125000I-218750J0D01*
G01*
X141966250Y-59125000D01*
G75*
G02*
X141747500Y-58906250I0J218750D01*
G01*
G37*
G36*
G01*
X140172500Y-58906250D02*
X140172500Y-58393750D01*
G75*
G02*
X140391250Y-58175000I218750J0D01*
G01*
X140828750Y-58175000D01*
G75*
G02*
X141047500Y-58393750I0J-218750D01*
G01*
X141047500Y-58906250D01*
G75*
G02*
X140828750Y-59125000I-218750J0D01*
G01*
X140391250Y-59125000D01*
G75*
G02*
X140172500Y-58906250I0J218750D01*
G01*
G37*
%TD*%
%TO.C,R6*%
G36*
G01*
X141732500Y-60556250D02*
X141732500Y-60043750D01*
G75*
G02*
X141951250Y-59825000I218750J0D01*
G01*
X142388750Y-59825000D01*
G75*
G02*
X142607500Y-60043750I0J-218750D01*
G01*
X142607500Y-60556250D01*
G75*
G02*
X142388750Y-60775000I-218750J0D01*
G01*
X141951250Y-60775000D01*
G75*
G02*
X141732500Y-60556250I0J218750D01*
G01*
G37*
G36*
G01*
X140157500Y-60556250D02*
X140157500Y-60043750D01*
G75*
G02*
X140376250Y-59825000I218750J0D01*
G01*
X140813750Y-59825000D01*
G75*
G02*
X141032500Y-60043750I0J-218750D01*
G01*
X141032500Y-60556250D01*
G75*
G02*
X140813750Y-60775000I-218750J0D01*
G01*
X140376250Y-60775000D01*
G75*
G02*
X140157500Y-60556250I0J218750D01*
G01*
G37*
%TD*%
%TO.C,R5*%
G36*
G01*
X132832500Y-52366250D02*
X132832500Y-51853750D01*
G75*
G02*
X133051250Y-51635000I218750J0D01*
G01*
X133488750Y-51635000D01*
G75*
G02*
X133707500Y-51853750I0J-218750D01*
G01*
X133707500Y-52366250D01*
G75*
G02*
X133488750Y-52585000I-218750J0D01*
G01*
X133051250Y-52585000D01*
G75*
G02*
X132832500Y-52366250I0J218750D01*
G01*
G37*
G36*
G01*
X131257500Y-52366250D02*
X131257500Y-51853750D01*
G75*
G02*
X131476250Y-51635000I218750J0D01*
G01*
X131913750Y-51635000D01*
G75*
G02*
X132132500Y-51853750I0J-218750D01*
G01*
X132132500Y-52366250D01*
G75*
G02*
X131913750Y-52585000I-218750J0D01*
G01*
X131476250Y-52585000D01*
G75*
G02*
X131257500Y-52366250I0J218750D01*
G01*
G37*
%TD*%
%TO.C,R4*%
G36*
G01*
X131961250Y-55550000D02*
X131448750Y-55550000D01*
G75*
G02*
X131230000Y-55331250I0J218750D01*
G01*
X131230000Y-54893750D01*
G75*
G02*
X131448750Y-54675000I218750J0D01*
G01*
X131961250Y-54675000D01*
G75*
G02*
X132180000Y-54893750I0J-218750D01*
G01*
X132180000Y-55331250D01*
G75*
G02*
X131961250Y-55550000I-218750J0D01*
G01*
G37*
G36*
G01*
X131961250Y-57125000D02*
X131448750Y-57125000D01*
G75*
G02*
X131230000Y-56906250I0J218750D01*
G01*
X131230000Y-56468750D01*
G75*
G02*
X131448750Y-56250000I218750J0D01*
G01*
X131961250Y-56250000D01*
G75*
G02*
X132180000Y-56468750I0J-218750D01*
G01*
X132180000Y-56906250D01*
G75*
G02*
X131961250Y-57125000I-218750J0D01*
G01*
G37*
%TD*%
%TO.C,R3*%
G36*
G01*
X141060000Y-56783750D02*
X141060000Y-57296250D01*
G75*
G02*
X140841250Y-57515000I-218750J0D01*
G01*
X140403750Y-57515000D01*
G75*
G02*
X140185000Y-57296250I0J218750D01*
G01*
X140185000Y-56783750D01*
G75*
G02*
X140403750Y-56565000I218750J0D01*
G01*
X140841250Y-56565000D01*
G75*
G02*
X141060000Y-56783750I0J-218750D01*
G01*
G37*
G36*
G01*
X142635000Y-56783750D02*
X142635000Y-57296250D01*
G75*
G02*
X142416250Y-57515000I-218750J0D01*
G01*
X141978750Y-57515000D01*
G75*
G02*
X141760000Y-57296250I0J218750D01*
G01*
X141760000Y-56783750D01*
G75*
G02*
X141978750Y-56565000I218750J0D01*
G01*
X142416250Y-56565000D01*
G75*
G02*
X142635000Y-56783750I0J-218750D01*
G01*
G37*
%TD*%
%TO.C,R2*%
G36*
G01*
X132852500Y-53403750D02*
X132852500Y-53916250D01*
G75*
G02*
X132633750Y-54135000I-218750J0D01*
G01*
X132196250Y-54135000D01*
G75*
G02*
X131977500Y-53916250I0J218750D01*
G01*
X131977500Y-53403750D01*
G75*
G02*
X132196250Y-53185000I218750J0D01*
G01*
X132633750Y-53185000D01*
G75*
G02*
X132852500Y-53403750I0J-218750D01*
G01*
G37*
G36*
G01*
X134427500Y-53403750D02*
X134427500Y-53916250D01*
G75*
G02*
X134208750Y-54135000I-218750J0D01*
G01*
X133771250Y-54135000D01*
G75*
G02*
X133552500Y-53916250I0J218750D01*
G01*
X133552500Y-53403750D01*
G75*
G02*
X133771250Y-53185000I218750J0D01*
G01*
X134208750Y-53185000D01*
G75*
G02*
X134427500Y-53403750I0J-218750D01*
G01*
G37*
%TD*%
%TO.C,R1*%
G36*
G01*
X121536250Y-75090000D02*
X121023750Y-75090000D01*
G75*
G02*
X120805000Y-74871250I0J218750D01*
G01*
X120805000Y-74433750D01*
G75*
G02*
X121023750Y-74215000I218750J0D01*
G01*
X121536250Y-74215000D01*
G75*
G02*
X121755000Y-74433750I0J-218750D01*
G01*
X121755000Y-74871250D01*
G75*
G02*
X121536250Y-75090000I-218750J0D01*
G01*
G37*
G36*
G01*
X121536250Y-76665000D02*
X121023750Y-76665000D01*
G75*
G02*
X120805000Y-76446250I0J218750D01*
G01*
X120805000Y-76008750D01*
G75*
G02*
X121023750Y-75790000I218750J0D01*
G01*
X121536250Y-75790000D01*
G75*
G02*
X121755000Y-76008750I0J-218750D01*
G01*
X121755000Y-76446250D01*
G75*
G02*
X121536250Y-76665000I-218750J0D01*
G01*
G37*
%TD*%
%TO.C,L1*%
G36*
G01*
X105302500Y-83656250D02*
X105302500Y-83143750D01*
G75*
G02*
X105521250Y-82925000I218750J0D01*
G01*
X105958750Y-82925000D01*
G75*
G02*
X106177500Y-83143750I0J-218750D01*
G01*
X106177500Y-83656250D01*
G75*
G02*
X105958750Y-83875000I-218750J0D01*
G01*
X105521250Y-83875000D01*
G75*
G02*
X105302500Y-83656250I0J218750D01*
G01*
G37*
G36*
G01*
X103727500Y-83656250D02*
X103727500Y-83143750D01*
G75*
G02*
X103946250Y-82925000I218750J0D01*
G01*
X104383750Y-82925000D01*
G75*
G02*
X104602500Y-83143750I0J-218750D01*
G01*
X104602500Y-83656250D01*
G75*
G02*
X104383750Y-83875000I-218750J0D01*
G01*
X103946250Y-83875000D01*
G75*
G02*
X103727500Y-83656250I0J218750D01*
G01*
G37*
%TD*%
D12*
%TO.C,K1*%
X113540000Y-77770000D03*
X113540000Y-75230000D03*
X119140000Y-75230000D03*
X119140000Y-77770000D03*
%TD*%
D13*
%TO.C,J1*%
X136670000Y-44605000D03*
X139420000Y-44605000D03*
X141820000Y-44605000D03*
X144570000Y-44605000D03*
D14*
X139970000Y-47280000D03*
X140620000Y-47280000D03*
X141270000Y-47280000D03*
X139320000Y-47280000D03*
X141920000Y-47280000D03*
%TD*%
D15*
%TO.C,IC5*%
X103323600Y-67221200D03*
X101423600Y-67221200D03*
X101423600Y-64621200D03*
X102373600Y-64621200D03*
X103323600Y-64621200D03*
%TD*%
D16*
%TO.C,IC3*%
X119935000Y-50855000D03*
X119935000Y-52355000D03*
X119935000Y-53855000D03*
X119935000Y-55355000D03*
X119935000Y-56855000D03*
X119935000Y-58355000D03*
X119935000Y-59855000D03*
X119935000Y-61355000D03*
X119935000Y-62855000D03*
X119935000Y-64355000D03*
X119935000Y-65855000D03*
X119935000Y-67355000D03*
X119935000Y-68855000D03*
X118685000Y-70355000D03*
X117185000Y-70355000D03*
X115685000Y-70355000D03*
X114185000Y-70355000D03*
X112685000Y-70355000D03*
X111185000Y-70355000D03*
X109685000Y-70355000D03*
X108185000Y-70355000D03*
X106935000Y-68855000D03*
X106935000Y-67355000D03*
X106935000Y-65855000D03*
X106935000Y-64355000D03*
X106935000Y-62855000D03*
X106935000Y-61355000D03*
X106935000Y-59855000D03*
X106935000Y-58355000D03*
X106935000Y-56855000D03*
X106935000Y-55355000D03*
X106935000Y-53855000D03*
X106935000Y-52355000D03*
X106935000Y-50855000D03*
%TD*%
D17*
%TO.C,IC1*%
X135180400Y-57942980D03*
D18*
X137130400Y-56692980D03*
X137130400Y-57192980D03*
X137130400Y-57692980D03*
X137130400Y-58192980D03*
X137130400Y-58692980D03*
X137130400Y-59192980D03*
D19*
X136430400Y-59892980D03*
X135930400Y-59892980D03*
X135430400Y-59892980D03*
X134930400Y-59892980D03*
X134430400Y-59892980D03*
X133930400Y-59892980D03*
D18*
X133230400Y-59192980D03*
X133230400Y-58692980D03*
X133230400Y-58192980D03*
X133230400Y-57692980D03*
X133230400Y-57192980D03*
X133230400Y-56692980D03*
D19*
X133930400Y-55992980D03*
X134430400Y-55992980D03*
X134930400Y-55992980D03*
X135430400Y-55992980D03*
X135930400Y-55992980D03*
X136430400Y-55992980D03*
%TD*%
%TO.C,RX*%
G36*
G01*
X144872500Y-58906250D02*
X144872500Y-58393750D01*
G75*
G02*
X145091250Y-58175000I218750J0D01*
G01*
X145528750Y-58175000D01*
G75*
G02*
X145747500Y-58393750I0J-218750D01*
G01*
X145747500Y-58906250D01*
G75*
G02*
X145528750Y-59125000I-218750J0D01*
G01*
X145091250Y-59125000D01*
G75*
G02*
X144872500Y-58906250I0J218750D01*
G01*
G37*
G36*
G01*
X143297500Y-58906250D02*
X143297500Y-58393750D01*
G75*
G02*
X143516250Y-58175000I218750J0D01*
G01*
X143953750Y-58175000D01*
G75*
G02*
X144172500Y-58393750I0J-218750D01*
G01*
X144172500Y-58906250D01*
G75*
G02*
X143953750Y-59125000I-218750J0D01*
G01*
X143516250Y-59125000D01*
G75*
G02*
X143297500Y-58906250I0J218750D01*
G01*
G37*
%TD*%
%TO.C,TX*%
G36*
G01*
X144857500Y-60556250D02*
X144857500Y-60043750D01*
G75*
G02*
X145076250Y-59825000I218750J0D01*
G01*
X145513750Y-59825000D01*
G75*
G02*
X145732500Y-60043750I0J-218750D01*
G01*
X145732500Y-60556250D01*
G75*
G02*
X145513750Y-60775000I-218750J0D01*
G01*
X145076250Y-60775000D01*
G75*
G02*
X144857500Y-60556250I0J218750D01*
G01*
G37*
G36*
G01*
X143282500Y-60556250D02*
X143282500Y-60043750D01*
G75*
G02*
X143501250Y-59825000I218750J0D01*
G01*
X143938750Y-59825000D01*
G75*
G02*
X144157500Y-60043750I0J-218750D01*
G01*
X144157500Y-60556250D01*
G75*
G02*
X143938750Y-60775000I-218750J0D01*
G01*
X143501250Y-60775000D01*
G75*
G02*
X143282500Y-60556250I0J218750D01*
G01*
G37*
%TD*%
%TO.C,DTR*%
G36*
G01*
X144877500Y-57296250D02*
X144877500Y-56783750D01*
G75*
G02*
X145096250Y-56565000I218750J0D01*
G01*
X145533750Y-56565000D01*
G75*
G02*
X145752500Y-56783750I0J-218750D01*
G01*
X145752500Y-57296250D01*
G75*
G02*
X145533750Y-57515000I-218750J0D01*
G01*
X145096250Y-57515000D01*
G75*
G02*
X144877500Y-57296250I0J218750D01*
G01*
G37*
G36*
G01*
X143302500Y-57296250D02*
X143302500Y-56783750D01*
G75*
G02*
X143521250Y-56565000I218750J0D01*
G01*
X143958750Y-56565000D01*
G75*
G02*
X144177500Y-56783750I0J-218750D01*
G01*
X144177500Y-57296250D01*
G75*
G02*
X143958750Y-57515000I-218750J0D01*
G01*
X143521250Y-57515000D01*
G75*
G02*
X143302500Y-57296250I0J218750D01*
G01*
G37*
%TD*%
D20*
%TO.C,D1*%
X139735000Y-54630000D03*
X139735000Y-52730000D03*
X141935000Y-52730000D03*
D21*
X141935000Y-54530000D03*
%TD*%
%TO.C,C14*%
G36*
G01*
X101554600Y-68721400D02*
X101554600Y-70871400D01*
G75*
G02*
X101304600Y-71121400I-250000J0D01*
G01*
X100554600Y-71121400D01*
G75*
G02*
X100304600Y-70871400I0J250000D01*
G01*
X100304600Y-68721400D01*
G75*
G02*
X100554600Y-68471400I250000J0D01*
G01*
X101304600Y-68471400D01*
G75*
G02*
X101554600Y-68721400I0J-250000D01*
G01*
G37*
G36*
G01*
X104354600Y-68721400D02*
X104354600Y-70871400D01*
G75*
G02*
X104104600Y-71121400I-250000J0D01*
G01*
X103354600Y-71121400D01*
G75*
G02*
X103104600Y-70871400I0J250000D01*
G01*
X103104600Y-68721400D01*
G75*
G02*
X103354600Y-68471400I250000J0D01*
G01*
X104104600Y-68471400D01*
G75*
G02*
X104354600Y-68721400I0J-250000D01*
G01*
G37*
%TD*%
%TO.C,C13*%
G36*
G01*
X101554600Y-60999800D02*
X101554600Y-63149800D01*
G75*
G02*
X101304600Y-63399800I-250000J0D01*
G01*
X100554600Y-63399800D01*
G75*
G02*
X100304600Y-63149800I0J250000D01*
G01*
X100304600Y-60999800D01*
G75*
G02*
X100554600Y-60749800I250000J0D01*
G01*
X101304600Y-60749800D01*
G75*
G02*
X101554600Y-60999800I0J-250000D01*
G01*
G37*
G36*
G01*
X104354600Y-60999800D02*
X104354600Y-63149800D01*
G75*
G02*
X104104600Y-63399800I-250000J0D01*
G01*
X103354600Y-63399800D01*
G75*
G02*
X103104600Y-63149800I0J250000D01*
G01*
X103104600Y-60999800D01*
G75*
G02*
X103354600Y-60749800I250000J0D01*
G01*
X104104600Y-60749800D01*
G75*
G02*
X104354600Y-60999800I0J-250000D01*
G01*
G37*
%TD*%
%TO.C,C12*%
G36*
G01*
X104965000Y-79725000D02*
X104965000Y-81875000D01*
G75*
G02*
X104715000Y-82125000I-250000J0D01*
G01*
X103965000Y-82125000D01*
G75*
G02*
X103715000Y-81875000I0J250000D01*
G01*
X103715000Y-79725000D01*
G75*
G02*
X103965000Y-79475000I250000J0D01*
G01*
X104715000Y-79475000D01*
G75*
G02*
X104965000Y-79725000I0J-250000D01*
G01*
G37*
G36*
G01*
X107765000Y-79725000D02*
X107765000Y-81875000D01*
G75*
G02*
X107515000Y-82125000I-250000J0D01*
G01*
X106765000Y-82125000D01*
G75*
G02*
X106515000Y-81875000I0J250000D01*
G01*
X106515000Y-79725000D01*
G75*
G02*
X106765000Y-79475000I250000J0D01*
G01*
X107515000Y-79475000D01*
G75*
G02*
X107765000Y-79725000I0J-250000D01*
G01*
G37*
%TD*%
%TO.C,C11*%
G36*
G01*
X104965000Y-76425000D02*
X104965000Y-78575000D01*
G75*
G02*
X104715000Y-78825000I-250000J0D01*
G01*
X103965000Y-78825000D01*
G75*
G02*
X103715000Y-78575000I0J250000D01*
G01*
X103715000Y-76425000D01*
G75*
G02*
X103965000Y-76175000I250000J0D01*
G01*
X104715000Y-76175000D01*
G75*
G02*
X104965000Y-76425000I0J-250000D01*
G01*
G37*
G36*
G01*
X107765000Y-76425000D02*
X107765000Y-78575000D01*
G75*
G02*
X107515000Y-78825000I-250000J0D01*
G01*
X106765000Y-78825000D01*
G75*
G02*
X106515000Y-78575000I0J250000D01*
G01*
X106515000Y-76425000D01*
G75*
G02*
X106765000Y-76175000I250000J0D01*
G01*
X107515000Y-76175000D01*
G75*
G02*
X107765000Y-76425000I0J-250000D01*
G01*
G37*
%TD*%
%TO.C,C10*%
G36*
G01*
X95983750Y-82937500D02*
X96496250Y-82937500D01*
G75*
G02*
X96715000Y-83156250I0J-218750D01*
G01*
X96715000Y-83593750D01*
G75*
G02*
X96496250Y-83812500I-218750J0D01*
G01*
X95983750Y-83812500D01*
G75*
G02*
X95765000Y-83593750I0J218750D01*
G01*
X95765000Y-83156250D01*
G75*
G02*
X95983750Y-82937500I218750J0D01*
G01*
G37*
G36*
G01*
X95983750Y-81362500D02*
X96496250Y-81362500D01*
G75*
G02*
X96715000Y-81581250I0J-218750D01*
G01*
X96715000Y-82018750D01*
G75*
G02*
X96496250Y-82237500I-218750J0D01*
G01*
X95983750Y-82237500D01*
G75*
G02*
X95765000Y-82018750I0J218750D01*
G01*
X95765000Y-81581250D01*
G75*
G02*
X95983750Y-81362500I218750J0D01*
G01*
G37*
%TD*%
%TO.C,C9*%
G36*
G01*
X105076700Y-85245050D02*
X105076700Y-84732550D01*
G75*
G02*
X105295450Y-84513800I218750J0D01*
G01*
X105732950Y-84513800D01*
G75*
G02*
X105951700Y-84732550I0J-218750D01*
G01*
X105951700Y-85245050D01*
G75*
G02*
X105732950Y-85463800I-218750J0D01*
G01*
X105295450Y-85463800D01*
G75*
G02*
X105076700Y-85245050I0J218750D01*
G01*
G37*
G36*
G01*
X103501700Y-85245050D02*
X103501700Y-84732550D01*
G75*
G02*
X103720450Y-84513800I218750J0D01*
G01*
X104157950Y-84513800D01*
G75*
G02*
X104376700Y-84732550I0J-218750D01*
G01*
X104376700Y-85245050D01*
G75*
G02*
X104157950Y-85463800I-218750J0D01*
G01*
X103720450Y-85463800D01*
G75*
G02*
X103501700Y-85245050I0J218750D01*
G01*
G37*
%TD*%
%TO.C,C8*%
G36*
G01*
X101715000Y-79775000D02*
X101715000Y-77625000D01*
G75*
G02*
X101965000Y-77375000I250000J0D01*
G01*
X102715000Y-77375000D01*
G75*
G02*
X102965000Y-77625000I0J-250000D01*
G01*
X102965000Y-79775000D01*
G75*
G02*
X102715000Y-80025000I-250000J0D01*
G01*
X101965000Y-80025000D01*
G75*
G02*
X101715000Y-79775000I0J250000D01*
G01*
G37*
G36*
G01*
X98915000Y-79775000D02*
X98915000Y-77625000D01*
G75*
G02*
X99165000Y-77375000I250000J0D01*
G01*
X99915000Y-77375000D01*
G75*
G02*
X100165000Y-77625000I0J-250000D01*
G01*
X100165000Y-79775000D01*
G75*
G02*
X99915000Y-80025000I-250000J0D01*
G01*
X99165000Y-80025000D01*
G75*
G02*
X98915000Y-79775000I0J250000D01*
G01*
G37*
%TD*%
%TO.C,C7*%
G36*
G01*
X126969750Y-56472000D02*
X127482250Y-56472000D01*
G75*
G02*
X127701000Y-56690750I0J-218750D01*
G01*
X127701000Y-57128250D01*
G75*
G02*
X127482250Y-57347000I-218750J0D01*
G01*
X126969750Y-57347000D01*
G75*
G02*
X126751000Y-57128250I0J218750D01*
G01*
X126751000Y-56690750D01*
G75*
G02*
X126969750Y-56472000I218750J0D01*
G01*
G37*
G36*
G01*
X126969750Y-54897000D02*
X127482250Y-54897000D01*
G75*
G02*
X127701000Y-55115750I0J-218750D01*
G01*
X127701000Y-55553250D01*
G75*
G02*
X127482250Y-55772000I-218750J0D01*
G01*
X126969750Y-55772000D01*
G75*
G02*
X126751000Y-55553250I0J218750D01*
G01*
X126751000Y-55115750D01*
G75*
G02*
X126969750Y-54897000I218750J0D01*
G01*
G37*
%TD*%
%TO.C,C6*%
G36*
G01*
X128549750Y-56479500D02*
X129062250Y-56479500D01*
G75*
G02*
X129281000Y-56698250I0J-218750D01*
G01*
X129281000Y-57135750D01*
G75*
G02*
X129062250Y-57354500I-218750J0D01*
G01*
X128549750Y-57354500D01*
G75*
G02*
X128331000Y-57135750I0J218750D01*
G01*
X128331000Y-56698250D01*
G75*
G02*
X128549750Y-56479500I218750J0D01*
G01*
G37*
G36*
G01*
X128549750Y-54904500D02*
X129062250Y-54904500D01*
G75*
G02*
X129281000Y-55123250I0J-218750D01*
G01*
X129281000Y-55560750D01*
G75*
G02*
X129062250Y-55779500I-218750J0D01*
G01*
X128549750Y-55779500D01*
G75*
G02*
X128331000Y-55560750I0J218750D01*
G01*
X128331000Y-55123250D01*
G75*
G02*
X128549750Y-54904500I218750J0D01*
G01*
G37*
%TD*%
%TO.C,C5*%
G36*
G01*
X127681250Y-72217500D02*
X127168750Y-72217500D01*
G75*
G02*
X126950000Y-71998750I0J218750D01*
G01*
X126950000Y-71561250D01*
G75*
G02*
X127168750Y-71342500I218750J0D01*
G01*
X127681250Y-71342500D01*
G75*
G02*
X127900000Y-71561250I0J-218750D01*
G01*
X127900000Y-71998750D01*
G75*
G02*
X127681250Y-72217500I-218750J0D01*
G01*
G37*
G36*
G01*
X127681250Y-73792500D02*
X127168750Y-73792500D01*
G75*
G02*
X126950000Y-73573750I0J218750D01*
G01*
X126950000Y-73136250D01*
G75*
G02*
X127168750Y-72917500I218750J0D01*
G01*
X127681250Y-72917500D01*
G75*
G02*
X127900000Y-73136250I0J-218750D01*
G01*
X127900000Y-73573750D01*
G75*
G02*
X127681250Y-73792500I-218750J0D01*
G01*
G37*
%TD*%
%TO.C,C4*%
G36*
G01*
X127681250Y-69130000D02*
X127168750Y-69130000D01*
G75*
G02*
X126950000Y-68911250I0J218750D01*
G01*
X126950000Y-68473750D01*
G75*
G02*
X127168750Y-68255000I218750J0D01*
G01*
X127681250Y-68255000D01*
G75*
G02*
X127900000Y-68473750I0J-218750D01*
G01*
X127900000Y-68911250D01*
G75*
G02*
X127681250Y-69130000I-218750J0D01*
G01*
G37*
G36*
G01*
X127681250Y-70705000D02*
X127168750Y-70705000D01*
G75*
G02*
X126950000Y-70486250I0J218750D01*
G01*
X126950000Y-70048750D01*
G75*
G02*
X127168750Y-69830000I218750J0D01*
G01*
X127681250Y-69830000D01*
G75*
G02*
X127900000Y-70048750I0J-218750D01*
G01*
X127900000Y-70486250D01*
G75*
G02*
X127681250Y-70705000I-218750J0D01*
G01*
G37*
%TD*%
%TO.C,C3*%
G36*
G01*
X146247500Y-68361250D02*
X146247500Y-67848750D01*
G75*
G02*
X146466250Y-67630000I218750J0D01*
G01*
X146903750Y-67630000D01*
G75*
G02*
X147122500Y-67848750I0J-218750D01*
G01*
X147122500Y-68361250D01*
G75*
G02*
X146903750Y-68580000I-218750J0D01*
G01*
X146466250Y-68580000D01*
G75*
G02*
X146247500Y-68361250I0J218750D01*
G01*
G37*
G36*
G01*
X144672500Y-68361250D02*
X144672500Y-67848750D01*
G75*
G02*
X144891250Y-67630000I218750J0D01*
G01*
X145328750Y-67630000D01*
G75*
G02*
X145547500Y-67848750I0J-218750D01*
G01*
X145547500Y-68361250D01*
G75*
G02*
X145328750Y-68580000I-218750J0D01*
G01*
X144891250Y-68580000D01*
G75*
G02*
X144672500Y-68361250I0J218750D01*
G01*
G37*
%TD*%
%TO.C,C2*%
G36*
G01*
X146260000Y-69911250D02*
X146260000Y-69398750D01*
G75*
G02*
X146478750Y-69180000I218750J0D01*
G01*
X146916250Y-69180000D01*
G75*
G02*
X147135000Y-69398750I0J-218750D01*
G01*
X147135000Y-69911250D01*
G75*
G02*
X146916250Y-70130000I-218750J0D01*
G01*
X146478750Y-70130000D01*
G75*
G02*
X146260000Y-69911250I0J218750D01*
G01*
G37*
G36*
G01*
X144685000Y-69911250D02*
X144685000Y-69398750D01*
G75*
G02*
X144903750Y-69180000I218750J0D01*
G01*
X145341250Y-69180000D01*
G75*
G02*
X145560000Y-69398750I0J-218750D01*
G01*
X145560000Y-69911250D01*
G75*
G02*
X145341250Y-70130000I-218750J0D01*
G01*
X144903750Y-70130000D01*
G75*
G02*
X144685000Y-69911250I0J218750D01*
G01*
G37*
%TD*%
%TO.C,C1*%
G36*
G01*
X134280000Y-64475000D02*
X132130000Y-64475000D01*
G75*
G02*
X131880000Y-64225000I0J250000D01*
G01*
X131880000Y-63475000D01*
G75*
G02*
X132130000Y-63225000I250000J0D01*
G01*
X134280000Y-63225000D01*
G75*
G02*
X134530000Y-63475000I0J-250000D01*
G01*
X134530000Y-64225000D01*
G75*
G02*
X134280000Y-64475000I-250000J0D01*
G01*
G37*
G36*
G01*
X134280000Y-67275000D02*
X132130000Y-67275000D01*
G75*
G02*
X131880000Y-67025000I0J250000D01*
G01*
X131880000Y-66275000D01*
G75*
G02*
X132130000Y-66025000I250000J0D01*
G01*
X134280000Y-66025000D01*
G75*
G02*
X134530000Y-66275000I0J-250000D01*
G01*
X134530000Y-67025000D01*
G75*
G02*
X134280000Y-67275000I-250000J0D01*
G01*
G37*
%TD*%
M02*
