M48
; DRILL file {KiCad (5.1.6)-1} date 08/26/21 12:08:44
; FORMAT={-:-/ absolute / metric / decimal}
; #@! TF.CreationDate,2021-08-26T12:08:44+02:00
; #@! TF.GenerationSoftware,Kicad,Pcbnew,(5.1.6)-1
FMAT,2
METRIC
T1C0.400
T2C0.500
T3C1.000
T4C1.200
T5C2.500
T6C3.160
T7C3.640
T8C0.550
T9C4.890
%
G90
G05
T1
X84.54Y-47.07
X84.54Y-49.3
X84.55Y-53.26
X84.56Y-51.27
X85.66Y-45.6
X85.71Y-54.34
X85.72Y-48.25
X86.64Y-47.07
X87.52Y-80.83
X87.52Y-82.97
X87.56Y-76.48
X87.56Y-78.67
X87.58Y-84.89
X87.76Y-45.62
X88.79Y-47.04
X89.14Y-78.69
X89.16Y-80.83
X89.16Y-84.89
X89.18Y-76.44
X89.2Y-82.99
X89.91Y-45.6
X90.58Y-61.49
X90.58Y-69.49
X90.6Y-63.17
X90.6Y-67.5
X90.9Y-47.02
X91.81Y-54.36
X91.87Y-48.27
X91.89Y-45.6
X92.3Y-83.03
X92.32Y-80.85
X92.33Y-78.7
X92.44Y-71.69
X92.46Y-61.47
X92.46Y-69.51
X92.46Y-73.81
X92.48Y-63.15
X92.48Y-67.5
X93.0Y-51.25
X93.01Y-53.31
X93.02Y-46.99
X93.02Y-49.27
X94.21Y-61.44
X94.21Y-74.97
X94.23Y-63.15
X94.23Y-73.79
X94.23Y-78.7
X94.25Y-80.88
X94.26Y-83.08
X94.27Y-84.9
X95.43Y-65.96
X96.06Y-44.27
X96.06Y-47.0
X96.06Y-49.23
X96.06Y-51.24
X96.06Y-73.81
X96.06Y-74.97
X96.09Y-53.64
X96.09Y-59.65
X96.09Y-61.44
X96.09Y-63.13
X96.11Y-55.67
X96.11Y-57.68
X97.0Y-65.01
X97.76Y-73.83
X97.77Y-75.02
X97.83Y-61.44
X97.83Y-63.1
X97.996Y-80.62
X98.27Y-51.22
X98.29Y-53.62
X99.23Y-68.88
X99.23Y-70.22
X99.24Y-67.38
X99.24Y-71.83
X99.38Y-75.01
X99.39Y-73.88
X100.79Y-76.3
X100.8Y-75.01
X100.82Y-73.88
X101.04Y-85.57
X102.18Y-73.88
X102.19Y-75.01
X102.19Y-76.3
X102.41Y-85.6
X102.6Y-71.82
X103.38Y-45.59
X103.38Y-47.0
X103.4Y-44.24
X103.46Y-55.08
X103.58Y-73.88
X103.59Y-75.01
X104.09Y-71.83
X105.17Y-75.02
X105.18Y-73.87
X105.46Y-58.355
X105.46Y-66.205
X105.47Y-68.43
X105.47Y-70.1
X105.485Y-48.955
X106.47Y-71.81
X107.19Y-83.211
X107.39Y-85.61
X109.7Y-80.79
X109.89Y-48.95
X109.89Y-58.29
X109.89Y-66.25
X110.76Y-71.82
X111.435Y-49.005
X114.6Y-71.81
X115.29Y-77.97
X115.3Y-74.99
X116.88Y-58.29
X116.88Y-66.27
X117.54Y-75.01
X117.54Y-77.97
X118.02Y-82.26
X118.067Y-83.725
X118.34Y-71.79
X120.9Y-80.47
X121.74Y-67.04
X121.83Y-70.26
X121.86Y-71.76
X121.87Y-68.78
X122.43Y-79.0
X122.43Y-80.44
X122.72Y-76.1
X122.82Y-48.97
X122.835Y-53.055
X122.835Y-55.53
X122.835Y-57.68
X122.835Y-60.03
X122.84Y-42.87
X122.84Y-44.47
X122.84Y-46.59
X123.07Y-65.69
X123.21Y-67.38
X123.46Y-72.88
X124.02Y-80.43
X124.05Y-79.02
X124.06Y-76.09
X124.38Y-64.56
X124.42Y-66.27
X124.52Y-46.57
X124.55Y-42.89
X124.55Y-44.48
X124.57Y-48.99
X125.22Y-69.05
X125.22Y-72.54
X125.24Y-70.85
X125.61Y-79.05
X125.61Y-80.43
X125.735Y-55.83
X125.76Y-57.33
X125.76Y-58.93
X125.85Y-65.07
X125.985Y-63.505
X126.58Y-42.87
X126.97Y-82.24
X126.98Y-83.65
X127.45Y-74.97
X127.88Y-65.07
X127.885Y-63.505
X128.16Y-42.86
X129.425Y-70.89
X129.425Y-72.2
X129.43Y-68.52
X129.65Y-80.4
X129.68Y-74.97
X129.71Y-42.87
X129.91Y-63.505
X129.92Y-65.05
X130.034Y-60.094
X130.31Y-56.8
X130.36Y-51.73
X130.69Y-66.65
X130.904Y-57.716
X131.15Y-79.25
X131.17Y-80.4
X131.37Y-42.89
X131.89Y-59.0
X132.44Y-74.99
X132.84Y-79.26
X132.84Y-80.41
X133.03Y-42.85
X133.06Y-55.89
X133.19Y-65.25
X133.39Y-54.88
X134.51Y-60.98
X134.53Y-80.38
X134.56Y-79.26
X134.985Y-75.455
X135.0Y-76.642
X135.56Y-66.05
X135.66Y-64.73
X135.95Y-82.29
X135.96Y-83.64
X136.18Y-54.54
X136.185Y-72.28
X136.36Y-63.155
X136.385Y-61.005
X136.685Y-49.93
X136.69Y-65.5
X136.735Y-51.78
X137.35Y-60.12
X137.69Y-54.25
X138.16Y-80.52
X138.19Y-79.22
X138.535Y-72.53
X138.8Y-56.3
X139.28Y-58.12
X139.42Y-59.41
X139.51Y-76.49
X139.64Y-79.22
X139.67Y-80.55
X139.96Y-62.005
X140.06Y-63.74
X140.23Y-67.46
X140.28Y-69.04
X140.535Y-50.05
X140.721Y-62.989
X140.83Y-55.76
X141.18Y-79.22
X141.18Y-80.6
X141.5Y-61.57
X142.135Y-71.055
X142.87Y-80.63
X143.52Y-55.69
X143.54Y-54.57
X143.73Y-75.75
X143.735Y-70.63
X143.75Y-52.73
X143.88Y-66.65
X144.9Y-83.63
X144.92Y-82.27
X145.11Y-49.93
X145.11Y-71.38
X145.31Y-65.27
X145.31Y-66.65
X146.61Y-79.19
X146.675Y-55.295
X146.7Y-75.79
X146.73Y-71.29
X146.79Y-65.26
X146.79Y-66.65
X147.43Y-80.64
X147.85Y-50.32
X147.885Y-45.83
X147.885Y-47.53
X147.89Y-43.85
X148.13Y-79.19
X148.31Y-65.27
X148.33Y-68.11
X148.33Y-69.61
X148.33Y-71.27
X148.34Y-66.66
X148.36Y-75.85
X148.52Y-58.2
X148.645Y-62.835
X148.86Y-80.61
X149.235Y-45.78
X149.26Y-47.53
X149.27Y-43.83
X149.53Y-79.17
X149.84Y-65.22
X149.84Y-68.09
X149.86Y-66.66
X149.98Y-62.86
X150.22Y-80.61
X151.13Y-75.87
X151.15Y-71.33
X151.6Y-80.6
X152.37Y-61.55
X153.35Y-69.59
X153.39Y-71.36
X153.41Y-75.89
X153.85Y-83.58
X153.86Y-82.27
X154.43Y-58.99
X154.43Y-65.82
X154.45Y-61.58
X154.45Y-63.81
X155.78Y-82.85
X155.8Y-78.46
X155.8Y-80.56
X156.51Y-50.98
X156.52Y-61.58
X156.54Y-53.97
X156.54Y-56.36
X156.54Y-63.81
X156.55Y-58.99
X157.77Y-80.58
X157.77Y-82.9
X157.79Y-78.46
X158.66Y-63.81
X159.46Y-59.01
X159.48Y-56.39
X159.51Y-51.0
X159.51Y-54.0
X161.07Y-70.24
X162.35Y-51.0
X162.35Y-54.0
X162.38Y-56.44
X162.94Y-70.26
X164.79Y-68.24
X164.8Y-70.26
X165.24Y-50.98
X166.44Y-70.33
X166.46Y-68.27
X168.01Y-68.3
X168.04Y-70.31
T2
X97.749Y-45.566
X98.298Y-44.24
X98.298Y-46.892
X99.624Y-43.691
X99.624Y-47.441
X100.95Y-44.24
X100.95Y-46.892
X101.499Y-45.566
X163.435Y-45.63
X163.984Y-44.304
X163.984Y-46.956
X165.31Y-43.755
X165.31Y-47.505
X166.636Y-44.304
X166.636Y-46.956
X167.185Y-45.63
T3
X114.7Y-86.91
X117.24Y-86.91
X119.78Y-86.91
X151.81Y-46.215
X154.35Y-46.215
X156.89Y-46.215
X159.43Y-46.215
X132.41Y-86.92
X134.95Y-86.92
X137.49Y-86.92
X123.54Y-86.91
X126.08Y-86.91
X128.62Y-86.91
X150.14Y-86.91
X152.68Y-86.91
X155.22Y-86.91
X156.82Y-70.43
X156.82Y-72.97
X156.82Y-75.51
X141.28Y-86.91
X143.82Y-86.91
X146.36Y-86.91
X126.556Y-45.5
X126.556Y-50.0
X133.056Y-45.5
X133.056Y-50.0
X85.0Y-64.82
X85.0Y-67.36
X85.0Y-69.9
X85.0Y-72.44
X110.3Y-75.4
X110.3Y-77.94
X84.99Y-76.76
X84.99Y-79.3
X84.99Y-81.84
X84.99Y-84.38
T4
X171.8Y-77.02
X185.8Y-77.02
X171.62Y-47.03
X171.62Y-61.03
T5
X167.8Y-81.77
X181.8Y-81.77
X99.624Y-45.566
X176.37Y-51.03
X176.37Y-65.03
X165.31Y-45.63
T6
X88.85Y-51.16
T7
X88.85Y-57.16
T8
X138.62Y-46.755
X142.62Y-46.755
T9
X162.65Y-81.77
X186.95Y-81.77
X176.37Y-45.88
X176.37Y-70.18
T0
M30
