%TF.GenerationSoftware,KiCad,Pcbnew,(5.1.6)-1*%
%TF.CreationDate,2021-08-26T12:07:42+02:00*%
%TF.ProjectId,Car LEDs,43617220-4c45-4447-932e-6b696361645f,rev?*%
%TF.SameCoordinates,Original*%
%TF.FileFunction,Legend,Top*%
%TF.FilePolarity,Positive*%
%FSLAX46Y46*%
G04 Gerber Fmt 4.6, Leading zero omitted, Abs format (unit mm)*
G04 Created by KiCad (PCBNEW (5.1.6)-1) date 2021-08-26 12:07:42*
%MOMM*%
%LPD*%
G01*
G04 APERTURE LIST*
%ADD10C,0.150000*%
%ADD11C,0.125000*%
%ADD12C,0.100000*%
%ADD13C,0.120000*%
%ADD14C,0.200000*%
%ADD15C,0.250000*%
%ADD16C,0.254000*%
G04 APERTURE END LIST*
D10*
X160069761Y-65995714D02*
X160117380Y-65852857D01*
X160117380Y-65614761D01*
X160069761Y-65519523D01*
X160022142Y-65471904D01*
X159926904Y-65424285D01*
X159831666Y-65424285D01*
X159736428Y-65471904D01*
X159688809Y-65519523D01*
X159641190Y-65614761D01*
X159593571Y-65805238D01*
X159545952Y-65900476D01*
X159498333Y-65948095D01*
X159403095Y-65995714D01*
X159307857Y-65995714D01*
X159212619Y-65948095D01*
X159165000Y-65900476D01*
X159117380Y-65805238D01*
X159117380Y-65567142D01*
X159165000Y-65424285D01*
X160117380Y-64995714D02*
X159117380Y-64995714D01*
X159117380Y-64757619D01*
X159165000Y-64614761D01*
X159260238Y-64519523D01*
X159355476Y-64471904D01*
X159545952Y-64424285D01*
X159688809Y-64424285D01*
X159879285Y-64471904D01*
X159974523Y-64519523D01*
X160069761Y-64614761D01*
X160117380Y-64757619D01*
X160117380Y-64995714D01*
X159831666Y-64043333D02*
X159831666Y-63567142D01*
X160117380Y-64138571D02*
X159117380Y-63805238D01*
X160117380Y-63471904D01*
X159736428Y-63138571D02*
X159736428Y-62376666D01*
X160117380Y-61900476D02*
X159117380Y-61900476D01*
X159117380Y-61662380D01*
X159165000Y-61519523D01*
X159260238Y-61424285D01*
X159355476Y-61376666D01*
X159545952Y-61329047D01*
X159688809Y-61329047D01*
X159879285Y-61376666D01*
X159974523Y-61424285D01*
X160069761Y-61519523D01*
X160117380Y-61662380D01*
X160117380Y-61900476D01*
X160117380Y-60376666D02*
X160117380Y-60948095D01*
X160117380Y-60662380D02*
X159117380Y-60662380D01*
X159260238Y-60757619D01*
X159355476Y-60852857D01*
X159403095Y-60948095D01*
X159545952Y-59805238D02*
X159498333Y-59900476D01*
X159450714Y-59948095D01*
X159355476Y-59995714D01*
X159307857Y-59995714D01*
X159212619Y-59948095D01*
X159165000Y-59900476D01*
X159117380Y-59805238D01*
X159117380Y-59614761D01*
X159165000Y-59519523D01*
X159212619Y-59471904D01*
X159307857Y-59424285D01*
X159355476Y-59424285D01*
X159450714Y-59471904D01*
X159498333Y-59519523D01*
X159545952Y-59614761D01*
X159545952Y-59805238D01*
X159593571Y-59900476D01*
X159641190Y-59948095D01*
X159736428Y-59995714D01*
X159926904Y-59995714D01*
X160022142Y-59948095D01*
X160069761Y-59900476D01*
X160117380Y-59805238D01*
X160117380Y-59614761D01*
X160069761Y-59519523D01*
X160022142Y-59471904D01*
X159926904Y-59424285D01*
X159736428Y-59424285D01*
X159641190Y-59471904D01*
X159593571Y-59519523D01*
X159545952Y-59614761D01*
X161719761Y-65971904D02*
X161767380Y-65829047D01*
X161767380Y-65590952D01*
X161719761Y-65495714D01*
X161672142Y-65448095D01*
X161576904Y-65400476D01*
X161481666Y-65400476D01*
X161386428Y-65448095D01*
X161338809Y-65495714D01*
X161291190Y-65590952D01*
X161243571Y-65781428D01*
X161195952Y-65876666D01*
X161148333Y-65924285D01*
X161053095Y-65971904D01*
X160957857Y-65971904D01*
X160862619Y-65924285D01*
X160815000Y-65876666D01*
X160767380Y-65781428D01*
X160767380Y-65543333D01*
X160815000Y-65400476D01*
X161672142Y-64400476D02*
X161719761Y-64448095D01*
X161767380Y-64590952D01*
X161767380Y-64686190D01*
X161719761Y-64829047D01*
X161624523Y-64924285D01*
X161529285Y-64971904D01*
X161338809Y-65019523D01*
X161195952Y-65019523D01*
X161005476Y-64971904D01*
X160910238Y-64924285D01*
X160815000Y-64829047D01*
X160767380Y-64686190D01*
X160767380Y-64590952D01*
X160815000Y-64448095D01*
X160862619Y-64400476D01*
X161767380Y-63495714D02*
X161767380Y-63971904D01*
X160767380Y-63971904D01*
X161386428Y-63162380D02*
X161386428Y-62400476D01*
X161767380Y-61924285D02*
X160767380Y-61924285D01*
X160767380Y-61686190D01*
X160815000Y-61543333D01*
X160910238Y-61448095D01*
X161005476Y-61400476D01*
X161195952Y-61352857D01*
X161338809Y-61352857D01*
X161529285Y-61400476D01*
X161624523Y-61448095D01*
X161719761Y-61543333D01*
X161767380Y-61686190D01*
X161767380Y-61924285D01*
X161767380Y-60400476D02*
X161767380Y-60971904D01*
X161767380Y-60686190D02*
X160767380Y-60686190D01*
X160910238Y-60781428D01*
X161005476Y-60876666D01*
X161053095Y-60971904D01*
X161767380Y-59924285D02*
X161767380Y-59733809D01*
X161719761Y-59638571D01*
X161672142Y-59590952D01*
X161529285Y-59495714D01*
X161338809Y-59448095D01*
X160957857Y-59448095D01*
X160862619Y-59495714D01*
X160815000Y-59543333D01*
X160767380Y-59638571D01*
X160767380Y-59829047D01*
X160815000Y-59924285D01*
X160862619Y-59971904D01*
X160957857Y-60019523D01*
X161195952Y-60019523D01*
X161291190Y-59971904D01*
X161338809Y-59924285D01*
X161386428Y-59829047D01*
X161386428Y-59638571D01*
X161338809Y-59543333D01*
X161291190Y-59495714D01*
X161195952Y-59448095D01*
X115201904Y-73502380D02*
X115201904Y-72502380D01*
X115440000Y-72502380D01*
X115582857Y-72550000D01*
X115678095Y-72645238D01*
X115725714Y-72740476D01*
X115773333Y-72930952D01*
X115773333Y-73073809D01*
X115725714Y-73264285D01*
X115678095Y-73359523D01*
X115582857Y-73454761D01*
X115440000Y-73502380D01*
X115201904Y-73502380D01*
X116344761Y-72930952D02*
X116249523Y-72883333D01*
X116201904Y-72835714D01*
X116154285Y-72740476D01*
X116154285Y-72692857D01*
X116201904Y-72597619D01*
X116249523Y-72550000D01*
X116344761Y-72502380D01*
X116535238Y-72502380D01*
X116630476Y-72550000D01*
X116678095Y-72597619D01*
X116725714Y-72692857D01*
X116725714Y-72740476D01*
X116678095Y-72835714D01*
X116630476Y-72883333D01*
X116535238Y-72930952D01*
X116344761Y-72930952D01*
X116249523Y-72978571D01*
X116201904Y-73026190D01*
X116154285Y-73121428D01*
X116154285Y-73311904D01*
X116201904Y-73407142D01*
X116249523Y-73454761D01*
X116344761Y-73502380D01*
X116535238Y-73502380D01*
X116630476Y-73454761D01*
X116678095Y-73407142D01*
X116725714Y-73311904D01*
X116725714Y-73121428D01*
X116678095Y-73026190D01*
X116630476Y-72978571D01*
X116535238Y-72930952D01*
X150137142Y-82072380D02*
X150137142Y-81072380D01*
X150518095Y-81072380D01*
X150613333Y-81120000D01*
X150660952Y-81167619D01*
X150708571Y-81262857D01*
X150708571Y-81405714D01*
X150660952Y-81500952D01*
X150613333Y-81548571D01*
X150518095Y-81596190D01*
X150137142Y-81596190D01*
X151137142Y-82072380D02*
X151137142Y-81405714D01*
X151137142Y-81072380D02*
X151089523Y-81120000D01*
X151137142Y-81167619D01*
X151184761Y-81120000D01*
X151137142Y-81072380D01*
X151137142Y-81167619D01*
X151613333Y-81405714D02*
X151613333Y-82072380D01*
X151613333Y-81500952D02*
X151660952Y-81453333D01*
X151756190Y-81405714D01*
X151899047Y-81405714D01*
X151994285Y-81453333D01*
X152041904Y-81548571D01*
X152041904Y-82072380D01*
X153137142Y-81691428D02*
X153184761Y-81643809D01*
X153280000Y-81596190D01*
X153470476Y-81691428D01*
X153565714Y-81643809D01*
X153613333Y-81596190D01*
X154518095Y-82072380D02*
X153946666Y-82072380D01*
X154232380Y-82072380D02*
X154232380Y-81072380D01*
X154137142Y-81215238D01*
X154041904Y-81310476D01*
X153946666Y-81358095D01*
X155137142Y-81072380D02*
X155232380Y-81072380D01*
X155327619Y-81120000D01*
X155375238Y-81167619D01*
X155422857Y-81262857D01*
X155470476Y-81453333D01*
X155470476Y-81691428D01*
X155422857Y-81881904D01*
X155375238Y-81977142D01*
X155327619Y-82024761D01*
X155232380Y-82072380D01*
X155137142Y-82072380D01*
X155041904Y-82024761D01*
X154994285Y-81977142D01*
X154946666Y-81881904D01*
X154899047Y-81691428D01*
X154899047Y-81453333D01*
X154946666Y-81262857D01*
X154994285Y-81167619D01*
X155041904Y-81120000D01*
X155137142Y-81072380D01*
X141693333Y-82072380D02*
X141693333Y-81072380D01*
X142074285Y-81072380D01*
X142169523Y-81120000D01*
X142217142Y-81167619D01*
X142264761Y-81262857D01*
X142264761Y-81405714D01*
X142217142Y-81500952D01*
X142169523Y-81548571D01*
X142074285Y-81596190D01*
X141693333Y-81596190D01*
X142693333Y-82072380D02*
X142693333Y-81405714D01*
X142693333Y-81072380D02*
X142645714Y-81120000D01*
X142693333Y-81167619D01*
X142740952Y-81120000D01*
X142693333Y-81072380D01*
X142693333Y-81167619D01*
X143169523Y-81405714D02*
X143169523Y-82072380D01*
X143169523Y-81500952D02*
X143217142Y-81453333D01*
X143312380Y-81405714D01*
X143455238Y-81405714D01*
X143550476Y-81453333D01*
X143598095Y-81548571D01*
X143598095Y-82072380D01*
X144693333Y-81691428D02*
X144740952Y-81643809D01*
X144836190Y-81596190D01*
X145026666Y-81691428D01*
X145121904Y-81643809D01*
X145169523Y-81596190D01*
X145598095Y-82072380D02*
X145788571Y-82072380D01*
X145883809Y-82024761D01*
X145931428Y-81977142D01*
X146026666Y-81834285D01*
X146074285Y-81643809D01*
X146074285Y-81262857D01*
X146026666Y-81167619D01*
X145979047Y-81120000D01*
X145883809Y-81072380D01*
X145693333Y-81072380D01*
X145598095Y-81120000D01*
X145550476Y-81167619D01*
X145502857Y-81262857D01*
X145502857Y-81500952D01*
X145550476Y-81596190D01*
X145598095Y-81643809D01*
X145693333Y-81691428D01*
X145883809Y-81691428D01*
X145979047Y-81643809D01*
X146026666Y-81596190D01*
X146074285Y-81500952D01*
X132773333Y-82012380D02*
X132773333Y-81012380D01*
X133154285Y-81012380D01*
X133249523Y-81060000D01*
X133297142Y-81107619D01*
X133344761Y-81202857D01*
X133344761Y-81345714D01*
X133297142Y-81440952D01*
X133249523Y-81488571D01*
X133154285Y-81536190D01*
X132773333Y-81536190D01*
X133773333Y-82012380D02*
X133773333Y-81345714D01*
X133773333Y-81012380D02*
X133725714Y-81060000D01*
X133773333Y-81107619D01*
X133820952Y-81060000D01*
X133773333Y-81012380D01*
X133773333Y-81107619D01*
X134249523Y-81345714D02*
X134249523Y-82012380D01*
X134249523Y-81440952D02*
X134297142Y-81393333D01*
X134392380Y-81345714D01*
X134535238Y-81345714D01*
X134630476Y-81393333D01*
X134678095Y-81488571D01*
X134678095Y-82012380D01*
X135773333Y-81631428D02*
X135820952Y-81583809D01*
X135916190Y-81536190D01*
X136106666Y-81631428D01*
X136201904Y-81583809D01*
X136249523Y-81536190D01*
X137059047Y-81012380D02*
X136868571Y-81012380D01*
X136773333Y-81060000D01*
X136725714Y-81107619D01*
X136630476Y-81250476D01*
X136582857Y-81440952D01*
X136582857Y-81821904D01*
X136630476Y-81917142D01*
X136678095Y-81964761D01*
X136773333Y-82012380D01*
X136963809Y-82012380D01*
X137059047Y-81964761D01*
X137106666Y-81917142D01*
X137154285Y-81821904D01*
X137154285Y-81583809D01*
X137106666Y-81488571D01*
X137059047Y-81440952D01*
X136963809Y-81393333D01*
X136773333Y-81393333D01*
X136678095Y-81440952D01*
X136630476Y-81488571D01*
X136582857Y-81583809D01*
X123923333Y-81962380D02*
X123923333Y-80962380D01*
X124304285Y-80962380D01*
X124399523Y-81010000D01*
X124447142Y-81057619D01*
X124494761Y-81152857D01*
X124494761Y-81295714D01*
X124447142Y-81390952D01*
X124399523Y-81438571D01*
X124304285Y-81486190D01*
X123923333Y-81486190D01*
X124923333Y-81962380D02*
X124923333Y-81295714D01*
X124923333Y-80962380D02*
X124875714Y-81010000D01*
X124923333Y-81057619D01*
X124970952Y-81010000D01*
X124923333Y-80962380D01*
X124923333Y-81057619D01*
X125399523Y-81295714D02*
X125399523Y-81962380D01*
X125399523Y-81390952D02*
X125447142Y-81343333D01*
X125542380Y-81295714D01*
X125685238Y-81295714D01*
X125780476Y-81343333D01*
X125828095Y-81438571D01*
X125828095Y-81962380D01*
X126923333Y-81581428D02*
X126970952Y-81533809D01*
X127066190Y-81486190D01*
X127256666Y-81581428D01*
X127351904Y-81533809D01*
X127399523Y-81486190D01*
X128256666Y-80962380D02*
X127780476Y-80962380D01*
X127732857Y-81438571D01*
X127780476Y-81390952D01*
X127875714Y-81343333D01*
X128113809Y-81343333D01*
X128209047Y-81390952D01*
X128256666Y-81438571D01*
X128304285Y-81533809D01*
X128304285Y-81771904D01*
X128256666Y-81867142D01*
X128209047Y-81914761D01*
X128113809Y-81962380D01*
X127875714Y-81962380D01*
X127780476Y-81914761D01*
X127732857Y-81867142D01*
X115073333Y-81942380D02*
X115073333Y-80942380D01*
X115454285Y-80942380D01*
X115549523Y-80990000D01*
X115597142Y-81037619D01*
X115644761Y-81132857D01*
X115644761Y-81275714D01*
X115597142Y-81370952D01*
X115549523Y-81418571D01*
X115454285Y-81466190D01*
X115073333Y-81466190D01*
X116073333Y-81942380D02*
X116073333Y-81275714D01*
X116073333Y-80942380D02*
X116025714Y-80990000D01*
X116073333Y-81037619D01*
X116120952Y-80990000D01*
X116073333Y-80942380D01*
X116073333Y-81037619D01*
X116549523Y-81275714D02*
X116549523Y-81942380D01*
X116549523Y-81370952D02*
X116597142Y-81323333D01*
X116692380Y-81275714D01*
X116835238Y-81275714D01*
X116930476Y-81323333D01*
X116978095Y-81418571D01*
X116978095Y-81942380D01*
X118073333Y-81561428D02*
X118120952Y-81513809D01*
X118216190Y-81466190D01*
X118406666Y-81561428D01*
X118501904Y-81513809D01*
X118549523Y-81466190D01*
X118835238Y-80942380D02*
X119454285Y-80942380D01*
X119120952Y-81323333D01*
X119263809Y-81323333D01*
X119359047Y-81370952D01*
X119406666Y-81418571D01*
X119454285Y-81513809D01*
X119454285Y-81751904D01*
X119406666Y-81847142D01*
X119359047Y-81894761D01*
X119263809Y-81942380D01*
X118978095Y-81942380D01*
X118882857Y-81894761D01*
X118835238Y-81847142D01*
X108654285Y-84272380D02*
X108178095Y-84272380D01*
X108130476Y-84748571D01*
X108178095Y-84700952D01*
X108273333Y-84653333D01*
X108511428Y-84653333D01*
X108606666Y-84700952D01*
X108654285Y-84748571D01*
X108701904Y-84843809D01*
X108701904Y-85081904D01*
X108654285Y-85177142D01*
X108606666Y-85224761D01*
X108511428Y-85272380D01*
X108273333Y-85272380D01*
X108178095Y-85224761D01*
X108130476Y-85177142D01*
X108987619Y-84272380D02*
X109320952Y-85272380D01*
X109654285Y-84272380D01*
X109987619Y-84891428D02*
X110749523Y-84891428D01*
X111749523Y-85272380D02*
X111178095Y-85272380D01*
X111463809Y-85272380D02*
X111463809Y-84272380D01*
X111368571Y-84415238D01*
X111273333Y-84510476D01*
X111178095Y-84558095D01*
X108465714Y-86782380D02*
X107894285Y-86782380D01*
X108180000Y-86782380D02*
X108180000Y-85782380D01*
X108084761Y-85925238D01*
X107989523Y-86020476D01*
X107894285Y-86068095D01*
X108846666Y-85877619D02*
X108894285Y-85830000D01*
X108989523Y-85782380D01*
X109227619Y-85782380D01*
X109322857Y-85830000D01*
X109370476Y-85877619D01*
X109418095Y-85972857D01*
X109418095Y-86068095D01*
X109370476Y-86210952D01*
X108799047Y-86782380D01*
X109418095Y-86782380D01*
X109703809Y-85782380D02*
X110037142Y-86782380D01*
X110370476Y-85782380D01*
X110703809Y-86401428D02*
X111465714Y-86401428D01*
X111846666Y-85782380D02*
X112465714Y-85782380D01*
X112132380Y-86163333D01*
X112275238Y-86163333D01*
X112370476Y-86210952D01*
X112418095Y-86258571D01*
X112465714Y-86353809D01*
X112465714Y-86591904D01*
X112418095Y-86687142D01*
X112370476Y-86734761D01*
X112275238Y-86782380D01*
X111989523Y-86782380D01*
X111894285Y-86734761D01*
X111846666Y-86687142D01*
X154381428Y-78750952D02*
X154333809Y-78703333D01*
X154286190Y-78608095D01*
X154381428Y-78417619D01*
X154333809Y-78322380D01*
X154286190Y-78274761D01*
X154762380Y-77893809D02*
X153762380Y-77893809D01*
X153762380Y-77655714D01*
X153810000Y-77512857D01*
X153905238Y-77417619D01*
X154000476Y-77370000D01*
X154190952Y-77322380D01*
X154333809Y-77322380D01*
X154524285Y-77370000D01*
X154619523Y-77417619D01*
X154714761Y-77512857D01*
X154762380Y-77655714D01*
X154762380Y-77893809D01*
X154762380Y-76370000D02*
X154762380Y-76941428D01*
X154762380Y-76655714D02*
X153762380Y-76655714D01*
X153905238Y-76750952D01*
X154000476Y-76846190D01*
X154048095Y-76941428D01*
X154762380Y-75417619D02*
X154762380Y-75989047D01*
X154762380Y-75703333D02*
X153762380Y-75703333D01*
X153905238Y-75798571D01*
X154000476Y-75893809D01*
X154048095Y-75989047D01*
X154762380Y-74227142D02*
X153762380Y-74227142D01*
X153762380Y-73989047D01*
X153810000Y-73846190D01*
X153905238Y-73750952D01*
X154000476Y-73703333D01*
X154190952Y-73655714D01*
X154333809Y-73655714D01*
X154524285Y-73703333D01*
X154619523Y-73750952D01*
X154714761Y-73846190D01*
X154762380Y-73989047D01*
X154762380Y-74227142D01*
X154762380Y-72703333D02*
X154762380Y-73274761D01*
X154762380Y-72989047D02*
X153762380Y-72989047D01*
X153905238Y-73084285D01*
X154000476Y-73179523D01*
X154048095Y-73274761D01*
X153857619Y-72322380D02*
X153810000Y-72274761D01*
X153762380Y-72179523D01*
X153762380Y-71941428D01*
X153810000Y-71846190D01*
X153857619Y-71798571D01*
X153952857Y-71750952D01*
X154048095Y-71750952D01*
X154190952Y-71798571D01*
X154762380Y-72370000D01*
X154762380Y-71750952D01*
X154762380Y-70560476D02*
X153762380Y-70560476D01*
X153762380Y-70322380D01*
X153810000Y-70179523D01*
X153905238Y-70084285D01*
X154000476Y-70036666D01*
X154190952Y-69989047D01*
X154333809Y-69989047D01*
X154524285Y-70036666D01*
X154619523Y-70084285D01*
X154714761Y-70179523D01*
X154762380Y-70322380D01*
X154762380Y-70560476D01*
X154762380Y-69036666D02*
X154762380Y-69608095D01*
X154762380Y-69322380D02*
X153762380Y-69322380D01*
X153905238Y-69417619D01*
X154000476Y-69512857D01*
X154048095Y-69608095D01*
X153762380Y-68703333D02*
X153762380Y-68084285D01*
X154143333Y-68417619D01*
X154143333Y-68274761D01*
X154190952Y-68179523D01*
X154238571Y-68131904D01*
X154333809Y-68084285D01*
X154571904Y-68084285D01*
X154667142Y-68131904D01*
X154714761Y-68179523D01*
X154762380Y-68274761D01*
X154762380Y-68560476D01*
X154714761Y-68655714D01*
X154667142Y-68703333D01*
D11*
X159456190Y-74156190D02*
X158956190Y-74156190D01*
X158956190Y-73965714D01*
X158980000Y-73918095D01*
X159003809Y-73894285D01*
X159051428Y-73870476D01*
X159122857Y-73870476D01*
X159170476Y-73894285D01*
X159194285Y-73918095D01*
X159218095Y-73965714D01*
X159218095Y-74156190D01*
X159194285Y-73489523D02*
X159218095Y-73418095D01*
X159241904Y-73394285D01*
X159289523Y-73370476D01*
X159360952Y-73370476D01*
X159408571Y-73394285D01*
X159432380Y-73418095D01*
X159456190Y-73465714D01*
X159456190Y-73656190D01*
X158956190Y-73656190D01*
X158956190Y-73489523D01*
X158980000Y-73441904D01*
X159003809Y-73418095D01*
X159051428Y-73394285D01*
X159099047Y-73394285D01*
X159146666Y-73418095D01*
X159170476Y-73441904D01*
X159194285Y-73489523D01*
X159194285Y-73656190D01*
X158956190Y-73203809D02*
X158956190Y-72894285D01*
X159146666Y-73060952D01*
X159146666Y-72989523D01*
X159170476Y-72941904D01*
X159194285Y-72918095D01*
X159241904Y-72894285D01*
X159360952Y-72894285D01*
X159408571Y-72918095D01*
X159432380Y-72941904D01*
X159456190Y-72989523D01*
X159456190Y-73132380D01*
X159432380Y-73180000D01*
X159408571Y-73203809D01*
X159456190Y-72299047D02*
X158956190Y-72299047D01*
X158956190Y-72108571D01*
X158980000Y-72060952D01*
X159003809Y-72037142D01*
X159051428Y-72013333D01*
X159122857Y-72013333D01*
X159170476Y-72037142D01*
X159194285Y-72060952D01*
X159218095Y-72108571D01*
X159218095Y-72299047D01*
X159194285Y-71632380D02*
X159218095Y-71560952D01*
X159241904Y-71537142D01*
X159289523Y-71513333D01*
X159360952Y-71513333D01*
X159408571Y-71537142D01*
X159432380Y-71560952D01*
X159456190Y-71608571D01*
X159456190Y-71799047D01*
X158956190Y-71799047D01*
X158956190Y-71632380D01*
X158980000Y-71584761D01*
X159003809Y-71560952D01*
X159051428Y-71537142D01*
X159099047Y-71537142D01*
X159146666Y-71560952D01*
X159170476Y-71584761D01*
X159194285Y-71632380D01*
X159194285Y-71799047D01*
X159122857Y-71084761D02*
X159456190Y-71084761D01*
X158932380Y-71203809D02*
X159289523Y-71322857D01*
X159289523Y-71013333D01*
X159456190Y-70441904D02*
X158956190Y-70441904D01*
X158956190Y-70251428D01*
X158980000Y-70203809D01*
X159003809Y-70180000D01*
X159051428Y-70156190D01*
X159122857Y-70156190D01*
X159170476Y-70180000D01*
X159194285Y-70203809D01*
X159218095Y-70251428D01*
X159218095Y-70441904D01*
X159194285Y-69775238D02*
X159218095Y-69703809D01*
X159241904Y-69680000D01*
X159289523Y-69656190D01*
X159360952Y-69656190D01*
X159408571Y-69680000D01*
X159432380Y-69703809D01*
X159456190Y-69751428D01*
X159456190Y-69941904D01*
X158956190Y-69941904D01*
X158956190Y-69775238D01*
X158980000Y-69727619D01*
X159003809Y-69703809D01*
X159051428Y-69680000D01*
X159099047Y-69680000D01*
X159146666Y-69703809D01*
X159170476Y-69727619D01*
X159194285Y-69775238D01*
X159194285Y-69941904D01*
X158956190Y-69203809D02*
X158956190Y-69441904D01*
X159194285Y-69465714D01*
X159170476Y-69441904D01*
X159146666Y-69394285D01*
X159146666Y-69275238D01*
X159170476Y-69227619D01*
X159194285Y-69203809D01*
X159241904Y-69180000D01*
X159360952Y-69180000D01*
X159408571Y-69203809D01*
X159432380Y-69227619D01*
X159456190Y-69275238D01*
X159456190Y-69394285D01*
X159432380Y-69441904D01*
X159408571Y-69465714D01*
D10*
X151018571Y-43776666D02*
X151494761Y-43776666D01*
X150923333Y-44062380D02*
X151256666Y-43062380D01*
X151590000Y-44062380D01*
X151828095Y-43062380D02*
X152447142Y-43062380D01*
X152113809Y-43443333D01*
X152256666Y-43443333D01*
X152351904Y-43490952D01*
X152399523Y-43538571D01*
X152447142Y-43633809D01*
X152447142Y-43871904D01*
X152399523Y-43967142D01*
X152351904Y-44014761D01*
X152256666Y-44062380D01*
X151970952Y-44062380D01*
X151875714Y-44014761D01*
X151828095Y-43967142D01*
X153590000Y-43776666D02*
X154066190Y-43776666D01*
X153494761Y-44062380D02*
X153828095Y-43062380D01*
X154161428Y-44062380D01*
X154447142Y-43157619D02*
X154494761Y-43110000D01*
X154590000Y-43062380D01*
X154828095Y-43062380D01*
X154923333Y-43110000D01*
X154970952Y-43157619D01*
X155018571Y-43252857D01*
X155018571Y-43348095D01*
X154970952Y-43490952D01*
X154399523Y-44062380D01*
X155018571Y-44062380D01*
X156161428Y-43776666D02*
X156637619Y-43776666D01*
X156066190Y-44062380D02*
X156399523Y-43062380D01*
X156732857Y-44062380D01*
X157590000Y-44062380D02*
X157018571Y-44062380D01*
X157304285Y-44062380D02*
X157304285Y-43062380D01*
X157209047Y-43205238D01*
X157113809Y-43300476D01*
X157018571Y-43348095D01*
X158732857Y-43776666D02*
X159209047Y-43776666D01*
X158637619Y-44062380D02*
X158970952Y-43062380D01*
X159304285Y-44062380D01*
X159828095Y-43062380D02*
X159923333Y-43062380D01*
X160018571Y-43110000D01*
X160066190Y-43157619D01*
X160113809Y-43252857D01*
X160161428Y-43443333D01*
X160161428Y-43681428D01*
X160113809Y-43871904D01*
X160066190Y-43967142D01*
X160018571Y-44014761D01*
X159923333Y-44062380D01*
X159828095Y-44062380D01*
X159732857Y-44014761D01*
X159685238Y-43967142D01*
X159637619Y-43871904D01*
X159590000Y-43681428D01*
X159590000Y-43443333D01*
X159637619Y-43252857D01*
X159685238Y-43157619D01*
X159732857Y-43110000D01*
X159828095Y-43062380D01*
D11*
X151845238Y-48616190D02*
X151845238Y-48116190D01*
X152035714Y-48116190D01*
X152083333Y-48140000D01*
X152107142Y-48163809D01*
X152130952Y-48211428D01*
X152130952Y-48282857D01*
X152107142Y-48330476D01*
X152083333Y-48354285D01*
X152035714Y-48378095D01*
X151845238Y-48378095D01*
X152630952Y-48568571D02*
X152607142Y-48592380D01*
X152535714Y-48616190D01*
X152488095Y-48616190D01*
X152416666Y-48592380D01*
X152369047Y-48544761D01*
X152345238Y-48497142D01*
X152321428Y-48401904D01*
X152321428Y-48330476D01*
X152345238Y-48235238D01*
X152369047Y-48187619D01*
X152416666Y-48140000D01*
X152488095Y-48116190D01*
X152535714Y-48116190D01*
X152607142Y-48140000D01*
X152630952Y-48163809D01*
X152797619Y-48116190D02*
X153107142Y-48116190D01*
X152940476Y-48306666D01*
X153011904Y-48306666D01*
X153059523Y-48330476D01*
X153083333Y-48354285D01*
X153107142Y-48401904D01*
X153107142Y-48520952D01*
X153083333Y-48568571D01*
X153059523Y-48592380D01*
X153011904Y-48616190D01*
X152869047Y-48616190D01*
X152821428Y-48592380D01*
X152797619Y-48568571D01*
X153702380Y-48616190D02*
X153702380Y-48116190D01*
X153892857Y-48116190D01*
X153940476Y-48140000D01*
X153964285Y-48163809D01*
X153988095Y-48211428D01*
X153988095Y-48282857D01*
X153964285Y-48330476D01*
X153940476Y-48354285D01*
X153892857Y-48378095D01*
X153702380Y-48378095D01*
X154488095Y-48568571D02*
X154464285Y-48592380D01*
X154392857Y-48616190D01*
X154345238Y-48616190D01*
X154273809Y-48592380D01*
X154226190Y-48544761D01*
X154202380Y-48497142D01*
X154178571Y-48401904D01*
X154178571Y-48330476D01*
X154202380Y-48235238D01*
X154226190Y-48187619D01*
X154273809Y-48140000D01*
X154345238Y-48116190D01*
X154392857Y-48116190D01*
X154464285Y-48140000D01*
X154488095Y-48163809D01*
X154678571Y-48163809D02*
X154702380Y-48140000D01*
X154750000Y-48116190D01*
X154869047Y-48116190D01*
X154916666Y-48140000D01*
X154940476Y-48163809D01*
X154964285Y-48211428D01*
X154964285Y-48259047D01*
X154940476Y-48330476D01*
X154654761Y-48616190D01*
X154964285Y-48616190D01*
X155559523Y-48616190D02*
X155559523Y-48116190D01*
X155750000Y-48116190D01*
X155797619Y-48140000D01*
X155821428Y-48163809D01*
X155845238Y-48211428D01*
X155845238Y-48282857D01*
X155821428Y-48330476D01*
X155797619Y-48354285D01*
X155750000Y-48378095D01*
X155559523Y-48378095D01*
X156345238Y-48568571D02*
X156321428Y-48592380D01*
X156250000Y-48616190D01*
X156202380Y-48616190D01*
X156130952Y-48592380D01*
X156083333Y-48544761D01*
X156059523Y-48497142D01*
X156035714Y-48401904D01*
X156035714Y-48330476D01*
X156059523Y-48235238D01*
X156083333Y-48187619D01*
X156130952Y-48140000D01*
X156202380Y-48116190D01*
X156250000Y-48116190D01*
X156321428Y-48140000D01*
X156345238Y-48163809D01*
X156821428Y-48616190D02*
X156535714Y-48616190D01*
X156678571Y-48616190D02*
X156678571Y-48116190D01*
X156630952Y-48187619D01*
X156583333Y-48235238D01*
X156535714Y-48259047D01*
X157416666Y-48616190D02*
X157416666Y-48116190D01*
X157607142Y-48116190D01*
X157654761Y-48140000D01*
X157678571Y-48163809D01*
X157702380Y-48211428D01*
X157702380Y-48282857D01*
X157678571Y-48330476D01*
X157654761Y-48354285D01*
X157607142Y-48378095D01*
X157416666Y-48378095D01*
X158202380Y-48568571D02*
X158178571Y-48592380D01*
X158107142Y-48616190D01*
X158059523Y-48616190D01*
X157988095Y-48592380D01*
X157940476Y-48544761D01*
X157916666Y-48497142D01*
X157892857Y-48401904D01*
X157892857Y-48330476D01*
X157916666Y-48235238D01*
X157940476Y-48187619D01*
X157988095Y-48140000D01*
X158059523Y-48116190D01*
X158107142Y-48116190D01*
X158178571Y-48140000D01*
X158202380Y-48163809D01*
X158511904Y-48116190D02*
X158559523Y-48116190D01*
X158607142Y-48140000D01*
X158630952Y-48163809D01*
X158654761Y-48211428D01*
X158678571Y-48306666D01*
X158678571Y-48425714D01*
X158654761Y-48520952D01*
X158630952Y-48568571D01*
X158607142Y-48592380D01*
X158559523Y-48616190D01*
X158511904Y-48616190D01*
X158464285Y-48592380D01*
X158440476Y-48568571D01*
X158416666Y-48520952D01*
X158392857Y-48425714D01*
X158392857Y-48306666D01*
X158416666Y-48211428D01*
X158440476Y-48163809D01*
X158464285Y-48140000D01*
X158511904Y-48116190D01*
D10*
X162907142Y-72767380D02*
X162907142Y-71767380D01*
X163383333Y-72100714D02*
X163383333Y-72767380D01*
X163383333Y-72195952D02*
X163430952Y-72148333D01*
X163526190Y-72100714D01*
X163669047Y-72100714D01*
X163764285Y-72148333D01*
X163811904Y-72243571D01*
X163811904Y-72767380D01*
X164288095Y-72100714D02*
X164288095Y-73100714D01*
X164288095Y-72148333D02*
X164383333Y-72100714D01*
X164573809Y-72100714D01*
X164669047Y-72148333D01*
X164716666Y-72195952D01*
X164764285Y-72291190D01*
X164764285Y-72576904D01*
X164716666Y-72672142D01*
X164669047Y-72719761D01*
X164573809Y-72767380D01*
X164383333Y-72767380D01*
X164288095Y-72719761D01*
X165621428Y-72100714D02*
X165621428Y-72767380D01*
X165192857Y-72100714D02*
X165192857Y-72624523D01*
X165240476Y-72719761D01*
X165335714Y-72767380D01*
X165478571Y-72767380D01*
X165573809Y-72719761D01*
X165621428Y-72672142D01*
X165954761Y-72100714D02*
X166335714Y-72100714D01*
X166097619Y-71767380D02*
X166097619Y-72624523D01*
X166145238Y-72719761D01*
X166240476Y-72767380D01*
X166335714Y-72767380D01*
X163073809Y-74417380D02*
X162740476Y-73941190D01*
X162502380Y-74417380D02*
X162502380Y-73417380D01*
X162883333Y-73417380D01*
X162978571Y-73465000D01*
X163026190Y-73512619D01*
X163073809Y-73607857D01*
X163073809Y-73750714D01*
X163026190Y-73845952D01*
X162978571Y-73893571D01*
X162883333Y-73941190D01*
X162502380Y-73941190D01*
X164264285Y-74036428D02*
X165026190Y-74036428D01*
X166740476Y-74417380D02*
X166264285Y-74417380D01*
X166264285Y-73417380D01*
X166387380Y-57443809D02*
X166387380Y-57253333D01*
X166435000Y-57158095D01*
X166530238Y-57062857D01*
X166720714Y-57015238D01*
X167054047Y-57015238D01*
X167244523Y-57062857D01*
X167339761Y-57158095D01*
X167387380Y-57253333D01*
X167387380Y-57443809D01*
X167339761Y-57539047D01*
X167244523Y-57634285D01*
X167054047Y-57681904D01*
X166720714Y-57681904D01*
X166530238Y-57634285D01*
X166435000Y-57539047D01*
X166387380Y-57443809D01*
X166720714Y-56158095D02*
X167387380Y-56158095D01*
X166720714Y-56586666D02*
X167244523Y-56586666D01*
X167339761Y-56539047D01*
X167387380Y-56443809D01*
X167387380Y-56300952D01*
X167339761Y-56205714D01*
X167292142Y-56158095D01*
X166720714Y-55824761D02*
X166720714Y-55443809D01*
X166387380Y-55681904D02*
X167244523Y-55681904D01*
X167339761Y-55634285D01*
X167387380Y-55539047D01*
X167387380Y-55443809D01*
X166720714Y-55110476D02*
X167720714Y-55110476D01*
X166768333Y-55110476D02*
X166720714Y-55015238D01*
X166720714Y-54824761D01*
X166768333Y-54729523D01*
X166815952Y-54681904D01*
X166911190Y-54634285D01*
X167196904Y-54634285D01*
X167292142Y-54681904D01*
X167339761Y-54729523D01*
X167387380Y-54824761D01*
X167387380Y-55015238D01*
X167339761Y-55110476D01*
X166720714Y-53777142D02*
X167387380Y-53777142D01*
X166720714Y-54205714D02*
X167244523Y-54205714D01*
X167339761Y-54158095D01*
X167387380Y-54062857D01*
X167387380Y-53920000D01*
X167339761Y-53824761D01*
X167292142Y-53777142D01*
X166720714Y-53443809D02*
X166720714Y-53062857D01*
X166387380Y-53300952D02*
X167244523Y-53300952D01*
X167339761Y-53253333D01*
X167387380Y-53158095D01*
X167387380Y-53062857D01*
X169037380Y-56896190D02*
X168561190Y-57229523D01*
X169037380Y-57467619D02*
X168037380Y-57467619D01*
X168037380Y-57086666D01*
X168085000Y-56991428D01*
X168132619Y-56943809D01*
X168227857Y-56896190D01*
X168370714Y-56896190D01*
X168465952Y-56943809D01*
X168513571Y-56991428D01*
X168561190Y-57086666D01*
X168561190Y-57467619D01*
X168656428Y-55705714D02*
X168656428Y-54943809D01*
X169037380Y-53229523D02*
X169037380Y-53705714D01*
X168037380Y-53705714D01*
X146868571Y-48772380D02*
X146868571Y-49581904D01*
X146916190Y-49677142D01*
X146963809Y-49724761D01*
X147059047Y-49772380D01*
X147249523Y-49772380D01*
X147344761Y-49724761D01*
X147392380Y-49677142D01*
X147440000Y-49581904D01*
X147440000Y-48772380D01*
X147868571Y-49724761D02*
X148011428Y-49772380D01*
X148249523Y-49772380D01*
X148344761Y-49724761D01*
X148392380Y-49677142D01*
X148440000Y-49581904D01*
X148440000Y-49486666D01*
X148392380Y-49391428D01*
X148344761Y-49343809D01*
X148249523Y-49296190D01*
X148059047Y-49248571D01*
X147963809Y-49200952D01*
X147916190Y-49153333D01*
X147868571Y-49058095D01*
X147868571Y-48962857D01*
X147916190Y-48867619D01*
X147963809Y-48820000D01*
X148059047Y-48772380D01*
X148297142Y-48772380D01*
X148440000Y-48820000D01*
X149201904Y-49248571D02*
X149344761Y-49296190D01*
X149392380Y-49343809D01*
X149440000Y-49439047D01*
X149440000Y-49581904D01*
X149392380Y-49677142D01*
X149344761Y-49724761D01*
X149249523Y-49772380D01*
X148868571Y-49772380D01*
X148868571Y-48772380D01*
X149201904Y-48772380D01*
X149297142Y-48820000D01*
X149344761Y-48867619D01*
X149392380Y-48962857D01*
X149392380Y-49058095D01*
X149344761Y-49153333D01*
X149297142Y-49200952D01*
X149201904Y-49248571D01*
X148868571Y-49248571D01*
X149630476Y-49867619D02*
X150392380Y-49867619D01*
X150487619Y-48772380D02*
X150820952Y-49772380D01*
X151154285Y-48772380D01*
X152059047Y-49677142D02*
X152011428Y-49724761D01*
X151868571Y-49772380D01*
X151773333Y-49772380D01*
X151630476Y-49724761D01*
X151535238Y-49629523D01*
X151487619Y-49534285D01*
X151440000Y-49343809D01*
X151440000Y-49200952D01*
X151487619Y-49010476D01*
X151535238Y-48915238D01*
X151630476Y-48820000D01*
X151773333Y-48772380D01*
X151868571Y-48772380D01*
X152011428Y-48820000D01*
X152059047Y-48867619D01*
X153059047Y-49677142D02*
X153011428Y-49724761D01*
X152868571Y-49772380D01*
X152773333Y-49772380D01*
X152630476Y-49724761D01*
X152535238Y-49629523D01*
X152487619Y-49534285D01*
X152440000Y-49343809D01*
X152440000Y-49200952D01*
X152487619Y-49010476D01*
X152535238Y-48915238D01*
X152630476Y-48820000D01*
X152773333Y-48772380D01*
X152868571Y-48772380D01*
X153011428Y-48820000D01*
X153059047Y-48867619D01*
X151060952Y-52232380D02*
X151060952Y-53041904D01*
X151108571Y-53137142D01*
X151156190Y-53184761D01*
X151251428Y-53232380D01*
X151441904Y-53232380D01*
X151537142Y-53184761D01*
X151584761Y-53137142D01*
X151632380Y-53041904D01*
X151632380Y-52232380D01*
X152060952Y-53184761D02*
X152203809Y-53232380D01*
X152441904Y-53232380D01*
X152537142Y-53184761D01*
X152584761Y-53137142D01*
X152632380Y-53041904D01*
X152632380Y-52946666D01*
X152584761Y-52851428D01*
X152537142Y-52803809D01*
X152441904Y-52756190D01*
X152251428Y-52708571D01*
X152156190Y-52660952D01*
X152108571Y-52613333D01*
X152060952Y-52518095D01*
X152060952Y-52422857D01*
X152108571Y-52327619D01*
X152156190Y-52280000D01*
X152251428Y-52232380D01*
X152489523Y-52232380D01*
X152632380Y-52280000D01*
X153394285Y-52708571D02*
X153537142Y-52756190D01*
X153584761Y-52803809D01*
X153632380Y-52899047D01*
X153632380Y-53041904D01*
X153584761Y-53137142D01*
X153537142Y-53184761D01*
X153441904Y-53232380D01*
X153060952Y-53232380D01*
X153060952Y-52232380D01*
X153394285Y-52232380D01*
X153489523Y-52280000D01*
X153537142Y-52327619D01*
X153584761Y-52422857D01*
X153584761Y-52518095D01*
X153537142Y-52613333D01*
X153489523Y-52660952D01*
X153394285Y-52708571D01*
X153060952Y-52708571D01*
X153822857Y-53327619D02*
X154584761Y-53327619D01*
X155394285Y-53232380D02*
X155060952Y-52756190D01*
X154822857Y-53232380D02*
X154822857Y-52232380D01*
X155203809Y-52232380D01*
X155299047Y-52280000D01*
X155346666Y-52327619D01*
X155394285Y-52422857D01*
X155394285Y-52565714D01*
X155346666Y-52660952D01*
X155299047Y-52708571D01*
X155203809Y-52756190D01*
X154822857Y-52756190D01*
X155727619Y-52232380D02*
X156394285Y-53232380D01*
X156394285Y-52232380D02*
X155727619Y-53232380D01*
X151090000Y-55532380D02*
X151090000Y-56341904D01*
X151137619Y-56437142D01*
X151185238Y-56484761D01*
X151280476Y-56532380D01*
X151470952Y-56532380D01*
X151566190Y-56484761D01*
X151613809Y-56437142D01*
X151661428Y-56341904D01*
X151661428Y-55532380D01*
X152090000Y-56484761D02*
X152232857Y-56532380D01*
X152470952Y-56532380D01*
X152566190Y-56484761D01*
X152613809Y-56437142D01*
X152661428Y-56341904D01*
X152661428Y-56246666D01*
X152613809Y-56151428D01*
X152566190Y-56103809D01*
X152470952Y-56056190D01*
X152280476Y-56008571D01*
X152185238Y-55960952D01*
X152137619Y-55913333D01*
X152090000Y-55818095D01*
X152090000Y-55722857D01*
X152137619Y-55627619D01*
X152185238Y-55580000D01*
X152280476Y-55532380D01*
X152518571Y-55532380D01*
X152661428Y-55580000D01*
X153423333Y-56008571D02*
X153566190Y-56056190D01*
X153613809Y-56103809D01*
X153661428Y-56199047D01*
X153661428Y-56341904D01*
X153613809Y-56437142D01*
X153566190Y-56484761D01*
X153470952Y-56532380D01*
X153090000Y-56532380D01*
X153090000Y-55532380D01*
X153423333Y-55532380D01*
X153518571Y-55580000D01*
X153566190Y-55627619D01*
X153613809Y-55722857D01*
X153613809Y-55818095D01*
X153566190Y-55913333D01*
X153518571Y-55960952D01*
X153423333Y-56008571D01*
X153090000Y-56008571D01*
X153851904Y-56627619D02*
X154613809Y-56627619D01*
X154709047Y-55532380D02*
X155280476Y-55532380D01*
X154994761Y-56532380D02*
X154994761Y-55532380D01*
X155518571Y-55532380D02*
X156185238Y-56532380D01*
X156185238Y-55532380D02*
X155518571Y-56532380D01*
X124702380Y-54208095D02*
X124226190Y-54541428D01*
X124702380Y-54779523D02*
X123702380Y-54779523D01*
X123702380Y-54398571D01*
X123750000Y-54303333D01*
X123797619Y-54255714D01*
X123892857Y-54208095D01*
X124035714Y-54208095D01*
X124130952Y-54255714D01*
X124178571Y-54303333D01*
X124226190Y-54398571D01*
X124226190Y-54779523D01*
X124654761Y-53398571D02*
X124702380Y-53493809D01*
X124702380Y-53684285D01*
X124654761Y-53779523D01*
X124559523Y-53827142D01*
X124178571Y-53827142D01*
X124083333Y-53779523D01*
X124035714Y-53684285D01*
X124035714Y-53493809D01*
X124083333Y-53398571D01*
X124178571Y-53350952D01*
X124273809Y-53350952D01*
X124369047Y-53827142D01*
X124654761Y-52970000D02*
X124702380Y-52874761D01*
X124702380Y-52684285D01*
X124654761Y-52589047D01*
X124559523Y-52541428D01*
X124511904Y-52541428D01*
X124416666Y-52589047D01*
X124369047Y-52684285D01*
X124369047Y-52827142D01*
X124321428Y-52922380D01*
X124226190Y-52970000D01*
X124178571Y-52970000D01*
X124083333Y-52922380D01*
X124035714Y-52827142D01*
X124035714Y-52684285D01*
X124083333Y-52589047D01*
X124654761Y-51731904D02*
X124702380Y-51827142D01*
X124702380Y-52017619D01*
X124654761Y-52112857D01*
X124559523Y-52160476D01*
X124178571Y-52160476D01*
X124083333Y-52112857D01*
X124035714Y-52017619D01*
X124035714Y-51827142D01*
X124083333Y-51731904D01*
X124178571Y-51684285D01*
X124273809Y-51684285D01*
X124369047Y-52160476D01*
X124035714Y-51398571D02*
X124035714Y-51017619D01*
X123702380Y-51255714D02*
X124559523Y-51255714D01*
X124654761Y-51208095D01*
X124702380Y-51112857D01*
X124702380Y-51017619D01*
X126977142Y-61802380D02*
X126977142Y-60802380D01*
X127215238Y-60802380D01*
X127358095Y-60850000D01*
X127453333Y-60945238D01*
X127500952Y-61040476D01*
X127548571Y-61230952D01*
X127548571Y-61373809D01*
X127500952Y-61564285D01*
X127453333Y-61659523D01*
X127358095Y-61754761D01*
X127215238Y-61802380D01*
X126977142Y-61802380D01*
X127834285Y-60802380D02*
X128405714Y-60802380D01*
X128120000Y-61802380D02*
X128120000Y-60802380D01*
X129310476Y-61802380D02*
X128977142Y-61326190D01*
X128739047Y-61802380D02*
X128739047Y-60802380D01*
X129120000Y-60802380D01*
X129215238Y-60850000D01*
X129262857Y-60897619D01*
X129310476Y-60992857D01*
X129310476Y-61135714D01*
X129262857Y-61230952D01*
X129215238Y-61278571D01*
X129120000Y-61326190D01*
X128739047Y-61326190D01*
X125591428Y-60580000D02*
X125543809Y-60722857D01*
X125496190Y-60770476D01*
X125400952Y-60818095D01*
X125258095Y-60818095D01*
X125162857Y-60770476D01*
X125115238Y-60722857D01*
X125067619Y-60627619D01*
X125067619Y-60246666D01*
X126067619Y-60246666D01*
X126067619Y-60580000D01*
X126020000Y-60675238D01*
X125972380Y-60722857D01*
X125877142Y-60770476D01*
X125781904Y-60770476D01*
X125686666Y-60722857D01*
X125639047Y-60675238D01*
X125591428Y-60580000D01*
X125591428Y-60246666D01*
X126067619Y-61103809D02*
X126067619Y-61675238D01*
X125067619Y-61389523D02*
X126067619Y-61389523D01*
X124972380Y-61770476D02*
X124972380Y-62532380D01*
X125067619Y-62770476D02*
X126067619Y-62770476D01*
X125067619Y-63341904D02*
X125639047Y-62913333D01*
X126067619Y-63341904D02*
X125496190Y-62770476D01*
X125115238Y-64151428D02*
X125067619Y-64056190D01*
X125067619Y-63865714D01*
X125115238Y-63770476D01*
X125210476Y-63722857D01*
X125591428Y-63722857D01*
X125686666Y-63770476D01*
X125734285Y-63865714D01*
X125734285Y-64056190D01*
X125686666Y-64151428D01*
X125591428Y-64199047D01*
X125496190Y-64199047D01*
X125400952Y-63722857D01*
X125734285Y-64532380D02*
X125067619Y-64770476D01*
X125734285Y-65008571D02*
X125067619Y-64770476D01*
X124829523Y-64675238D01*
X124781904Y-64627619D01*
X124734285Y-64532380D01*
X108327619Y-73332380D02*
X107994285Y-72856190D01*
X107756190Y-73332380D02*
X107756190Y-72332380D01*
X108137142Y-72332380D01*
X108232380Y-72380000D01*
X108280000Y-72427619D01*
X108327619Y-72522857D01*
X108327619Y-72665714D01*
X108280000Y-72760952D01*
X108232380Y-72808571D01*
X108137142Y-72856190D01*
X107756190Y-72856190D01*
X109137142Y-73284761D02*
X109041904Y-73332380D01*
X108851428Y-73332380D01*
X108756190Y-73284761D01*
X108708571Y-73189523D01*
X108708571Y-72808571D01*
X108756190Y-72713333D01*
X108851428Y-72665714D01*
X109041904Y-72665714D01*
X109137142Y-72713333D01*
X109184761Y-72808571D01*
X109184761Y-72903809D01*
X108708571Y-72999047D01*
X109613333Y-73332380D02*
X109613333Y-72665714D01*
X109613333Y-72760952D02*
X109660952Y-72713333D01*
X109756190Y-72665714D01*
X109899047Y-72665714D01*
X109994285Y-72713333D01*
X110041904Y-72808571D01*
X110041904Y-73332380D01*
X110041904Y-72808571D02*
X110089523Y-72713333D01*
X110184761Y-72665714D01*
X110327619Y-72665714D01*
X110422857Y-72713333D01*
X110470476Y-72808571D01*
X110470476Y-73332380D01*
X111089523Y-73332380D02*
X110994285Y-73284761D01*
X110946666Y-73237142D01*
X110899047Y-73141904D01*
X110899047Y-72856190D01*
X110946666Y-72760952D01*
X110994285Y-72713333D01*
X111089523Y-72665714D01*
X111232380Y-72665714D01*
X111327619Y-72713333D01*
X111375238Y-72760952D01*
X111422857Y-72856190D01*
X111422857Y-73141904D01*
X111375238Y-73237142D01*
X111327619Y-73284761D01*
X111232380Y-73332380D01*
X111089523Y-73332380D01*
X111708571Y-72665714D02*
X112089523Y-72665714D01*
X111851428Y-72332380D02*
X111851428Y-73189523D01*
X111899047Y-73284761D01*
X111994285Y-73332380D01*
X112089523Y-73332380D01*
X112803809Y-73284761D02*
X112708571Y-73332380D01*
X112518095Y-73332380D01*
X112422857Y-73284761D01*
X112375238Y-73189523D01*
X112375238Y-72808571D01*
X112422857Y-72713333D01*
X112518095Y-72665714D01*
X112708571Y-72665714D01*
X112803809Y-72713333D01*
X112851428Y-72808571D01*
X112851428Y-72903809D01*
X112375238Y-72999047D01*
X96609523Y-75962380D02*
X96133333Y-75962380D01*
X96085714Y-76438571D01*
X96133333Y-76390952D01*
X96228571Y-76343333D01*
X96466666Y-76343333D01*
X96561904Y-76390952D01*
X96609523Y-76438571D01*
X96657142Y-76533809D01*
X96657142Y-76771904D01*
X96609523Y-76867142D01*
X96561904Y-76914761D01*
X96466666Y-76962380D01*
X96228571Y-76962380D01*
X96133333Y-76914761D01*
X96085714Y-76867142D01*
X96942857Y-75962380D02*
X97276190Y-76962380D01*
X97609523Y-75962380D01*
X91327142Y-73522380D02*
X91374761Y-73570000D01*
X91422380Y-73712857D01*
X91422380Y-73808095D01*
X91374761Y-73950952D01*
X91279523Y-74046190D01*
X91184285Y-74093809D01*
X90993809Y-74141428D01*
X90850952Y-74141428D01*
X90660476Y-74093809D01*
X90565238Y-74046190D01*
X90470000Y-73950952D01*
X90422380Y-73808095D01*
X90422380Y-73712857D01*
X90470000Y-73570000D01*
X90517619Y-73522380D01*
X91422380Y-72665238D02*
X90898571Y-72665238D01*
X90803333Y-72712857D01*
X90755714Y-72808095D01*
X90755714Y-72998571D01*
X90803333Y-73093809D01*
X91374761Y-72665238D02*
X91422380Y-72760476D01*
X91422380Y-72998571D01*
X91374761Y-73093809D01*
X91279523Y-73141428D01*
X91184285Y-73141428D01*
X91089047Y-73093809D01*
X91041428Y-72998571D01*
X91041428Y-72760476D01*
X90993809Y-72665238D01*
X91422380Y-72189047D02*
X90755714Y-72189047D01*
X90946190Y-72189047D02*
X90850952Y-72141428D01*
X90803333Y-72093809D01*
X90755714Y-71998571D01*
X90755714Y-71903333D01*
X94231904Y-69742380D02*
X94850952Y-69742380D01*
X94517619Y-70123333D01*
X94660476Y-70123333D01*
X94755714Y-70170952D01*
X94803333Y-70218571D01*
X94850952Y-70313809D01*
X94850952Y-70551904D01*
X94803333Y-70647142D01*
X94755714Y-70694761D01*
X94660476Y-70742380D01*
X94374761Y-70742380D01*
X94279523Y-70694761D01*
X94231904Y-70647142D01*
X95136666Y-69742380D02*
X95470000Y-70742380D01*
X95803333Y-69742380D01*
X96041428Y-69742380D02*
X96660476Y-69742380D01*
X96327142Y-70123333D01*
X96470000Y-70123333D01*
X96565238Y-70170952D01*
X96612857Y-70218571D01*
X96660476Y-70313809D01*
X96660476Y-70551904D01*
X96612857Y-70647142D01*
X96565238Y-70694761D01*
X96470000Y-70742380D01*
X96184285Y-70742380D01*
X96089047Y-70694761D01*
X96041428Y-70647142D01*
X97448571Y-60038095D02*
X97496190Y-59895238D01*
X97543809Y-59847619D01*
X97639047Y-59800000D01*
X97781904Y-59800000D01*
X97877142Y-59847619D01*
X97924761Y-59895238D01*
X97972380Y-59990476D01*
X97972380Y-60371428D01*
X96972380Y-60371428D01*
X96972380Y-60038095D01*
X97020000Y-59942857D01*
X97067619Y-59895238D01*
X97162857Y-59847619D01*
X97258095Y-59847619D01*
X97353333Y-59895238D01*
X97400952Y-59942857D01*
X97448571Y-60038095D01*
X97448571Y-60371428D01*
X96972380Y-59514285D02*
X96972380Y-58942857D01*
X97972380Y-59228571D02*
X96972380Y-59228571D01*
X98067619Y-58847619D02*
X98067619Y-58085714D01*
X97972380Y-57276190D02*
X97496190Y-57609523D01*
X97972380Y-57847619D02*
X96972380Y-57847619D01*
X96972380Y-57466666D01*
X97020000Y-57371428D01*
X97067619Y-57323809D01*
X97162857Y-57276190D01*
X97305714Y-57276190D01*
X97400952Y-57323809D01*
X97448571Y-57371428D01*
X97496190Y-57466666D01*
X97496190Y-57847619D01*
X97924761Y-56466666D02*
X97972380Y-56561904D01*
X97972380Y-56752380D01*
X97924761Y-56847619D01*
X97829523Y-56895238D01*
X97448571Y-56895238D01*
X97353333Y-56847619D01*
X97305714Y-56752380D01*
X97305714Y-56561904D01*
X97353333Y-56466666D01*
X97448571Y-56419047D01*
X97543809Y-56419047D01*
X97639047Y-56895238D01*
X97924761Y-56038095D02*
X97972380Y-55942857D01*
X97972380Y-55752380D01*
X97924761Y-55657142D01*
X97829523Y-55609523D01*
X97781904Y-55609523D01*
X97686666Y-55657142D01*
X97639047Y-55752380D01*
X97639047Y-55895238D01*
X97591428Y-55990476D01*
X97496190Y-56038095D01*
X97448571Y-56038095D01*
X97353333Y-55990476D01*
X97305714Y-55895238D01*
X97305714Y-55752380D01*
X97353333Y-55657142D01*
X97924761Y-54800000D02*
X97972380Y-54895238D01*
X97972380Y-55085714D01*
X97924761Y-55180952D01*
X97829523Y-55228571D01*
X97448571Y-55228571D01*
X97353333Y-55180952D01*
X97305714Y-55085714D01*
X97305714Y-54895238D01*
X97353333Y-54800000D01*
X97448571Y-54752380D01*
X97543809Y-54752380D01*
X97639047Y-55228571D01*
X97305714Y-54466666D02*
X97305714Y-54085714D01*
X96972380Y-54323809D02*
X97829523Y-54323809D01*
X97924761Y-54276190D01*
X97972380Y-54180952D01*
X97972380Y-54085714D01*
X100803333Y-59578571D02*
X100946190Y-59626190D01*
X100993809Y-59673809D01*
X101041428Y-59769047D01*
X101041428Y-59911904D01*
X100993809Y-60007142D01*
X100946190Y-60054761D01*
X100850952Y-60102380D01*
X100470000Y-60102380D01*
X100470000Y-59102380D01*
X100803333Y-59102380D01*
X100898571Y-59150000D01*
X100946190Y-59197619D01*
X100993809Y-59292857D01*
X100993809Y-59388095D01*
X100946190Y-59483333D01*
X100898571Y-59530952D01*
X100803333Y-59578571D01*
X100470000Y-59578571D01*
X101327142Y-59102380D02*
X101898571Y-59102380D01*
X101612857Y-60102380D02*
X101612857Y-59102380D01*
X101993809Y-60197619D02*
X102755714Y-60197619D01*
X103565238Y-60102380D02*
X103231904Y-59626190D01*
X102993809Y-60102380D02*
X102993809Y-59102380D01*
X103374761Y-59102380D01*
X103470000Y-59150000D01*
X103517619Y-59197619D01*
X103565238Y-59292857D01*
X103565238Y-59435714D01*
X103517619Y-59530952D01*
X103470000Y-59578571D01*
X103374761Y-59626190D01*
X102993809Y-59626190D01*
X103898571Y-59102380D02*
X104565238Y-60102380D01*
X104565238Y-59102380D02*
X103898571Y-60102380D01*
X97692380Y-49838571D02*
X97835238Y-49886190D01*
X97882857Y-49933809D01*
X97930476Y-50029047D01*
X97930476Y-50171904D01*
X97882857Y-50267142D01*
X97835238Y-50314761D01*
X97740000Y-50362380D01*
X97359047Y-50362380D01*
X97359047Y-49362380D01*
X97692380Y-49362380D01*
X97787619Y-49410000D01*
X97835238Y-49457619D01*
X97882857Y-49552857D01*
X97882857Y-49648095D01*
X97835238Y-49743333D01*
X97787619Y-49790952D01*
X97692380Y-49838571D01*
X97359047Y-49838571D01*
X98216190Y-49362380D02*
X98787619Y-49362380D01*
X98501904Y-50362380D02*
X98501904Y-49362380D01*
X98882857Y-50457619D02*
X99644761Y-50457619D01*
X99740000Y-49362380D02*
X100311428Y-49362380D01*
X100025714Y-50362380D02*
X100025714Y-49362380D01*
X100549523Y-49362380D02*
X101216190Y-50362380D01*
X101216190Y-49362380D02*
X100549523Y-50362380D01*
D12*
%TO.C,IC4*%
X99330000Y-82495000D02*
X99330000Y-82495000D01*
X99230000Y-82495000D02*
X99230000Y-82495000D01*
X99330000Y-82495000D02*
X99330000Y-82495000D01*
X99230000Y-82495000D02*
G75*
G02*
X99330000Y-82495000I50000J0D01*
G01*
X99330000Y-82495000D02*
G75*
G02*
X99230000Y-82495000I-50000J0D01*
G01*
X99230000Y-82495000D02*
G75*
G02*
X99330000Y-82495000I50000J0D01*
G01*
D13*
%TO.C,U1*%
X141562220Y-65758480D02*
X142037220Y-65758480D01*
X142037220Y-65758480D02*
X142037220Y-66233480D01*
X137292220Y-70978480D02*
X136817220Y-70978480D01*
X136817220Y-70978480D02*
X136817220Y-70503480D01*
X141562220Y-70978480D02*
X142037220Y-70978480D01*
X142037220Y-70978480D02*
X142037220Y-70503480D01*
X137292220Y-65758480D02*
X136817220Y-65758480D01*
D14*
%TO.C,IC2*%
X162375000Y-66465000D02*
X162375000Y-64990000D01*
X167400000Y-64640000D02*
X162400000Y-64640000D01*
X167400000Y-60940000D02*
X167400000Y-64640000D01*
X162400000Y-60940000D02*
X167400000Y-60940000D01*
X162400000Y-64640000D02*
X162400000Y-60940000D01*
D13*
%TO.C,TP13*%
X101844200Y-58467400D02*
X101844200Y-56067400D01*
X104244200Y-58467400D02*
X101844200Y-58467400D01*
X104244200Y-56067400D02*
X104244200Y-58467400D01*
X101844200Y-56067400D02*
X104244200Y-56067400D01*
%TO.C,TP12*%
X101844200Y-51152200D02*
X101844200Y-48752200D01*
X104244200Y-51152200D02*
X101844200Y-51152200D01*
X104244200Y-48752200D02*
X104244200Y-51152200D01*
X101844200Y-48752200D02*
X104244200Y-48752200D01*
D12*
%TO.C,Y1*%
X131105000Y-69820000D02*
X131105000Y-69820000D01*
X131105000Y-69720000D02*
X131105000Y-69720000D01*
X134055000Y-70620000D02*
X134055000Y-71220000D01*
X132605000Y-72520000D02*
X133005000Y-72520000D01*
X131555000Y-70620000D02*
X131555000Y-71220000D01*
X133005000Y-69320000D02*
X132605000Y-69320000D01*
X131105000Y-69720000D02*
G75*
G03*
X131105000Y-69820000I0J-50000D01*
G01*
X131105000Y-69820000D02*
G75*
G03*
X131105000Y-69720000I0J50000D01*
G01*
D13*
%TO.C,J11*%
X156550000Y-88350000D02*
X148810000Y-88350000D01*
X148810000Y-88350000D02*
X148810000Y-91010000D01*
X148810000Y-91010000D02*
X156550000Y-91010000D01*
X156550000Y-91010000D02*
X156550000Y-88350000D01*
X155600000Y-91010000D02*
X155600000Y-97010000D01*
X155600000Y-97010000D02*
X154840000Y-97010000D01*
X154840000Y-97010000D02*
X154840000Y-91010000D01*
X155540000Y-91010000D02*
X155540000Y-97010000D01*
X155420000Y-91010000D02*
X155420000Y-97010000D01*
X155300000Y-91010000D02*
X155300000Y-97010000D01*
X155180000Y-91010000D02*
X155180000Y-97010000D01*
X155060000Y-91010000D02*
X155060000Y-97010000D01*
X154940000Y-91010000D02*
X154940000Y-97010000D01*
X155600000Y-88020000D02*
X155600000Y-88350000D01*
X154840000Y-88020000D02*
X154840000Y-88350000D01*
X153950000Y-88350000D02*
X153950000Y-91010000D01*
X153060000Y-91010000D02*
X153060000Y-97010000D01*
X153060000Y-97010000D02*
X152300000Y-97010000D01*
X152300000Y-97010000D02*
X152300000Y-91010000D01*
X153060000Y-87952929D02*
X153060000Y-88350000D01*
X152300000Y-87952929D02*
X152300000Y-88350000D01*
X151410000Y-88350000D02*
X151410000Y-91010000D01*
X150520000Y-91010000D02*
X150520000Y-97010000D01*
X150520000Y-97010000D02*
X149760000Y-97010000D01*
X149760000Y-97010000D02*
X149760000Y-91010000D01*
X150520000Y-87952929D02*
X150520000Y-88350000D01*
X149760000Y-87952929D02*
X149760000Y-88350000D01*
X155220000Y-85640000D02*
X156490000Y-85640000D01*
X156490000Y-85640000D02*
X156490000Y-86910000D01*
%TO.C,J10*%
X147690000Y-88350000D02*
X139950000Y-88350000D01*
X139950000Y-88350000D02*
X139950000Y-91010000D01*
X139950000Y-91010000D02*
X147690000Y-91010000D01*
X147690000Y-91010000D02*
X147690000Y-88350000D01*
X146740000Y-91010000D02*
X146740000Y-97010000D01*
X146740000Y-97010000D02*
X145980000Y-97010000D01*
X145980000Y-97010000D02*
X145980000Y-91010000D01*
X146680000Y-91010000D02*
X146680000Y-97010000D01*
X146560000Y-91010000D02*
X146560000Y-97010000D01*
X146440000Y-91010000D02*
X146440000Y-97010000D01*
X146320000Y-91010000D02*
X146320000Y-97010000D01*
X146200000Y-91010000D02*
X146200000Y-97010000D01*
X146080000Y-91010000D02*
X146080000Y-97010000D01*
X146740000Y-88020000D02*
X146740000Y-88350000D01*
X145980000Y-88020000D02*
X145980000Y-88350000D01*
X145090000Y-88350000D02*
X145090000Y-91010000D01*
X144200000Y-91010000D02*
X144200000Y-97010000D01*
X144200000Y-97010000D02*
X143440000Y-97010000D01*
X143440000Y-97010000D02*
X143440000Y-91010000D01*
X144200000Y-87952929D02*
X144200000Y-88350000D01*
X143440000Y-87952929D02*
X143440000Y-88350000D01*
X142550000Y-88350000D02*
X142550000Y-91010000D01*
X141660000Y-91010000D02*
X141660000Y-97010000D01*
X141660000Y-97010000D02*
X140900000Y-97010000D01*
X140900000Y-97010000D02*
X140900000Y-91010000D01*
X141660000Y-87952929D02*
X141660000Y-88350000D01*
X140900000Y-87952929D02*
X140900000Y-88350000D01*
X146360000Y-85640000D02*
X147630000Y-85640000D01*
X147630000Y-85640000D02*
X147630000Y-86910000D01*
%TO.C,J9*%
X138820000Y-88360000D02*
X131080000Y-88360000D01*
X131080000Y-88360000D02*
X131080000Y-91020000D01*
X131080000Y-91020000D02*
X138820000Y-91020000D01*
X138820000Y-91020000D02*
X138820000Y-88360000D01*
X137870000Y-91020000D02*
X137870000Y-97020000D01*
X137870000Y-97020000D02*
X137110000Y-97020000D01*
X137110000Y-97020000D02*
X137110000Y-91020000D01*
X137810000Y-91020000D02*
X137810000Y-97020000D01*
X137690000Y-91020000D02*
X137690000Y-97020000D01*
X137570000Y-91020000D02*
X137570000Y-97020000D01*
X137450000Y-91020000D02*
X137450000Y-97020000D01*
X137330000Y-91020000D02*
X137330000Y-97020000D01*
X137210000Y-91020000D02*
X137210000Y-97020000D01*
X137870000Y-88030000D02*
X137870000Y-88360000D01*
X137110000Y-88030000D02*
X137110000Y-88360000D01*
X136220000Y-88360000D02*
X136220000Y-91020000D01*
X135330000Y-91020000D02*
X135330000Y-97020000D01*
X135330000Y-97020000D02*
X134570000Y-97020000D01*
X134570000Y-97020000D02*
X134570000Y-91020000D01*
X135330000Y-87962929D02*
X135330000Y-88360000D01*
X134570000Y-87962929D02*
X134570000Y-88360000D01*
X133680000Y-88360000D02*
X133680000Y-91020000D01*
X132790000Y-91020000D02*
X132790000Y-97020000D01*
X132790000Y-97020000D02*
X132030000Y-97020000D01*
X132030000Y-97020000D02*
X132030000Y-91020000D01*
X132790000Y-87962929D02*
X132790000Y-88360000D01*
X132030000Y-87962929D02*
X132030000Y-88360000D01*
X137490000Y-85650000D02*
X138760000Y-85650000D01*
X138760000Y-85650000D02*
X138760000Y-86920000D01*
%TO.C,J8*%
X129950000Y-88350000D02*
X122210000Y-88350000D01*
X122210000Y-88350000D02*
X122210000Y-91010000D01*
X122210000Y-91010000D02*
X129950000Y-91010000D01*
X129950000Y-91010000D02*
X129950000Y-88350000D01*
X129000000Y-91010000D02*
X129000000Y-97010000D01*
X129000000Y-97010000D02*
X128240000Y-97010000D01*
X128240000Y-97010000D02*
X128240000Y-91010000D01*
X128940000Y-91010000D02*
X128940000Y-97010000D01*
X128820000Y-91010000D02*
X128820000Y-97010000D01*
X128700000Y-91010000D02*
X128700000Y-97010000D01*
X128580000Y-91010000D02*
X128580000Y-97010000D01*
X128460000Y-91010000D02*
X128460000Y-97010000D01*
X128340000Y-91010000D02*
X128340000Y-97010000D01*
X129000000Y-88020000D02*
X129000000Y-88350000D01*
X128240000Y-88020000D02*
X128240000Y-88350000D01*
X127350000Y-88350000D02*
X127350000Y-91010000D01*
X126460000Y-91010000D02*
X126460000Y-97010000D01*
X126460000Y-97010000D02*
X125700000Y-97010000D01*
X125700000Y-97010000D02*
X125700000Y-91010000D01*
X126460000Y-87952929D02*
X126460000Y-88350000D01*
X125700000Y-87952929D02*
X125700000Y-88350000D01*
X124810000Y-88350000D02*
X124810000Y-91010000D01*
X123920000Y-91010000D02*
X123920000Y-97010000D01*
X123920000Y-97010000D02*
X123160000Y-97010000D01*
X123160000Y-97010000D02*
X123160000Y-91010000D01*
X123920000Y-87952929D02*
X123920000Y-88350000D01*
X123160000Y-87952929D02*
X123160000Y-88350000D01*
X128620000Y-85640000D02*
X129890000Y-85640000D01*
X129890000Y-85640000D02*
X129890000Y-86910000D01*
%TO.C,J7*%
X121110000Y-88350000D02*
X113370000Y-88350000D01*
X113370000Y-88350000D02*
X113370000Y-91010000D01*
X113370000Y-91010000D02*
X121110000Y-91010000D01*
X121110000Y-91010000D02*
X121110000Y-88350000D01*
X120160000Y-91010000D02*
X120160000Y-97010000D01*
X120160000Y-97010000D02*
X119400000Y-97010000D01*
X119400000Y-97010000D02*
X119400000Y-91010000D01*
X120100000Y-91010000D02*
X120100000Y-97010000D01*
X119980000Y-91010000D02*
X119980000Y-97010000D01*
X119860000Y-91010000D02*
X119860000Y-97010000D01*
X119740000Y-91010000D02*
X119740000Y-97010000D01*
X119620000Y-91010000D02*
X119620000Y-97010000D01*
X119500000Y-91010000D02*
X119500000Y-97010000D01*
X120160000Y-88020000D02*
X120160000Y-88350000D01*
X119400000Y-88020000D02*
X119400000Y-88350000D01*
X118510000Y-88350000D02*
X118510000Y-91010000D01*
X117620000Y-91010000D02*
X117620000Y-97010000D01*
X117620000Y-97010000D02*
X116860000Y-97010000D01*
X116860000Y-97010000D02*
X116860000Y-91010000D01*
X117620000Y-87952929D02*
X117620000Y-88350000D01*
X116860000Y-87952929D02*
X116860000Y-88350000D01*
X115970000Y-88350000D02*
X115970000Y-91010000D01*
X115080000Y-91010000D02*
X115080000Y-97010000D01*
X115080000Y-97010000D02*
X114320000Y-97010000D01*
X114320000Y-97010000D02*
X114320000Y-91010000D01*
X115080000Y-87952929D02*
X115080000Y-88350000D01*
X114320000Y-87952929D02*
X114320000Y-88350000D01*
X119780000Y-85640000D02*
X121050000Y-85640000D01*
X121050000Y-85640000D02*
X121050000Y-86910000D01*
%TO.C,TP11*%
X96640000Y-66850000D02*
X96640000Y-69250000D01*
X94240000Y-66850000D02*
X96640000Y-66850000D01*
X94240000Y-69250000D02*
X94240000Y-66850000D01*
X96640000Y-69250000D02*
X94240000Y-69250000D01*
%TO.C,TP10*%
X95627200Y-79788000D02*
X95627200Y-77388000D01*
X98027200Y-79788000D02*
X95627200Y-79788000D01*
X98027200Y-77388000D02*
X98027200Y-79788000D01*
X95627200Y-77388000D02*
X98027200Y-77388000D01*
%TO.C,TP9*%
X98685000Y-58455000D02*
X98685000Y-56055000D01*
X101085000Y-58455000D02*
X98685000Y-58455000D01*
X101085000Y-56055000D02*
X101085000Y-58455000D01*
X98685000Y-56055000D02*
X101085000Y-56055000D01*
%TO.C,TP8*%
X122000000Y-63860000D02*
X122000000Y-61460000D01*
X124400000Y-63860000D02*
X122000000Y-63860000D01*
X124400000Y-61460000D02*
X124400000Y-63860000D01*
X122000000Y-61460000D02*
X124400000Y-61460000D01*
%TO.C,TP7*%
X127606000Y-51762000D02*
X127606000Y-54162000D01*
X125206000Y-51762000D02*
X127606000Y-51762000D01*
X125206000Y-54162000D02*
X125206000Y-51762000D01*
X127606000Y-54162000D02*
X125206000Y-54162000D01*
%TO.C,TP6*%
X87640000Y-74230000D02*
X87640000Y-71830000D01*
X90040000Y-74230000D02*
X87640000Y-74230000D01*
X90040000Y-71830000D02*
X90040000Y-74230000D01*
X87640000Y-71830000D02*
X90040000Y-71830000D01*
%TO.C,TP5*%
X129256000Y-58072000D02*
X129256000Y-60472000D01*
X126856000Y-58072000D02*
X129256000Y-58072000D01*
X126856000Y-60472000D02*
X126856000Y-58072000D01*
X129256000Y-60472000D02*
X126856000Y-60472000D01*
%TO.C,TP4*%
X144735000Y-53930000D02*
X144735000Y-51530000D01*
X147135000Y-53930000D02*
X144735000Y-53930000D01*
X147135000Y-51530000D02*
X147135000Y-53930000D01*
X144735000Y-51530000D02*
X147135000Y-51530000D01*
%TO.C,TP3*%
X148010000Y-57200000D02*
X148010000Y-54800000D01*
X150410000Y-57200000D02*
X148010000Y-57200000D01*
X150410000Y-54800000D02*
X150410000Y-57200000D01*
X148010000Y-54800000D02*
X150410000Y-54800000D01*
%TO.C,TP2*%
X147970000Y-53920000D02*
X147970000Y-51520000D01*
X150370000Y-53920000D02*
X147970000Y-53920000D01*
X150370000Y-51520000D02*
X150370000Y-53920000D01*
X147970000Y-51520000D02*
X150370000Y-51520000D01*
%TO.C,SW1*%
X131220214Y-47750000D02*
G75*
G03*
X131220214Y-47750000I-1414214J0D01*
G01*
X126686000Y-49090000D02*
X126686000Y-46410000D01*
X126836000Y-50870000D02*
X132776000Y-50870000D01*
X126836000Y-44630000D02*
X132776000Y-44630000D01*
X132926000Y-46410000D02*
X132926000Y-49090000D01*
%TO.C,R12*%
X96889721Y-85410000D02*
X97215279Y-85410000D01*
X96889721Y-84390000D02*
X97215279Y-84390000D01*
%TO.C,R11*%
X97330000Y-82437221D02*
X97330000Y-82762779D01*
X98350000Y-82437221D02*
X98350000Y-82762779D01*
%TO.C,R10*%
X128296000Y-52826721D02*
X128296000Y-53152279D01*
X129316000Y-52826721D02*
X129316000Y-53152279D01*
%TO.C,R9*%
X101772200Y-52964521D02*
X101772200Y-53290079D01*
X102792200Y-52964521D02*
X102792200Y-53290079D01*
%TO.C,R8*%
X104367000Y-53289879D02*
X104367000Y-52964321D01*
X103347000Y-53289879D02*
X103347000Y-52964321D01*
%TO.C,R7*%
X141234721Y-59160000D02*
X141560279Y-59160000D01*
X141234721Y-58140000D02*
X141560279Y-58140000D01*
%TO.C,R6*%
X141219721Y-60810000D02*
X141545279Y-60810000D01*
X141219721Y-59790000D02*
X141545279Y-59790000D01*
%TO.C,R5*%
X132319721Y-52620000D02*
X132645279Y-52620000D01*
X132319721Y-51600000D02*
X132645279Y-51600000D01*
%TO.C,R4*%
X132215000Y-56062779D02*
X132215000Y-55737221D01*
X131195000Y-56062779D02*
X131195000Y-55737221D01*
%TO.C,R3*%
X141572779Y-56530000D02*
X141247221Y-56530000D01*
X141572779Y-57550000D02*
X141247221Y-57550000D01*
%TO.C,R2*%
X133365279Y-53150000D02*
X133039721Y-53150000D01*
X133365279Y-54170000D02*
X133039721Y-54170000D01*
%TO.C,R1*%
X121790000Y-75602779D02*
X121790000Y-75277221D01*
X120770000Y-75602779D02*
X120770000Y-75277221D01*
%TO.C,L1*%
X104789721Y-83910000D02*
X105115279Y-83910000D01*
X104789721Y-82890000D02*
X105115279Y-82890000D01*
D14*
%TO.C,K1*%
X119240000Y-78600000D02*
X119240000Y-78600000D01*
X119040000Y-78600000D02*
X119040000Y-78600000D01*
D12*
X114435000Y-74456000D02*
X118245000Y-74455000D01*
X114435000Y-78544000D02*
X118245000Y-78544000D01*
X118245000Y-77000000D02*
X118245000Y-76000000D01*
X114435000Y-77000000D02*
X114435000Y-76000000D01*
D14*
X119040000Y-78600000D02*
G75*
G02*
X119240000Y-78600000I100000J0D01*
G01*
X119240000Y-78600000D02*
G75*
G02*
X119040000Y-78600000I-100000J0D01*
G01*
D13*
%TO.C,JP5*%
X151550000Y-84620000D02*
X148750000Y-84620000D01*
X148100000Y-83920000D02*
X148100000Y-83320000D01*
X148750000Y-82620000D02*
X151550000Y-82620000D01*
X152200000Y-83320000D02*
X152200000Y-83920000D01*
X152200000Y-83920000D02*
G75*
G02*
X151500000Y-84620000I-700000J0D01*
G01*
X151500000Y-82620000D02*
G75*
G02*
X152200000Y-83320000I0J-700000D01*
G01*
X148100000Y-83320000D02*
G75*
G02*
X148800000Y-82620000I700000J0D01*
G01*
X148800000Y-84620000D02*
G75*
G02*
X148100000Y-83920000I0J700000D01*
G01*
%TO.C,JP4*%
X142680000Y-84640000D02*
X139880000Y-84640000D01*
X139230000Y-83940000D02*
X139230000Y-83340000D01*
X139880000Y-82640000D02*
X142680000Y-82640000D01*
X143330000Y-83340000D02*
X143330000Y-83940000D01*
X143330000Y-83940000D02*
G75*
G02*
X142630000Y-84640000I-700000J0D01*
G01*
X142630000Y-82640000D02*
G75*
G02*
X143330000Y-83340000I0J-700000D01*
G01*
X139230000Y-83340000D02*
G75*
G02*
X139930000Y-82640000I700000J0D01*
G01*
X139930000Y-84640000D02*
G75*
G02*
X139230000Y-83940000I0J700000D01*
G01*
%TO.C,JP3*%
X133810000Y-84650000D02*
X131010000Y-84650000D01*
X130360000Y-83950000D02*
X130360000Y-83350000D01*
X131010000Y-82650000D02*
X133810000Y-82650000D01*
X134460000Y-83350000D02*
X134460000Y-83950000D01*
X134460000Y-83950000D02*
G75*
G02*
X133760000Y-84650000I-700000J0D01*
G01*
X133760000Y-82650000D02*
G75*
G02*
X134460000Y-83350000I0J-700000D01*
G01*
X130360000Y-83350000D02*
G75*
G02*
X131060000Y-82650000I700000J0D01*
G01*
X131060000Y-84650000D02*
G75*
G02*
X130360000Y-83950000I0J700000D01*
G01*
%TO.C,JP2*%
X124960000Y-84650000D02*
X122160000Y-84650000D01*
X121510000Y-83950000D02*
X121510000Y-83350000D01*
X122160000Y-82650000D02*
X124960000Y-82650000D01*
X125610000Y-83350000D02*
X125610000Y-83950000D01*
X125610000Y-83950000D02*
G75*
G02*
X124910000Y-84650000I-700000J0D01*
G01*
X124910000Y-82650000D02*
G75*
G02*
X125610000Y-83350000I0J-700000D01*
G01*
X121510000Y-83350000D02*
G75*
G02*
X122210000Y-82650000I700000J0D01*
G01*
X122210000Y-84650000D02*
G75*
G02*
X121510000Y-83950000I0J700000D01*
G01*
%TO.C,JP1*%
X116110000Y-84650000D02*
X113310000Y-84650000D01*
X112660000Y-83950000D02*
X112660000Y-83350000D01*
X113310000Y-82650000D02*
X116110000Y-82650000D01*
X116760000Y-83350000D02*
X116760000Y-83950000D01*
X116760000Y-83950000D02*
G75*
G02*
X116060000Y-84650000I-700000J0D01*
G01*
X116060000Y-82650000D02*
G75*
G02*
X116760000Y-83350000I0J-700000D01*
G01*
X112660000Y-83350000D02*
G75*
G02*
X113360000Y-82650000I700000J0D01*
G01*
X113360000Y-84650000D02*
G75*
G02*
X112660000Y-83950000I0J700000D01*
G01*
%TO.C,J14*%
X86320000Y-85710000D02*
X84990000Y-85710000D01*
X86320000Y-84380000D02*
X86320000Y-85710000D01*
X86320000Y-83110000D02*
X83660000Y-83110000D01*
X83660000Y-83110000D02*
X83660000Y-75430000D01*
X86320000Y-83110000D02*
X86320000Y-75430000D01*
X86320000Y-75430000D02*
X83660000Y-75430000D01*
%TO.C,J13*%
X86330000Y-73770000D02*
X85000000Y-73770000D01*
X86330000Y-72440000D02*
X86330000Y-73770000D01*
X86330000Y-71170000D02*
X83670000Y-71170000D01*
X83670000Y-71170000D02*
X83670000Y-63490000D01*
X86330000Y-71170000D02*
X86330000Y-63490000D01*
X86330000Y-63490000D02*
X83670000Y-63490000D01*
%TO.C,J12*%
X155490000Y-69100000D02*
X156820000Y-69100000D01*
X155490000Y-70430000D02*
X155490000Y-69100000D01*
X155490000Y-71700000D02*
X158150000Y-71700000D01*
X158150000Y-71700000D02*
X158150000Y-76840000D01*
X155490000Y-71700000D02*
X155490000Y-76840000D01*
X155490000Y-76840000D02*
X158150000Y-76840000D01*
D14*
%TO.C,J6*%
X91650000Y-59860000D02*
X91650000Y-59860000D01*
X91650000Y-59960000D02*
X91650000Y-59960000D01*
X91650000Y-59860000D02*
X91650000Y-59860000D01*
D12*
X85350000Y-57960000D02*
X84350000Y-57960000D01*
X85350000Y-57960000D02*
X85350000Y-57960000D01*
X84350000Y-57960000D02*
X85350000Y-57960000D01*
X84350000Y-57960000D02*
X84350000Y-57960000D01*
X84350000Y-43460000D02*
X84350000Y-43460000D01*
X84350000Y-57960000D02*
X84350000Y-43460000D01*
X84350000Y-57960000D02*
X84350000Y-57960000D01*
X84350000Y-43460000D02*
X84350000Y-57960000D01*
X84350000Y-43460000D02*
X93350000Y-43460000D01*
X84350000Y-43460000D02*
X84350000Y-43460000D01*
X93350000Y-43460000D02*
X84350000Y-43460000D01*
X93350000Y-43460000D02*
X93350000Y-43460000D01*
X93350000Y-57960000D02*
X93350000Y-57960000D01*
X93350000Y-43460000D02*
X93350000Y-57960000D01*
X93350000Y-43460000D02*
X93350000Y-43460000D01*
X93350000Y-57960000D02*
X93350000Y-43460000D01*
X93350000Y-57960000D02*
X92100000Y-57960000D01*
X93350000Y-57960000D02*
X93350000Y-57960000D01*
X92100000Y-57960000D02*
X93350000Y-57960000D01*
X92100000Y-57960000D02*
X92100000Y-57960000D01*
D14*
X91650000Y-59960000D02*
G75*
G02*
X91650000Y-59860000I0J50000D01*
G01*
X91650000Y-59860000D02*
G75*
G02*
X91650000Y-59960000I0J-50000D01*
G01*
X91650000Y-59960000D02*
G75*
G02*
X91650000Y-59860000I0J50000D01*
G01*
%TO.C,J5*%
X170545000Y-65030000D02*
X170545000Y-65030000D01*
X170745000Y-65030000D02*
X170745000Y-65030000D01*
D12*
X171620000Y-49730000D02*
X171620000Y-58030000D01*
X171620000Y-71730000D02*
X171620000Y-62180000D01*
X181870000Y-44330000D02*
X181870000Y-71730000D01*
D14*
X170745000Y-65030000D02*
G75*
G02*
X170545000Y-65030000I-100000J0D01*
G01*
X170545000Y-65030000D02*
G75*
G02*
X170745000Y-65030000I100000J0D01*
G01*
D13*
%TO.C,J4*%
X150480000Y-47545000D02*
X150480000Y-46215000D01*
X151810000Y-47545000D02*
X150480000Y-47545000D01*
X153080000Y-47545000D02*
X153080000Y-44885000D01*
X153080000Y-44885000D02*
X160760000Y-44885000D01*
X153080000Y-47545000D02*
X160760000Y-47545000D01*
X160760000Y-47545000D02*
X160760000Y-44885000D01*
D14*
%TO.C,J3*%
X167800000Y-75945000D02*
X167800000Y-75945000D01*
X167800000Y-76145000D02*
X167800000Y-76145000D01*
D12*
X183100000Y-77020000D02*
X174800000Y-77020000D01*
X161100000Y-77020000D02*
X170650000Y-77020000D01*
X188500000Y-87270000D02*
X161100000Y-87270000D01*
D14*
X167800000Y-76145000D02*
G75*
G02*
X167800000Y-75945000I0J100000D01*
G01*
X167800000Y-75945000D02*
G75*
G02*
X167800000Y-76145000I0J-100000D01*
G01*
D13*
%TO.C,J2*%
X108970000Y-74070000D02*
X110300000Y-74070000D01*
X108970000Y-75400000D02*
X108970000Y-74070000D01*
X108970000Y-76670000D02*
X111630000Y-76670000D01*
X111630000Y-76670000D02*
X111630000Y-79270000D01*
X108970000Y-76670000D02*
X108970000Y-79270000D01*
X108970000Y-79270000D02*
X111630000Y-79270000D01*
D12*
%TO.C,J1*%
X141920000Y-48640000D02*
X141920000Y-48640000D01*
X141920000Y-48540000D02*
X141920000Y-48540000D01*
D14*
X136720000Y-47455000D02*
X136720000Y-46140000D01*
X138620000Y-47455000D02*
X136720000Y-47455000D01*
X144520000Y-47455000D02*
X142620000Y-47455000D01*
X144520000Y-46140000D02*
X144520000Y-47455000D01*
X136720000Y-41825000D02*
X136720000Y-43140000D01*
X144520000Y-41825000D02*
X136720000Y-41825000D01*
X144520000Y-43140000D02*
X144520000Y-41825000D01*
D12*
X141920000Y-48540000D02*
G75*
G02*
X141920000Y-48640000I0J-50000D01*
G01*
X141920000Y-48640000D02*
G75*
G02*
X141920000Y-48540000I0J50000D01*
G01*
D14*
%TO.C,IC5*%
X103873600Y-64046200D02*
X103873600Y-65196200D01*
X100873600Y-65546200D02*
X103873600Y-65546200D01*
X100873600Y-66296200D02*
X100873600Y-65546200D01*
X103873600Y-66296200D02*
X100873600Y-66296200D01*
X103873600Y-65546200D02*
X103873600Y-66296200D01*
%TO.C,IC3*%
X105935000Y-50955000D02*
X105935000Y-50955000D01*
X105935000Y-50755000D02*
X105935000Y-50755000D01*
D12*
X119935000Y-43355000D02*
X119935000Y-49855000D01*
X106935000Y-43355000D02*
X119935000Y-43355000D01*
X106935000Y-49855000D02*
X106935000Y-43355000D01*
X119935000Y-70355000D02*
X119935000Y-69855000D01*
X119435000Y-70355000D02*
X119935000Y-70355000D01*
X106935000Y-70355000D02*
X107435000Y-70355000D01*
X106935000Y-69855000D02*
X106935000Y-70355000D01*
D14*
X105935000Y-50755000D02*
G75*
G03*
X105935000Y-50955000I0J-100000D01*
G01*
X105935000Y-50955000D02*
G75*
G03*
X105935000Y-50755000I0J100000D01*
G01*
D15*
%TO.C,IC1*%
X137305400Y-55567980D02*
G75*
G03*
X137305400Y-55567980I-125000J0D01*
G01*
D13*
%TO.C,D4*%
X143037500Y-59385000D02*
X145322500Y-59385000D01*
X143037500Y-57915000D02*
X143037500Y-59385000D01*
X145322500Y-57915000D02*
X143037500Y-57915000D01*
%TO.C,D3*%
X143022500Y-61035000D02*
X145307500Y-61035000D01*
X143022500Y-59565000D02*
X143022500Y-61035000D01*
X145307500Y-59565000D02*
X143022500Y-59565000D01*
%TO.C,D2*%
X143042500Y-57775000D02*
X145327500Y-57775000D01*
X143042500Y-56305000D02*
X143042500Y-57775000D01*
X145327500Y-56305000D02*
X143042500Y-56305000D01*
D12*
%TO.C,D1*%
X143135000Y-54680000D02*
X143135000Y-54680000D01*
X143235000Y-54680000D02*
X143235000Y-54680000D01*
X143235000Y-54680000D02*
G75*
G02*
X143135000Y-54680000I-50000J0D01*
G01*
X143135000Y-54680000D02*
G75*
G02*
X143235000Y-54680000I50000J0D01*
G01*
D13*
%TO.C,C14*%
X102931664Y-68436400D02*
X101727536Y-68436400D01*
X102931664Y-71156400D02*
X101727536Y-71156400D01*
%TO.C,C13*%
X102931664Y-60714800D02*
X101727536Y-60714800D01*
X102931664Y-63434800D02*
X101727536Y-63434800D01*
%TO.C,C12*%
X106342064Y-79440000D02*
X105137936Y-79440000D01*
X106342064Y-82160000D02*
X105137936Y-82160000D01*
%TO.C,C11*%
X106342064Y-76140000D02*
X105137936Y-76140000D01*
X106342064Y-78860000D02*
X105137936Y-78860000D01*
%TO.C,C10*%
X95730000Y-82424721D02*
X95730000Y-82750279D01*
X96750000Y-82424721D02*
X96750000Y-82750279D01*
%TO.C,C9*%
X104563921Y-85498800D02*
X104889479Y-85498800D01*
X104563921Y-84478800D02*
X104889479Y-84478800D01*
%TO.C,C8*%
X100337936Y-80060000D02*
X101542064Y-80060000D01*
X100337936Y-77340000D02*
X101542064Y-77340000D01*
%TO.C,C7*%
X126716000Y-55959221D02*
X126716000Y-56284779D01*
X127736000Y-55959221D02*
X127736000Y-56284779D01*
%TO.C,C6*%
X128296000Y-55966721D02*
X128296000Y-56292279D01*
X129316000Y-55966721D02*
X129316000Y-56292279D01*
%TO.C,C5*%
X127935000Y-72730279D02*
X127935000Y-72404721D01*
X126915000Y-72730279D02*
X126915000Y-72404721D01*
%TO.C,C4*%
X127935000Y-69642779D02*
X127935000Y-69317221D01*
X126915000Y-69642779D02*
X126915000Y-69317221D01*
%TO.C,C3*%
X145734721Y-68615000D02*
X146060279Y-68615000D01*
X145734721Y-67595000D02*
X146060279Y-67595000D01*
%TO.C,C2*%
X145747221Y-70165000D02*
X146072779Y-70165000D01*
X145747221Y-69145000D02*
X146072779Y-69145000D01*
%TO.C,C1*%
X134565000Y-65852064D02*
X134565000Y-64647936D01*
X131845000Y-65852064D02*
X131845000Y-64647936D01*
%TO.C,IC4*%
D16*
X99780238Y-87574523D02*
X99780238Y-86304523D01*
X101110714Y-87453571D02*
X101050238Y-87514047D01*
X100868809Y-87574523D01*
X100747857Y-87574523D01*
X100566428Y-87514047D01*
X100445476Y-87393095D01*
X100385000Y-87272142D01*
X100324523Y-87030238D01*
X100324523Y-86848809D01*
X100385000Y-86606904D01*
X100445476Y-86485952D01*
X100566428Y-86365000D01*
X100747857Y-86304523D01*
X100868809Y-86304523D01*
X101050238Y-86365000D01*
X101110714Y-86425476D01*
X102199285Y-86727857D02*
X102199285Y-87574523D01*
X101896904Y-86244047D02*
X101594523Y-87151190D01*
X102380714Y-87151190D01*
%TO.C,H2*%
D10*
X164478095Y-50142380D02*
X164478095Y-49142380D01*
X164478095Y-49618571D02*
X165049523Y-49618571D01*
X165049523Y-50142380D02*
X165049523Y-49142380D01*
X165478095Y-49237619D02*
X165525714Y-49190000D01*
X165620952Y-49142380D01*
X165859047Y-49142380D01*
X165954285Y-49190000D01*
X166001904Y-49237619D01*
X166049523Y-49332857D01*
X166049523Y-49428095D01*
X166001904Y-49570952D01*
X165430476Y-50142380D01*
X166049523Y-50142380D01*
%TO.C,H1*%
X96312380Y-46361904D02*
X95312380Y-46361904D01*
X95788571Y-46361904D02*
X95788571Y-45790476D01*
X96312380Y-45790476D02*
X95312380Y-45790476D01*
X96312380Y-44790476D02*
X96312380Y-45361904D01*
X96312380Y-45076190D02*
X95312380Y-45076190D01*
X95455238Y-45171428D01*
X95550476Y-45266666D01*
X95598095Y-45361904D01*
%TO.C,U1*%
X138665315Y-64000860D02*
X138665315Y-64810384D01*
X138712934Y-64905622D01*
X138760553Y-64953241D01*
X138855791Y-65000860D01*
X139046267Y-65000860D01*
X139141505Y-64953241D01*
X139189124Y-64905622D01*
X139236743Y-64810384D01*
X139236743Y-64000860D01*
X140236743Y-65000860D02*
X139665315Y-65000860D01*
X139951029Y-65000860D02*
X139951029Y-64000860D01*
X139855791Y-64143718D01*
X139760553Y-64238956D01*
X139665315Y-64286575D01*
%TO.C,IC2*%
D16*
X162360238Y-58324523D02*
X162360238Y-57054523D01*
X163690714Y-58203571D02*
X163630238Y-58264047D01*
X163448809Y-58324523D01*
X163327857Y-58324523D01*
X163146428Y-58264047D01*
X163025476Y-58143095D01*
X162965000Y-58022142D01*
X162904523Y-57780238D01*
X162904523Y-57598809D01*
X162965000Y-57356904D01*
X163025476Y-57235952D01*
X163146428Y-57115000D01*
X163327857Y-57054523D01*
X163448809Y-57054523D01*
X163630238Y-57115000D01*
X163690714Y-57175476D01*
X164174523Y-57175476D02*
X164235000Y-57115000D01*
X164355952Y-57054523D01*
X164658333Y-57054523D01*
X164779285Y-57115000D01*
X164839761Y-57175476D01*
X164900238Y-57296428D01*
X164900238Y-57417380D01*
X164839761Y-57598809D01*
X164114047Y-58324523D01*
X164900238Y-58324523D01*
%TO.C,Y1*%
X136334761Y-73354761D02*
X136939523Y-73354761D01*
X135669523Y-73778095D02*
X136334761Y-73354761D01*
X135669523Y-72931428D01*
X136939523Y-71842857D02*
X136939523Y-72568571D01*
X136939523Y-72205714D02*
X135669523Y-72205714D01*
X135850952Y-72326666D01*
X135971904Y-72447619D01*
X136032380Y-72568571D01*
%TO.C,SW1*%
D10*
X128582666Y-48204761D02*
X128725523Y-48252380D01*
X128963619Y-48252380D01*
X129058857Y-48204761D01*
X129106476Y-48157142D01*
X129154095Y-48061904D01*
X129154095Y-47966666D01*
X129106476Y-47871428D01*
X129058857Y-47823809D01*
X128963619Y-47776190D01*
X128773142Y-47728571D01*
X128677904Y-47680952D01*
X128630285Y-47633333D01*
X128582666Y-47538095D01*
X128582666Y-47442857D01*
X128630285Y-47347619D01*
X128677904Y-47300000D01*
X128773142Y-47252380D01*
X129011238Y-47252380D01*
X129154095Y-47300000D01*
X129487428Y-47252380D02*
X129725523Y-48252380D01*
X129916000Y-47538095D01*
X130106476Y-48252380D01*
X130344571Y-47252380D01*
X131249333Y-48252380D02*
X130677904Y-48252380D01*
X130963619Y-48252380D02*
X130963619Y-47252380D01*
X130868380Y-47395238D01*
X130773142Y-47490476D01*
X130677904Y-47538095D01*
%TO.C,R12*%
X96409642Y-86852380D02*
X96076309Y-86376190D01*
X95838214Y-86852380D02*
X95838214Y-85852380D01*
X96219166Y-85852380D01*
X96314404Y-85900000D01*
X96362023Y-85947619D01*
X96409642Y-86042857D01*
X96409642Y-86185714D01*
X96362023Y-86280952D01*
X96314404Y-86328571D01*
X96219166Y-86376190D01*
X95838214Y-86376190D01*
X97362023Y-86852380D02*
X96790595Y-86852380D01*
X97076309Y-86852380D02*
X97076309Y-85852380D01*
X96981071Y-85995238D01*
X96885833Y-86090476D01*
X96790595Y-86138095D01*
X97742976Y-85947619D02*
X97790595Y-85900000D01*
X97885833Y-85852380D01*
X98123928Y-85852380D01*
X98219166Y-85900000D01*
X98266785Y-85947619D01*
X98314404Y-86042857D01*
X98314404Y-86138095D01*
X98266785Y-86280952D01*
X97695357Y-86852380D01*
X98314404Y-86852380D01*
%TO.C,R11*%
X95777942Y-80970780D02*
X95444609Y-80494590D01*
X95206514Y-80970780D02*
X95206514Y-79970780D01*
X95587466Y-79970780D01*
X95682704Y-80018400D01*
X95730323Y-80066019D01*
X95777942Y-80161257D01*
X95777942Y-80304114D01*
X95730323Y-80399352D01*
X95682704Y-80446971D01*
X95587466Y-80494590D01*
X95206514Y-80494590D01*
X96730323Y-80970780D02*
X96158895Y-80970780D01*
X96444609Y-80970780D02*
X96444609Y-79970780D01*
X96349371Y-80113638D01*
X96254133Y-80208876D01*
X96158895Y-80256495D01*
X97682704Y-80970780D02*
X97111276Y-80970780D01*
X97396990Y-80970780D02*
X97396990Y-79970780D01*
X97301752Y-80113638D01*
X97206514Y-80208876D01*
X97111276Y-80256495D01*
%TO.C,R10*%
X128243142Y-51104380D02*
X127909809Y-50628190D01*
X127671714Y-51104380D02*
X127671714Y-50104380D01*
X128052666Y-50104380D01*
X128147904Y-50152000D01*
X128195523Y-50199619D01*
X128243142Y-50294857D01*
X128243142Y-50437714D01*
X128195523Y-50532952D01*
X128147904Y-50580571D01*
X128052666Y-50628190D01*
X127671714Y-50628190D01*
X129195523Y-51104380D02*
X128624095Y-51104380D01*
X128909809Y-51104380D02*
X128909809Y-50104380D01*
X128814571Y-50247238D01*
X128719333Y-50342476D01*
X128624095Y-50390095D01*
X129814571Y-50104380D02*
X129909809Y-50104380D01*
X130005047Y-50152000D01*
X130052666Y-50199619D01*
X130100285Y-50294857D01*
X130147904Y-50485333D01*
X130147904Y-50723428D01*
X130100285Y-50913904D01*
X130052666Y-51009142D01*
X130005047Y-51056761D01*
X129909809Y-51104380D01*
X129814571Y-51104380D01*
X129719333Y-51056761D01*
X129671714Y-51009142D01*
X129624095Y-50913904D01*
X129576476Y-50723428D01*
X129576476Y-50485333D01*
X129624095Y-50294857D01*
X129671714Y-50199619D01*
X129719333Y-50152000D01*
X129814571Y-50104380D01*
%TO.C,R9*%
X101210580Y-53166866D02*
X100734390Y-53500200D01*
X101210580Y-53738295D02*
X100210580Y-53738295D01*
X100210580Y-53357342D01*
X100258200Y-53262104D01*
X100305819Y-53214485D01*
X100401057Y-53166866D01*
X100543914Y-53166866D01*
X100639152Y-53214485D01*
X100686771Y-53262104D01*
X100734390Y-53357342D01*
X100734390Y-53738295D01*
X101210580Y-52690676D02*
X101210580Y-52500200D01*
X101162961Y-52404961D01*
X101115342Y-52357342D01*
X100972485Y-52262104D01*
X100782009Y-52214485D01*
X100401057Y-52214485D01*
X100305819Y-52262104D01*
X100258200Y-52309723D01*
X100210580Y-52404961D01*
X100210580Y-52595438D01*
X100258200Y-52690676D01*
X100305819Y-52738295D01*
X100401057Y-52785914D01*
X100639152Y-52785914D01*
X100734390Y-52738295D01*
X100782009Y-52690676D01*
X100829628Y-52595438D01*
X100829628Y-52404961D01*
X100782009Y-52309723D01*
X100734390Y-52262104D01*
X100639152Y-52214485D01*
%TO.C,R8*%
X105934980Y-53776466D02*
X105458790Y-54109800D01*
X105934980Y-54347895D02*
X104934980Y-54347895D01*
X104934980Y-53966942D01*
X104982600Y-53871704D01*
X105030219Y-53824085D01*
X105125457Y-53776466D01*
X105268314Y-53776466D01*
X105363552Y-53824085D01*
X105411171Y-53871704D01*
X105458790Y-53966942D01*
X105458790Y-54347895D01*
X105363552Y-53205038D02*
X105315933Y-53300276D01*
X105268314Y-53347895D01*
X105173076Y-53395514D01*
X105125457Y-53395514D01*
X105030219Y-53347895D01*
X104982600Y-53300276D01*
X104934980Y-53205038D01*
X104934980Y-53014561D01*
X104982600Y-52919323D01*
X105030219Y-52871704D01*
X105125457Y-52824085D01*
X105173076Y-52824085D01*
X105268314Y-52871704D01*
X105315933Y-52919323D01*
X105363552Y-53014561D01*
X105363552Y-53205038D01*
X105411171Y-53300276D01*
X105458790Y-53347895D01*
X105554028Y-53395514D01*
X105744504Y-53395514D01*
X105839742Y-53347895D01*
X105887361Y-53300276D01*
X105934980Y-53205038D01*
X105934980Y-53014561D01*
X105887361Y-52919323D01*
X105839742Y-52871704D01*
X105744504Y-52824085D01*
X105554028Y-52824085D01*
X105458790Y-52871704D01*
X105411171Y-52919323D01*
X105363552Y-53014561D01*
%TO.C,R7*%
X138753333Y-59062380D02*
X138420000Y-58586190D01*
X138181904Y-59062380D02*
X138181904Y-58062380D01*
X138562857Y-58062380D01*
X138658095Y-58110000D01*
X138705714Y-58157619D01*
X138753333Y-58252857D01*
X138753333Y-58395714D01*
X138705714Y-58490952D01*
X138658095Y-58538571D01*
X138562857Y-58586190D01*
X138181904Y-58586190D01*
X139086666Y-58062380D02*
X139753333Y-58062380D01*
X139324761Y-59062380D01*
%TO.C,R6*%
X138723333Y-60762380D02*
X138390000Y-60286190D01*
X138151904Y-60762380D02*
X138151904Y-59762380D01*
X138532857Y-59762380D01*
X138628095Y-59810000D01*
X138675714Y-59857619D01*
X138723333Y-59952857D01*
X138723333Y-60095714D01*
X138675714Y-60190952D01*
X138628095Y-60238571D01*
X138532857Y-60286190D01*
X138151904Y-60286190D01*
X139580476Y-59762380D02*
X139390000Y-59762380D01*
X139294761Y-59810000D01*
X139247142Y-59857619D01*
X139151904Y-60000476D01*
X139104285Y-60190952D01*
X139104285Y-60571904D01*
X139151904Y-60667142D01*
X139199523Y-60714761D01*
X139294761Y-60762380D01*
X139485238Y-60762380D01*
X139580476Y-60714761D01*
X139628095Y-60667142D01*
X139675714Y-60571904D01*
X139675714Y-60333809D01*
X139628095Y-60238571D01*
X139580476Y-60190952D01*
X139485238Y-60143333D01*
X139294761Y-60143333D01*
X139199523Y-60190952D01*
X139151904Y-60238571D01*
X139104285Y-60333809D01*
%TO.C,R5*%
X134719333Y-52520380D02*
X134386000Y-52044190D01*
X134147904Y-52520380D02*
X134147904Y-51520380D01*
X134528857Y-51520380D01*
X134624095Y-51568000D01*
X134671714Y-51615619D01*
X134719333Y-51710857D01*
X134719333Y-51853714D01*
X134671714Y-51948952D01*
X134624095Y-51996571D01*
X134528857Y-52044190D01*
X134147904Y-52044190D01*
X135624095Y-51520380D02*
X135147904Y-51520380D01*
X135100285Y-51996571D01*
X135147904Y-51948952D01*
X135243142Y-51901333D01*
X135481238Y-51901333D01*
X135576476Y-51948952D01*
X135624095Y-51996571D01*
X135671714Y-52091809D01*
X135671714Y-52329904D01*
X135624095Y-52425142D01*
X135576476Y-52472761D01*
X135481238Y-52520380D01*
X135243142Y-52520380D01*
X135147904Y-52472761D01*
X135100285Y-52425142D01*
%TO.C,R4*%
X132042380Y-58506666D02*
X131566190Y-58840000D01*
X132042380Y-59078095D02*
X131042380Y-59078095D01*
X131042380Y-58697142D01*
X131090000Y-58601904D01*
X131137619Y-58554285D01*
X131232857Y-58506666D01*
X131375714Y-58506666D01*
X131470952Y-58554285D01*
X131518571Y-58601904D01*
X131566190Y-58697142D01*
X131566190Y-59078095D01*
X131375714Y-57649523D02*
X132042380Y-57649523D01*
X130994761Y-57887619D02*
X131709047Y-58125714D01*
X131709047Y-57506666D01*
%TO.C,R3*%
X138633333Y-57462380D02*
X138300000Y-56986190D01*
X138061904Y-57462380D02*
X138061904Y-56462380D01*
X138442857Y-56462380D01*
X138538095Y-56510000D01*
X138585714Y-56557619D01*
X138633333Y-56652857D01*
X138633333Y-56795714D01*
X138585714Y-56890952D01*
X138538095Y-56938571D01*
X138442857Y-56986190D01*
X138061904Y-56986190D01*
X138966666Y-56462380D02*
X139585714Y-56462380D01*
X139252380Y-56843333D01*
X139395238Y-56843333D01*
X139490476Y-56890952D01*
X139538095Y-56938571D01*
X139585714Y-57033809D01*
X139585714Y-57271904D01*
X139538095Y-57367142D01*
X139490476Y-57414761D01*
X139395238Y-57462380D01*
X139109523Y-57462380D01*
X139014285Y-57414761D01*
X138966666Y-57367142D01*
%TO.C,R2*%
X130401333Y-54044380D02*
X130068000Y-53568190D01*
X129829904Y-54044380D02*
X129829904Y-53044380D01*
X130210857Y-53044380D01*
X130306095Y-53092000D01*
X130353714Y-53139619D01*
X130401333Y-53234857D01*
X130401333Y-53377714D01*
X130353714Y-53472952D01*
X130306095Y-53520571D01*
X130210857Y-53568190D01*
X129829904Y-53568190D01*
X130782285Y-53139619D02*
X130829904Y-53092000D01*
X130925142Y-53044380D01*
X131163238Y-53044380D01*
X131258476Y-53092000D01*
X131306095Y-53139619D01*
X131353714Y-53234857D01*
X131353714Y-53330095D01*
X131306095Y-53472952D01*
X130734666Y-54044380D01*
X131353714Y-54044380D01*
%TO.C,R1*%
X120302380Y-75606666D02*
X119826190Y-75940000D01*
X120302380Y-76178095D02*
X119302380Y-76178095D01*
X119302380Y-75797142D01*
X119350000Y-75701904D01*
X119397619Y-75654285D01*
X119492857Y-75606666D01*
X119635714Y-75606666D01*
X119730952Y-75654285D01*
X119778571Y-75701904D01*
X119826190Y-75797142D01*
X119826190Y-76178095D01*
X120302380Y-74654285D02*
X120302380Y-75225714D01*
X120302380Y-74940000D02*
X119302380Y-74940000D01*
X119445238Y-75035238D01*
X119540476Y-75130476D01*
X119588095Y-75225714D01*
%TO.C,L1*%
X107373333Y-83752380D02*
X106897142Y-83752380D01*
X106897142Y-82752380D01*
X108230476Y-83752380D02*
X107659047Y-83752380D01*
X107944761Y-83752380D02*
X107944761Y-82752380D01*
X107849523Y-82895238D01*
X107754285Y-82990476D01*
X107659047Y-83038095D01*
%TO.C,K1*%
D16*
X116914523Y-77515380D02*
X115644523Y-77515380D01*
X116914523Y-76789666D02*
X116188809Y-77333952D01*
X115644523Y-76789666D02*
X116370238Y-77515380D01*
X116914523Y-75580142D02*
X116914523Y-76305857D01*
X116914523Y-75943000D02*
X115644523Y-75943000D01*
X115825952Y-76063952D01*
X115946904Y-76184904D01*
X116007380Y-76305857D01*
%TO.C,JP5*%
D10*
X153035714Y-84072380D02*
X152464285Y-84072380D01*
X152750000Y-84072380D02*
X152750000Y-83072380D01*
X152654761Y-83215238D01*
X152559523Y-83310476D01*
X152464285Y-83358095D01*
X147216666Y-83072380D02*
X147835714Y-83072380D01*
X147502380Y-83453333D01*
X147645238Y-83453333D01*
X147740476Y-83500952D01*
X147788095Y-83548571D01*
X147835714Y-83643809D01*
X147835714Y-83881904D01*
X147788095Y-83977142D01*
X147740476Y-84024761D01*
X147645238Y-84072380D01*
X147359523Y-84072380D01*
X147264285Y-84024761D01*
X147216666Y-83977142D01*
%TO.C,JP4*%
X144165714Y-84092380D02*
X143594285Y-84092380D01*
X143880000Y-84092380D02*
X143880000Y-83092380D01*
X143784761Y-83235238D01*
X143689523Y-83330476D01*
X143594285Y-83378095D01*
X138346666Y-83092380D02*
X138965714Y-83092380D01*
X138632380Y-83473333D01*
X138775238Y-83473333D01*
X138870476Y-83520952D01*
X138918095Y-83568571D01*
X138965714Y-83663809D01*
X138965714Y-83901904D01*
X138918095Y-83997142D01*
X138870476Y-84044761D01*
X138775238Y-84092380D01*
X138489523Y-84092380D01*
X138394285Y-84044761D01*
X138346666Y-83997142D01*
%TO.C,JP3*%
X135295714Y-84102380D02*
X134724285Y-84102380D01*
X135010000Y-84102380D02*
X135010000Y-83102380D01*
X134914761Y-83245238D01*
X134819523Y-83340476D01*
X134724285Y-83388095D01*
X129476666Y-83102380D02*
X130095714Y-83102380D01*
X129762380Y-83483333D01*
X129905238Y-83483333D01*
X130000476Y-83530952D01*
X130048095Y-83578571D01*
X130095714Y-83673809D01*
X130095714Y-83911904D01*
X130048095Y-84007142D01*
X130000476Y-84054761D01*
X129905238Y-84102380D01*
X129619523Y-84102380D01*
X129524285Y-84054761D01*
X129476666Y-84007142D01*
%TO.C,JP2*%
X126445714Y-84102380D02*
X125874285Y-84102380D01*
X126160000Y-84102380D02*
X126160000Y-83102380D01*
X126064761Y-83245238D01*
X125969523Y-83340476D01*
X125874285Y-83388095D01*
X120626666Y-83102380D02*
X121245714Y-83102380D01*
X120912380Y-83483333D01*
X121055238Y-83483333D01*
X121150476Y-83530952D01*
X121198095Y-83578571D01*
X121245714Y-83673809D01*
X121245714Y-83911904D01*
X121198095Y-84007142D01*
X121150476Y-84054761D01*
X121055238Y-84102380D01*
X120769523Y-84102380D01*
X120674285Y-84054761D01*
X120626666Y-84007142D01*
%TO.C,JP1*%
X117595714Y-84102380D02*
X117024285Y-84102380D01*
X117310000Y-84102380D02*
X117310000Y-83102380D01*
X117214761Y-83245238D01*
X117119523Y-83340476D01*
X117024285Y-83388095D01*
X111776666Y-83102380D02*
X112395714Y-83102380D01*
X112062380Y-83483333D01*
X112205238Y-83483333D01*
X112300476Y-83530952D01*
X112348095Y-83578571D01*
X112395714Y-83673809D01*
X112395714Y-83911904D01*
X112348095Y-84007142D01*
X112300476Y-84054761D01*
X112205238Y-84102380D01*
X111919523Y-84102380D01*
X111824285Y-84054761D01*
X111776666Y-84007142D01*
%TO.C,J14*%
X84180476Y-86162380D02*
X84180476Y-86876666D01*
X84132857Y-87019523D01*
X84037619Y-87114761D01*
X83894761Y-87162380D01*
X83799523Y-87162380D01*
X85180476Y-87162380D02*
X84609047Y-87162380D01*
X84894761Y-87162380D02*
X84894761Y-86162380D01*
X84799523Y-86305238D01*
X84704285Y-86400476D01*
X84609047Y-86448095D01*
X86037619Y-86495714D02*
X86037619Y-87162380D01*
X85799523Y-86114761D02*
X85561428Y-86829047D01*
X86180476Y-86829047D01*
%TO.C,J13*%
X84190476Y-74222380D02*
X84190476Y-74936666D01*
X84142857Y-75079523D01*
X84047619Y-75174761D01*
X83904761Y-75222380D01*
X83809523Y-75222380D01*
X85190476Y-75222380D02*
X84619047Y-75222380D01*
X84904761Y-75222380D02*
X84904761Y-74222380D01*
X84809523Y-74365238D01*
X84714285Y-74460476D01*
X84619047Y-74508095D01*
X85523809Y-74222380D02*
X86142857Y-74222380D01*
X85809523Y-74603333D01*
X85952380Y-74603333D01*
X86047619Y-74650952D01*
X86095238Y-74698571D01*
X86142857Y-74793809D01*
X86142857Y-75031904D01*
X86095238Y-75127142D01*
X86047619Y-75174761D01*
X85952380Y-75222380D01*
X85666666Y-75222380D01*
X85571428Y-75174761D01*
X85523809Y-75127142D01*
%TO.C,J6*%
D16*
X88154523Y-52133333D02*
X89061666Y-52133333D01*
X89243095Y-52193809D01*
X89364047Y-52314761D01*
X89424523Y-52496190D01*
X89424523Y-52617142D01*
X88154523Y-50984285D02*
X88154523Y-51226190D01*
X88215000Y-51347142D01*
X88275476Y-51407619D01*
X88456904Y-51528571D01*
X88698809Y-51589047D01*
X89182619Y-51589047D01*
X89303571Y-51528571D01*
X89364047Y-51468095D01*
X89424523Y-51347142D01*
X89424523Y-51105238D01*
X89364047Y-50984285D01*
X89303571Y-50923809D01*
X89182619Y-50863333D01*
X88880238Y-50863333D01*
X88759285Y-50923809D01*
X88698809Y-50984285D01*
X88638333Y-51105238D01*
X88638333Y-51347142D01*
X88698809Y-51468095D01*
X88759285Y-51528571D01*
X88880238Y-51589047D01*
%TO.C,J5*%
X177204443Y-58684593D02*
X178111586Y-58684593D01*
X178293015Y-58745069D01*
X178413967Y-58866021D01*
X178474443Y-59047450D01*
X178474443Y-59168402D01*
X177204443Y-57475069D02*
X177204443Y-58079831D01*
X177809205Y-58140307D01*
X177748729Y-58079831D01*
X177688253Y-57958879D01*
X177688253Y-57656498D01*
X177748729Y-57535545D01*
X177809205Y-57475069D01*
X177930158Y-57414593D01*
X178232539Y-57414593D01*
X178353491Y-57475069D01*
X178413967Y-57535545D01*
X178474443Y-57656498D01*
X178474443Y-57958879D01*
X178413967Y-58079831D01*
X178353491Y-58140307D01*
%TO.C,J3*%
X174376666Y-84624523D02*
X174376666Y-85531666D01*
X174316190Y-85713095D01*
X174195238Y-85834047D01*
X174013809Y-85894523D01*
X173892857Y-85894523D01*
X174860476Y-84624523D02*
X175646666Y-84624523D01*
X175223333Y-85108333D01*
X175404761Y-85108333D01*
X175525714Y-85168809D01*
X175586190Y-85229285D01*
X175646666Y-85350238D01*
X175646666Y-85652619D01*
X175586190Y-85773571D01*
X175525714Y-85834047D01*
X175404761Y-85894523D01*
X175041904Y-85894523D01*
X174920952Y-85834047D01*
X174860476Y-85773571D01*
%TO.C,J1*%
X140196666Y-44537523D02*
X140196666Y-45444666D01*
X140136190Y-45626095D01*
X140015238Y-45747047D01*
X139833809Y-45807523D01*
X139712857Y-45807523D01*
X141466666Y-45807523D02*
X140740952Y-45807523D01*
X141103809Y-45807523D02*
X141103809Y-44537523D01*
X140982857Y-44718952D01*
X140861904Y-44839904D01*
X140740952Y-44900380D01*
%TO.C,IC5*%
X100074523Y-67149761D02*
X98804523Y-67149761D01*
X99953571Y-65819285D02*
X100014047Y-65879761D01*
X100074523Y-66061190D01*
X100074523Y-66182142D01*
X100014047Y-66363571D01*
X99893095Y-66484523D01*
X99772142Y-66545000D01*
X99530238Y-66605476D01*
X99348809Y-66605476D01*
X99106904Y-66545000D01*
X98985952Y-66484523D01*
X98865000Y-66363571D01*
X98804523Y-66182142D01*
X98804523Y-66061190D01*
X98865000Y-65879761D01*
X98925476Y-65819285D01*
X98804523Y-64670238D02*
X98804523Y-65275000D01*
X99409285Y-65335476D01*
X99348809Y-65275000D01*
X99288333Y-65154047D01*
X99288333Y-64851666D01*
X99348809Y-64730714D01*
X99409285Y-64670238D01*
X99530238Y-64609761D01*
X99832619Y-64609761D01*
X99953571Y-64670238D01*
X100014047Y-64730714D01*
X100074523Y-64851666D01*
X100074523Y-65154047D01*
X100014047Y-65275000D01*
X99953571Y-65335476D01*
%TO.C,IC3*%
X111895238Y-57679523D02*
X111895238Y-56409523D01*
X113225714Y-57558571D02*
X113165238Y-57619047D01*
X112983809Y-57679523D01*
X112862857Y-57679523D01*
X112681428Y-57619047D01*
X112560476Y-57498095D01*
X112500000Y-57377142D01*
X112439523Y-57135238D01*
X112439523Y-56953809D01*
X112500000Y-56711904D01*
X112560476Y-56590952D01*
X112681428Y-56470000D01*
X112862857Y-56409523D01*
X112983809Y-56409523D01*
X113165238Y-56470000D01*
X113225714Y-56530476D01*
X113649047Y-56409523D02*
X114435238Y-56409523D01*
X114011904Y-56893333D01*
X114193333Y-56893333D01*
X114314285Y-56953809D01*
X114374761Y-57014285D01*
X114435238Y-57135238D01*
X114435238Y-57437619D01*
X114374761Y-57558571D01*
X114314285Y-57619047D01*
X114193333Y-57679523D01*
X113830476Y-57679523D01*
X113709523Y-57619047D01*
X113649047Y-57558571D01*
%TO.C,IC1*%
X134140238Y-62254523D02*
X134140238Y-60984523D01*
X135470714Y-62133571D02*
X135410238Y-62194047D01*
X135228809Y-62254523D01*
X135107857Y-62254523D01*
X134926428Y-62194047D01*
X134805476Y-62073095D01*
X134745000Y-61952142D01*
X134684523Y-61710238D01*
X134684523Y-61528809D01*
X134745000Y-61286904D01*
X134805476Y-61165952D01*
X134926428Y-61045000D01*
X135107857Y-60984523D01*
X135228809Y-60984523D01*
X135410238Y-61045000D01*
X135470714Y-61105476D01*
X136680238Y-62254523D02*
X135954523Y-62254523D01*
X136317380Y-62254523D02*
X136317380Y-60984523D01*
X136196428Y-61165952D01*
X136075476Y-61286904D01*
X135954523Y-61347380D01*
%TO.C,D4*%
D10*
X146284404Y-59202380D02*
X146284404Y-58202380D01*
X146522500Y-58202380D01*
X146665357Y-58250000D01*
X146760595Y-58345238D01*
X146808214Y-58440476D01*
X146855833Y-58630952D01*
X146855833Y-58773809D01*
X146808214Y-58964285D01*
X146760595Y-59059523D01*
X146665357Y-59154761D01*
X146522500Y-59202380D01*
X146284404Y-59202380D01*
X147712976Y-58535714D02*
X147712976Y-59202380D01*
X147474880Y-58154761D02*
X147236785Y-58869047D01*
X147855833Y-58869047D01*
%TO.C,D3*%
X146291904Y-60732380D02*
X146291904Y-59732380D01*
X146530000Y-59732380D01*
X146672857Y-59780000D01*
X146768095Y-59875238D01*
X146815714Y-59970476D01*
X146863333Y-60160952D01*
X146863333Y-60303809D01*
X146815714Y-60494285D01*
X146768095Y-60589523D01*
X146672857Y-60684761D01*
X146530000Y-60732380D01*
X146291904Y-60732380D01*
X147196666Y-59732380D02*
X147815714Y-59732380D01*
X147482380Y-60113333D01*
X147625238Y-60113333D01*
X147720476Y-60160952D01*
X147768095Y-60208571D01*
X147815714Y-60303809D01*
X147815714Y-60541904D01*
X147768095Y-60637142D01*
X147720476Y-60684761D01*
X147625238Y-60732380D01*
X147339523Y-60732380D01*
X147244285Y-60684761D01*
X147196666Y-60637142D01*
%TO.C,D2*%
X146251904Y-57542380D02*
X146251904Y-56542380D01*
X146490000Y-56542380D01*
X146632857Y-56590000D01*
X146728095Y-56685238D01*
X146775714Y-56780476D01*
X146823333Y-56970952D01*
X146823333Y-57113809D01*
X146775714Y-57304285D01*
X146728095Y-57399523D01*
X146632857Y-57494761D01*
X146490000Y-57542380D01*
X146251904Y-57542380D01*
X147204285Y-56637619D02*
X147251904Y-56590000D01*
X147347142Y-56542380D01*
X147585238Y-56542380D01*
X147680476Y-56590000D01*
X147728095Y-56637619D01*
X147775714Y-56732857D01*
X147775714Y-56828095D01*
X147728095Y-56970952D01*
X147156666Y-57542380D01*
X147775714Y-57542380D01*
%TO.C,D1*%
D16*
X136032619Y-53554523D02*
X136032619Y-52284523D01*
X136335000Y-52284523D01*
X136516428Y-52345000D01*
X136637380Y-52465952D01*
X136697857Y-52586904D01*
X136758333Y-52828809D01*
X136758333Y-53010238D01*
X136697857Y-53252142D01*
X136637380Y-53373095D01*
X136516428Y-53494047D01*
X136335000Y-53554523D01*
X136032619Y-53554523D01*
X137967857Y-53554523D02*
X137242142Y-53554523D01*
X137605000Y-53554523D02*
X137605000Y-52284523D01*
X137484047Y-52465952D01*
X137363095Y-52586904D01*
X137242142Y-52647380D01*
%TO.C,C14*%
D10*
X102613542Y-70439257D02*
X102661161Y-70486876D01*
X102708780Y-70629733D01*
X102708780Y-70724971D01*
X102661161Y-70867828D01*
X102565923Y-70963066D01*
X102470685Y-71010685D01*
X102280209Y-71058304D01*
X102137352Y-71058304D01*
X101946876Y-71010685D01*
X101851638Y-70963066D01*
X101756400Y-70867828D01*
X101708780Y-70724971D01*
X101708780Y-70629733D01*
X101756400Y-70486876D01*
X101804019Y-70439257D01*
X102708780Y-69486876D02*
X102708780Y-70058304D01*
X102708780Y-69772590D02*
X101708780Y-69772590D01*
X101851638Y-69867828D01*
X101946876Y-69963066D01*
X101994495Y-70058304D01*
X102042114Y-68629733D02*
X102708780Y-68629733D01*
X101661161Y-68867828D02*
X102375447Y-69105923D01*
X102375447Y-68486876D01*
%TO.C,C13*%
X102613542Y-62717657D02*
X102661161Y-62765276D01*
X102708780Y-62908133D01*
X102708780Y-63003371D01*
X102661161Y-63146228D01*
X102565923Y-63241466D01*
X102470685Y-63289085D01*
X102280209Y-63336704D01*
X102137352Y-63336704D01*
X101946876Y-63289085D01*
X101851638Y-63241466D01*
X101756400Y-63146228D01*
X101708780Y-63003371D01*
X101708780Y-62908133D01*
X101756400Y-62765276D01*
X101804019Y-62717657D01*
X102708780Y-61765276D02*
X102708780Y-62336704D01*
X102708780Y-62050990D02*
X101708780Y-62050990D01*
X101851638Y-62146228D01*
X101946876Y-62241466D01*
X101994495Y-62336704D01*
X101708780Y-61431942D02*
X101708780Y-60812895D01*
X102089733Y-61146228D01*
X102089733Y-61003371D01*
X102137352Y-60908133D01*
X102184971Y-60860514D01*
X102280209Y-60812895D01*
X102518304Y-60812895D01*
X102613542Y-60860514D01*
X102661161Y-60908133D01*
X102708780Y-61003371D01*
X102708780Y-61289085D01*
X102661161Y-61384323D01*
X102613542Y-61431942D01*
%TO.C,C12*%
X106097142Y-81442857D02*
X106144761Y-81490476D01*
X106192380Y-81633333D01*
X106192380Y-81728571D01*
X106144761Y-81871428D01*
X106049523Y-81966666D01*
X105954285Y-82014285D01*
X105763809Y-82061904D01*
X105620952Y-82061904D01*
X105430476Y-82014285D01*
X105335238Y-81966666D01*
X105240000Y-81871428D01*
X105192380Y-81728571D01*
X105192380Y-81633333D01*
X105240000Y-81490476D01*
X105287619Y-81442857D01*
X106192380Y-80490476D02*
X106192380Y-81061904D01*
X106192380Y-80776190D02*
X105192380Y-80776190D01*
X105335238Y-80871428D01*
X105430476Y-80966666D01*
X105478095Y-81061904D01*
X105287619Y-80109523D02*
X105240000Y-80061904D01*
X105192380Y-79966666D01*
X105192380Y-79728571D01*
X105240000Y-79633333D01*
X105287619Y-79585714D01*
X105382857Y-79538095D01*
X105478095Y-79538095D01*
X105620952Y-79585714D01*
X106192380Y-80157142D01*
X106192380Y-79538095D01*
%TO.C,C11*%
X106097142Y-78042857D02*
X106144761Y-78090476D01*
X106192380Y-78233333D01*
X106192380Y-78328571D01*
X106144761Y-78471428D01*
X106049523Y-78566666D01*
X105954285Y-78614285D01*
X105763809Y-78661904D01*
X105620952Y-78661904D01*
X105430476Y-78614285D01*
X105335238Y-78566666D01*
X105240000Y-78471428D01*
X105192380Y-78328571D01*
X105192380Y-78233333D01*
X105240000Y-78090476D01*
X105287619Y-78042857D01*
X106192380Y-77090476D02*
X106192380Y-77661904D01*
X106192380Y-77376190D02*
X105192380Y-77376190D01*
X105335238Y-77471428D01*
X105430476Y-77566666D01*
X105478095Y-77661904D01*
X106192380Y-76138095D02*
X106192380Y-76709523D01*
X106192380Y-76423809D02*
X105192380Y-76423809D01*
X105335238Y-76519047D01*
X105430476Y-76614285D01*
X105478095Y-76709523D01*
%TO.C,C10*%
X95050742Y-83142457D02*
X95098361Y-83190076D01*
X95145980Y-83332933D01*
X95145980Y-83428171D01*
X95098361Y-83571028D01*
X95003123Y-83666266D01*
X94907885Y-83713885D01*
X94717409Y-83761504D01*
X94574552Y-83761504D01*
X94384076Y-83713885D01*
X94288838Y-83666266D01*
X94193600Y-83571028D01*
X94145980Y-83428171D01*
X94145980Y-83332933D01*
X94193600Y-83190076D01*
X94241219Y-83142457D01*
X95145980Y-82190076D02*
X95145980Y-82761504D01*
X95145980Y-82475790D02*
X94145980Y-82475790D01*
X94288838Y-82571028D01*
X94384076Y-82666266D01*
X94431695Y-82761504D01*
X94145980Y-81571028D02*
X94145980Y-81475790D01*
X94193600Y-81380552D01*
X94241219Y-81332933D01*
X94336457Y-81285314D01*
X94526933Y-81237695D01*
X94765028Y-81237695D01*
X94955504Y-81285314D01*
X95050742Y-81332933D01*
X95098361Y-81380552D01*
X95145980Y-81475790D01*
X95145980Y-81571028D01*
X95098361Y-81666266D01*
X95050742Y-81713885D01*
X94955504Y-81761504D01*
X94765028Y-81809123D01*
X94526933Y-81809123D01*
X94336457Y-81761504D01*
X94241219Y-81713885D01*
X94193600Y-81666266D01*
X94145980Y-81571028D01*
%TO.C,C9*%
X104560033Y-83915942D02*
X104512414Y-83963561D01*
X104369557Y-84011180D01*
X104274319Y-84011180D01*
X104131461Y-83963561D01*
X104036223Y-83868323D01*
X103988604Y-83773085D01*
X103940985Y-83582609D01*
X103940985Y-83439752D01*
X103988604Y-83249276D01*
X104036223Y-83154038D01*
X104131461Y-83058800D01*
X104274319Y-83011180D01*
X104369557Y-83011180D01*
X104512414Y-83058800D01*
X104560033Y-83106419D01*
X105036223Y-84011180D02*
X105226700Y-84011180D01*
X105321938Y-83963561D01*
X105369557Y-83915942D01*
X105464795Y-83773085D01*
X105512414Y-83582609D01*
X105512414Y-83201657D01*
X105464795Y-83106419D01*
X105417176Y-83058800D01*
X105321938Y-83011180D01*
X105131461Y-83011180D01*
X105036223Y-83058800D01*
X104988604Y-83106419D01*
X104940985Y-83201657D01*
X104940985Y-83439752D01*
X104988604Y-83534990D01*
X105036223Y-83582609D01*
X105131461Y-83630228D01*
X105321938Y-83630228D01*
X105417176Y-83582609D01*
X105464795Y-83534990D01*
X105512414Y-83439752D01*
%TO.C,C8*%
X101297142Y-78866666D02*
X101344761Y-78914285D01*
X101392380Y-79057142D01*
X101392380Y-79152380D01*
X101344761Y-79295238D01*
X101249523Y-79390476D01*
X101154285Y-79438095D01*
X100963809Y-79485714D01*
X100820952Y-79485714D01*
X100630476Y-79438095D01*
X100535238Y-79390476D01*
X100440000Y-79295238D01*
X100392380Y-79152380D01*
X100392380Y-79057142D01*
X100440000Y-78914285D01*
X100487619Y-78866666D01*
X100820952Y-78295238D02*
X100773333Y-78390476D01*
X100725714Y-78438095D01*
X100630476Y-78485714D01*
X100582857Y-78485714D01*
X100487619Y-78438095D01*
X100440000Y-78390476D01*
X100392380Y-78295238D01*
X100392380Y-78104761D01*
X100440000Y-78009523D01*
X100487619Y-77961904D01*
X100582857Y-77914285D01*
X100630476Y-77914285D01*
X100725714Y-77961904D01*
X100773333Y-78009523D01*
X100820952Y-78104761D01*
X100820952Y-78295238D01*
X100868571Y-78390476D01*
X100916190Y-78438095D01*
X101011428Y-78485714D01*
X101201904Y-78485714D01*
X101297142Y-78438095D01*
X101344761Y-78390476D01*
X101392380Y-78295238D01*
X101392380Y-78104761D01*
X101344761Y-78009523D01*
X101297142Y-77961904D01*
X101201904Y-77914285D01*
X101011428Y-77914285D01*
X100916190Y-77961904D01*
X100868571Y-78009523D01*
X100820952Y-78104761D01*
%TO.C,C7*%
X126013142Y-56328666D02*
X126060761Y-56376285D01*
X126108380Y-56519142D01*
X126108380Y-56614380D01*
X126060761Y-56757238D01*
X125965523Y-56852476D01*
X125870285Y-56900095D01*
X125679809Y-56947714D01*
X125536952Y-56947714D01*
X125346476Y-56900095D01*
X125251238Y-56852476D01*
X125156000Y-56757238D01*
X125108380Y-56614380D01*
X125108380Y-56519142D01*
X125156000Y-56376285D01*
X125203619Y-56328666D01*
X125108380Y-55995333D02*
X125108380Y-55328666D01*
X126108380Y-55757238D01*
%TO.C,C6*%
X130547142Y-56336666D02*
X130594761Y-56384285D01*
X130642380Y-56527142D01*
X130642380Y-56622380D01*
X130594761Y-56765238D01*
X130499523Y-56860476D01*
X130404285Y-56908095D01*
X130213809Y-56955714D01*
X130070952Y-56955714D01*
X129880476Y-56908095D01*
X129785238Y-56860476D01*
X129690000Y-56765238D01*
X129642380Y-56622380D01*
X129642380Y-56527142D01*
X129690000Y-56384285D01*
X129737619Y-56336666D01*
X129642380Y-55479523D02*
X129642380Y-55670000D01*
X129690000Y-55765238D01*
X129737619Y-55812857D01*
X129880476Y-55908095D01*
X130070952Y-55955714D01*
X130451904Y-55955714D01*
X130547142Y-55908095D01*
X130594761Y-55860476D01*
X130642380Y-55765238D01*
X130642380Y-55574761D01*
X130594761Y-55479523D01*
X130547142Y-55431904D01*
X130451904Y-55384285D01*
X130213809Y-55384285D01*
X130118571Y-55431904D01*
X130070952Y-55479523D01*
X130023333Y-55574761D01*
X130023333Y-55765238D01*
X130070952Y-55860476D01*
X130118571Y-55908095D01*
X130213809Y-55955714D01*
%TO.C,C5*%
X126352142Y-72734166D02*
X126399761Y-72781785D01*
X126447380Y-72924642D01*
X126447380Y-73019880D01*
X126399761Y-73162738D01*
X126304523Y-73257976D01*
X126209285Y-73305595D01*
X126018809Y-73353214D01*
X125875952Y-73353214D01*
X125685476Y-73305595D01*
X125590238Y-73257976D01*
X125495000Y-73162738D01*
X125447380Y-73019880D01*
X125447380Y-72924642D01*
X125495000Y-72781785D01*
X125542619Y-72734166D01*
X125447380Y-71829404D02*
X125447380Y-72305595D01*
X125923571Y-72353214D01*
X125875952Y-72305595D01*
X125828333Y-72210357D01*
X125828333Y-71972261D01*
X125875952Y-71877023D01*
X125923571Y-71829404D01*
X126018809Y-71781785D01*
X126256904Y-71781785D01*
X126352142Y-71829404D01*
X126399761Y-71877023D01*
X126447380Y-71972261D01*
X126447380Y-72210357D01*
X126399761Y-72305595D01*
X126352142Y-72353214D01*
%TO.C,C4*%
X126352142Y-69646666D02*
X126399761Y-69694285D01*
X126447380Y-69837142D01*
X126447380Y-69932380D01*
X126399761Y-70075238D01*
X126304523Y-70170476D01*
X126209285Y-70218095D01*
X126018809Y-70265714D01*
X125875952Y-70265714D01*
X125685476Y-70218095D01*
X125590238Y-70170476D01*
X125495000Y-70075238D01*
X125447380Y-69932380D01*
X125447380Y-69837142D01*
X125495000Y-69694285D01*
X125542619Y-69646666D01*
X125780714Y-68789523D02*
X126447380Y-68789523D01*
X125399761Y-69027619D02*
X126114047Y-69265714D01*
X126114047Y-68646666D01*
%TO.C,C3*%
X145728833Y-66806142D02*
X145681214Y-66853761D01*
X145538357Y-66901380D01*
X145443119Y-66901380D01*
X145300261Y-66853761D01*
X145205023Y-66758523D01*
X145157404Y-66663285D01*
X145109785Y-66472809D01*
X145109785Y-66329952D01*
X145157404Y-66139476D01*
X145205023Y-66044238D01*
X145300261Y-65949000D01*
X145443119Y-65901380D01*
X145538357Y-65901380D01*
X145681214Y-65949000D01*
X145728833Y-65996619D01*
X146062166Y-65901380D02*
X146681214Y-65901380D01*
X146347880Y-66282333D01*
X146490738Y-66282333D01*
X146585976Y-66329952D01*
X146633595Y-66377571D01*
X146681214Y-66472809D01*
X146681214Y-66710904D01*
X146633595Y-66806142D01*
X146585976Y-66853761D01*
X146490738Y-66901380D01*
X146205023Y-66901380D01*
X146109785Y-66853761D01*
X146062166Y-66806142D01*
%TO.C,C2*%
X145755833Y-71662142D02*
X145708214Y-71709761D01*
X145565357Y-71757380D01*
X145470119Y-71757380D01*
X145327261Y-71709761D01*
X145232023Y-71614523D01*
X145184404Y-71519285D01*
X145136785Y-71328809D01*
X145136785Y-71185952D01*
X145184404Y-70995476D01*
X145232023Y-70900238D01*
X145327261Y-70805000D01*
X145470119Y-70757380D01*
X145565357Y-70757380D01*
X145708214Y-70805000D01*
X145755833Y-70852619D01*
X146136785Y-70852619D02*
X146184404Y-70805000D01*
X146279642Y-70757380D01*
X146517738Y-70757380D01*
X146612976Y-70805000D01*
X146660595Y-70852619D01*
X146708214Y-70947857D01*
X146708214Y-71043095D01*
X146660595Y-71185952D01*
X146089166Y-71757380D01*
X146708214Y-71757380D01*
%TO.C,C1*%
X131282142Y-65416666D02*
X131329761Y-65464285D01*
X131377380Y-65607142D01*
X131377380Y-65702380D01*
X131329761Y-65845238D01*
X131234523Y-65940476D01*
X131139285Y-65988095D01*
X130948809Y-66035714D01*
X130805952Y-66035714D01*
X130615476Y-65988095D01*
X130520238Y-65940476D01*
X130425000Y-65845238D01*
X130377380Y-65702380D01*
X130377380Y-65607142D01*
X130425000Y-65464285D01*
X130472619Y-65416666D01*
X131377380Y-64464285D02*
X131377380Y-65035714D01*
X131377380Y-64750000D02*
X130377380Y-64750000D01*
X130520238Y-64845238D01*
X130615476Y-64940476D01*
X130663095Y-65035714D01*
%TD*%
M02*
